<?xml version="1.0" encoding="UTF-8"?>
<svg id="Layer_2" data-name="Layer 2" xmlns="http://www.w3.org/2000/svg" viewBox="0 0 60 60">
  <defs>
    <style>
      .cls-1 {
        fill: #fff;
      }

      .cls-2 {
        fill: none;
      }
    </style>
  </defs>
  <g id="Layer_1-2" data-name="Layer 1">
    <g>
      <rect class="cls-2" width="60" height="60"/>
      <g>
        <path class="cls-1" d="M11.71,14.39c.05-.07.09-.15.12-.24-.03.09-.08.16-.12.24Z"/>
        <path class="cls-1" d="M54.81,16.48c-.12-.12-.24-.23-.37-.34-.13-.11-.26-.21-.4-.3-.14-.09-.28-.18-.43-.26-.15-.08-.3-.16-.46-.22-.63-.27-1.32-.42-2.05-.42h-1.78c-.43,0-.8-.22-1.02-.54-.05-.07-.09-.15-.12-.24-.01-.03-.03-.07-.04-.11-.03-.11-.05-.22-.05-.35v-4.79s0-.06,0-.1v-.59c0-.09,0-.18,0-.27,0-.07,0-.14-.02-.21-.23-2.54-2.24-4.56-4.77-4.82-.01,0-.03,0-.04,0-.02,0-.04,0-.05,0-.07,0-.14-.01-.22-.02-.08,0-.16,0-.24,0h-25.49c-.08,0-.15,0-.22,0-.07,0-.15.01-.22.02-.02,0-.04,0-.05,0-.01,0-.03,0-.04,0-.07,0-.14.02-.21.03,0,0-.02,0-.03,0-.02,0-.04,0-.06.01-.03,0-.07,0-.1.01-.07.01-.14.03-.21.04-.06.01-.12.03-.18.05-.05.01-.09.03-.13.04-.02,0-.03,0-.05.01-.06.02-.12.04-.18.06-.01,0-.02,0-.03.01-.05.02-.1.03-.15.05-.06.02-.12.05-.18.07,0,0,0,0,0,0-1.78.74-3.08,2.42-3.26,4.43,0,.07-.01.14-.02.21,0,.09,0,.18,0,.27v.59s0,.07,0,.1v4.79c0,.12-.02.24-.05.35-.01.04-.02.07-.04.11-.03.09-.07.16-.12.24-.22.33-.6.54-1.02.54h-1.78c-.73,0-1.43.15-2.05.42-.16.07-.31.14-.46.22-.15.08-.29.17-.43.26s-.27.2-.4.3c-.13.11-.25.22-.37.34-1.11,1.12-1.71,2.72-1.46,4.42l4.42,31.03c.05.29.12.57.2.84.36,1.18,1.04,2.18,2.03,3.03,1.04.88,2.38,1.33,3.74,1.33h31.75c1.36,0,2.7-.45,3.74-1.33.99-.84,1.67-1.85,2.03-3.03.09-.27.15-.55.2-.84l4.42-31.03c.24-1.7-.36-3.3-1.46-4.42ZM17.95,12.74c0-.29.03-.58.1-.86.01-.07.03-.13.05-.2.46-1.63,1.95-2.82,3.73-2.82h18.87c.75,0,1.36.61,1.36,1.36v.79c0,.23-.02.45-.06.67-.01.07-.03.13-.04.2-.12.54-.35,1.03-.67,1.45h0c-.71.95-1.84,1.56-3.11,1.56h-18.87c-.75,0-1.36-.61-1.36-1.36v-.79ZM33.69,51.17h-17.04c-1.51,0-2.78-1.11-3-2.6l-1.35-9.5s0-.04-.01-.07l-.28-1.96c-1.22-8.53,5.4-16.16,14.02-16.16h20.77c1.84,0,3.26,1.63,3,3.46l-1.81,12.7-.29,2.03c-1.02,6.95-6.98,12.1-14.01,12.1Z"/>
        <path class="cls-1" d="M20.35,45.18c-.65,0-1.2-.48-1.29-1.12l-.88-6.15v-.02s-.25-1.69-.25-1.69c-.34-2.35.32-4.64,1.86-6.44s3.95-2.89,6.39-2.89h15.69c.79,0,1.4.7,1.29,1.49l-1.41,9.86c-.58,3.96-4.06,6.96-8.08,6.96h-13.34Z"/>
      </g>
    </g>
  </g>
</svg>