<?xml version="1.0" encoding="UTF-8"?>
<svg id="Layer_1" xmlns="http://www.w3.org/2000/svg" version="1.1" viewBox="0 0 24 24">
  <!-- Generator: Adobe Illustrator 30.0.0, SVG Export Plug-In . SVG Version: 2.1.1 Build 123)  -->
  <defs>
    <style>
      .st0 {
        fill: #e8eaed;
      }
    </style>
  </defs>
  <path class="st0" d="M6.7,21c-.5,0-.9-.2-1.3-.5-.4-.3-.6-.7-.7-1.2l-1.6-11.1c0-.3,0-.6.2-.8s.4-.4.7-.4h1.9v-2c0-.6.2-1,.6-1.4.4-.4.9-.6,1.4-.6h8c.6,0,1,.2,1.4.6s.6.9.6,1.4v2h1.8c.3,0,.6.1.8.4s.3.5.3.8l-1.6,11.1c0,.5-.3.9-.7,1.2-.4.3-.8.5-1.3.5H6.7ZM5.3,9l1.4,10h10.6l1.4-10H5.3ZM8,7h8v-2h-8v2Z"/>
</svg>