<svg width="11" height="11" viewBox="0 0 11 11"  xmlns="http://www.w3.org/2000/svg">
<path d="M4.13867 0H1.1481C0.515615 0 0 0.515961 0 1.14887V4.13457C0 4.76748 0.515615 5.28344 1.1481 5.28344H4.13179C4.76428 5.28344 5.2799 4.76748 5.2799 4.13457V1.14887C5.2799 0.515961 4.76428 0 4.13179 0H4.13867ZM4.42741 4.14145C4.42741 4.29968 4.29679 4.43039 4.13867 4.43039H1.1481C0.989981 4.43039 0.859358 4.29968 0.859358 4.14145V1.14887C0.859358 0.990646 0.989981 0.859936 1.1481 0.859936H4.13179C4.28992 0.859936 4.42054 0.990646 4.42054 1.14887V4.13457L4.42741 4.14145Z" />
<path d="M9.8519 5.71656H6.86821C6.23572 5.71656 5.7201 6.23252 5.7201 6.86543V9.85113C5.7201 10.484 6.23572 11 6.86821 11H9.8519C10.4844 11 11 10.484 11 9.85113V6.86543C11 6.23252 10.4844 5.71656 9.8519 5.71656ZM10.1406 9.85801C10.1406 10.0162 10.01 10.1469 9.8519 10.1469H6.86821C6.71008 10.1469 6.57946 10.0162 6.57946 9.85801V6.87231C6.57946 6.71408 6.71008 6.58337 6.86821 6.58337H9.8519C10.01 6.58337 10.1406 6.71408 10.1406 6.87231V9.85801Z" />
<path d="M4.59961 7.93234H3.07339V6.4051C3.07339 6.16431 2.88089 5.97857 2.64715 5.97857C2.4134 5.97857 2.2209 6.17119 2.2209 6.4051V8.35887C2.2209 8.59965 2.4134 8.7854 2.64715 8.7854H4.59961C4.84023 8.7854 5.02585 8.59277 5.02585 8.35887C5.02585 8.12497 4.83335 7.93234 4.59961 7.93234Z" />
<path d="M7.23263 3.07486H7.92699V3.76969C7.92699 4.01047 8.11948 4.19622 8.35323 4.19622C8.58698 4.19622 8.77947 4.00359 8.77947 3.76969V3.07486H9.47383C9.71445 3.07486 9.90007 2.88224 9.90007 2.64833C9.90007 2.41443 9.70758 2.2218 9.47383 2.2218H8.77947V1.52698C8.77947 1.28619 8.58698 1.10045 8.35323 1.10045C8.11948 1.10045 7.92699 1.29307 7.92699 1.52698V2.2218H7.23263C6.99201 2.2218 6.80639 2.41443 6.80639 2.64833C6.80639 2.88224 6.99888 3.07486 7.23263 3.07486Z" />
</svg>
