<svg width="11" height="11" viewBox="0 0 11 11"  xmlns="http://www.w3.org/2000/svg">
<path d="M1.22222 11C0.886111 11 0.59838 10.8803 0.359028 10.641C0.119676 10.4016 0 10.1139 0 9.77778V1.22222C0 0.886111 0.119676 0.59838 0.359028 0.359028C0.59838 0.119676 0.886111 0 1.22222 0H4.27778C4.45093 0 4.59606 0.0585648 4.71319 0.175694C4.83032 0.292824 4.88889 0.437963 4.88889 0.611111C4.88889 0.784259 4.83032 0.929398 4.71319 1.04653C4.59606 1.16366 4.45093 1.22222 4.27778 1.22222H1.22222V9.77778H9.77778V6.72222C9.77778 6.54907 9.83634 6.40393 9.95347 6.28681C10.0706 6.16968 10.2157 6.11111 10.3889 6.11111C10.562 6.11111 10.7072 6.16968 10.8243 6.28681C10.9414 6.40393 11 6.54907 11 6.72222V9.77778C11 10.1139 10.8803 10.4016 10.641 10.641C10.4016 10.8803 10.1139 11 9.77778 11H1.22222ZM7.94444 3.05556H6.72222C6.54907 3.05556 6.40393 2.99699 6.28681 2.87986C6.16968 2.76273 6.11111 2.61759 6.11111 2.44444C6.11111 2.2713 6.16968 2.12616 6.28681 2.00903C6.40393 1.8919 6.54907 1.83333 6.72222 1.83333H7.94444V0.611111C7.94444 0.437963 8.00301 0.292824 8.12014 0.175694C8.23727 0.0585648 8.38241 0 8.55555 0C8.7287 0 8.87384 0.0585648 8.99097 0.175694C9.1081 0.292824 9.16667 0.437963 9.16667 0.611111V1.83333H10.3889C10.562 1.83333 10.7072 1.8919 10.8243 2.00903C10.9414 2.12616 11 2.2713 11 2.44444C11 2.61759 10.9414 2.76273 10.8243 2.87986C10.7072 2.99699 10.562 3.05556 10.3889 3.05556H9.16667V4.27778C9.16667 4.45093 9.1081 4.59606 8.99097 4.71319C8.87384 4.83032 8.7287 4.88889 8.55555 4.88889C8.38241 4.88889 8.23727 4.83032 8.12014 4.71319C8.00301 4.59606 7.94444 4.45093 7.94444 4.27778V3.05556Z" />
</svg>
