<svg width="11" height="11" viewBox="0 0 11 11"  xmlns="http://www.w3.org/2000/svg">
<path fill-rule="evenodd" clip-rule="evenodd" d="M8.25 4.4495V1.7985L4.125 0L0 1.7985V4.499C0 6.996 1.76 9.3335 4.125 9.9C4.4275 9.8285 4.719 9.724 5.005 9.5975C5.599 10.4445 6.5835 11 7.7 11C9.5205 11 11 9.5205 11 7.7C11 6.0665 9.812 4.7135 8.25 4.4495ZM4.4 7.7C4.4 8.008 4.444 8.3105 4.5265 8.591C4.3945 8.6515 4.2625 8.712 4.125 8.756C2.3815 8.206 1.1 6.424 1.1 4.499V2.519L4.125 1.199L7.15 2.519V4.4495C5.588 4.7135 4.4 6.0665 4.4 7.7ZM7.7 9.9C6.4845 9.9 5.5 8.9155 5.5 7.7C5.5 6.4845 6.4845 5.5 7.7 5.5C8.9155 5.5 9.9 6.4845 9.9 7.7C9.9 8.9155 8.9155 9.9 7.7 9.9Z" />
</svg>
