<svg width="11" height="11" viewBox="0 0 11 11"  xmlns="http://www.w3.org/2000/svg">
<path d="M1.65 10.45V9.9H1.1C0.796243 9.9 0.55 9.65376 0.55 9.35C0.55 9.04624 0.796243 8.8 1.1 8.8H1.65V8.25C1.65 7.94624 1.89624 7.7 2.2 7.7C2.50376 7.7 2.75 7.94624 2.75 8.25V8.8H3.3C3.60376 8.8 3.85 9.04624 3.85 9.35C3.85 9.65376 3.60376 9.9 3.3 9.9H2.75V10.45C2.75 10.7538 2.50376 11 2.2 11C1.89624 11 1.65 10.7538 1.65 10.45ZM6.05 0C6.28668 0 6.49662 0.151476 6.57153 0.375977L7.74565 3.89834L10.6434 4.98491L10.7202 5.0209C10.8912 5.11725 11 5.29943 11 5.5C11 5.70057 10.8912 5.88275 10.7202 5.9791L10.6434 6.01509L7.74565 7.10112L6.57153 10.624C6.49662 10.8485 6.28668 11 6.05 11C5.81332 11 5.60338 10.8485 5.52847 10.624L4.35381 7.10112L1.45664 6.01509C1.24207 5.93454 1.1 5.7292 1.1 5.5C1.1 5.2708 1.24207 5.06546 1.45664 4.98491L4.35381 3.89834L5.52847 0.375977L5.5623 0.29541C5.65592 0.115939 5.84284 0 6.05 0ZM5.3147 4.49507C5.26223 4.65244 5.14128 4.77783 4.98599 4.83613L3.21621 5.5L4.98599 6.16387L5.04238 6.18857C5.17033 6.25375 5.26877 6.36716 5.3147 6.50493L6.05 8.71084L6.7853 6.50493L6.8084 6.44746C6.86875 6.31719 6.97809 6.2149 7.11401 6.16387L8.88325 5.5L7.11401 4.83613C6.95872 4.77783 6.83777 4.65244 6.7853 4.49507L6.05 2.28862L5.3147 4.49507ZM1.1 2.75V2.2H0.55C0.246243 2.2 0 1.95376 0 1.65C0 1.34624 0.246243 1.1 0.55 1.1H1.1V0.55C1.1 0.246243 1.34624 0 1.65 0C1.95376 0 2.2 0.246243 2.2 0.55V1.1H2.75C3.05376 1.1 3.3 1.34624 3.3 1.65C3.3 1.95376 3.05376 2.2 2.75 2.2H2.2V2.75C2.2 3.05376 1.95376 3.3 1.65 3.3C1.34624 3.3 1.1 3.05376 1.1 2.75Z" />
</svg>
