<svg width="11" height="11" viewBox="0 0 11 11"  xmlns="http://www.w3.org/2000/svg">
<path d="M6.5 0H2.5C1.95 0 1.5 0.495 1.5 1.1V9.9C1.5 10.505 1.95 11 2.5 11H8.5C9.05 11 9.5 10.505 9.5 9.9V3.3L6.5 0ZM8.5 9.9H2.5V1.1H6.5V3.3H8.5V9.9ZM5.5 8.25C4.95 8.25 4.5 7.755 4.5 7.15V4.125C4.5 3.971 4.61 3.85 4.75 3.85C4.89 3.85 5 3.971 5 4.125V7.15H6V4.125C6 3.366 5.44 2.75 4.75 2.75C4.06 2.75 3.5 3.366 3.5 4.125V7.15C3.5 8.3655 4.395 9.35 5.5 9.35C6.605 9.35 7.5 8.3655 7.5 7.15V4.95H6.5V7.15C6.5 7.755 6.05 8.25 5.5 8.25Z" />
</svg>
