<svg width="11" height="11" viewBox="0 0 11 11"  xmlns="http://www.w3.org/2000/svg">
<path d="M9.61878 5.60989C9.8312 5.43345 10.1442 5.4462 10.3419 5.64812C10.5528 5.86367 10.5527 6.21321 10.3414 6.42829L6.95942 9.86986C6.29417 10.5483 5.40676 10.9478 4.47162 10.9952L4.28423 11C3.28076 11 2.31812 10.5935 1.60851 9.86986C0.898914 9.14607 0.500046 8.1642 0.5 7.14061C0.5 6.11936 0.896704 5.13955 1.60323 4.41621L5.07074 0.785657L5.08235 0.773812C5.59208 0.271656 6.27508 -0.00617671 6.9837 0.000104221C7.69227 0.00642973 8.37028 0.296658 8.87133 0.807732C9.37229 1.31883 9.65643 2.01042 9.66259 2.73312C9.66868 3.45582 9.3963 4.15211 8.90406 4.67196L8.90247 4.67358L5.43655 8.30252L5.43707 8.30306C5.28753 8.46099 5.10858 8.58681 4.9108 8.67349C4.71296 8.76018 4.50007 8.80619 4.28475 8.8081C4.06945 8.81 3.85588 8.76796 3.6566 8.6848C3.45734 8.60163 3.27623 8.47881 3.12399 8.32352C2.97176 8.16823 2.85132 7.98351 2.7698 7.78026C2.68828 7.577 2.64705 7.35913 2.64892 7.13954C2.6508 6.91994 2.69591 6.70275 2.78088 6.50097C2.84458 6.34977 2.92977 6.20929 3.03373 6.08424L3.14405 5.96417L6.6976 2.34007C6.90869 2.12477 7.25086 2.12476 7.46194 2.34007C7.65967 2.54194 7.67201 2.86122 7.49889 3.07771L7.46194 3.1197L3.90206 6.7508L3.89519 6.75726C3.84357 6.80812 3.80212 6.86929 3.77379 6.93655C3.74553 7.00375 3.7306 7.07611 3.72997 7.14923C3.72936 7.22242 3.74345 7.29523 3.77062 7.36298C3.79779 7.43061 3.83767 7.4922 3.88833 7.54389C3.93908 7.59566 3.99979 7.63677 4.06622 7.6645C4.13254 7.69213 4.20362 7.70603 4.27525 7.70542C4.34702 7.70478 4.41834 7.68962 4.48429 7.66073C4.55017 7.63183 4.60971 7.58951 4.65954 7.53689L4.66112 7.53527L8.1281 3.90418C8.42246 3.59241 8.58522 3.17515 8.58153 2.74227C8.5778 2.30865 8.40708 1.89399 8.10646 1.58736C7.80582 1.28074 7.39933 1.10657 6.9742 1.10279C6.54993 1.09903 6.1407 1.26467 5.83508 1.56475L2.3776 5.18562L2.37285 5.191C1.86595 5.70803 1.58106 6.40942 1.58106 7.14061C1.5811 7.87172 1.86602 8.5727 2.37285 9.08969C2.87974 9.60672 3.56737 9.89732 4.28423 9.89732L4.41778 9.89409C5.08592 9.86034 5.71981 9.57447 6.19508 9.08969H6.19561L9.57761 5.64758L9.61878 5.60989Z" />
</svg>
