<svg width="11" height="11" viewBox="0 0 11 11"  xmlns="http://www.w3.org/2000/svg">
<path d="M4.38889 8.8C4.38889 9.09174 4.50603 9.37144 4.71441 9.57773C4.92278 9.78402 5.20531 9.9 5.5 9.9L5.60959 9.89463C5.86404 9.86967 6.10321 9.75829 6.28559 9.57773C6.49397 9.37144 6.61111 9.09174 6.61111 8.8H4.38889ZM8.26965 4.7373C8.23107 4.24376 8.05846 3.76817 7.76834 3.36177C7.47811 2.95526 7.08248 2.63542 6.62522 2.43472L6.42557 2.3563C6.20373 2.27853 6.05556 2.07044 6.05556 1.83745V1.65C6.05556 1.50413 5.99698 1.36428 5.8928 1.26113C5.80161 1.17085 5.68202 1.11517 5.5548 1.10269L5.5 1.1C5.35266 1.1 5.21139 1.15799 5.1072 1.26113C5.00302 1.36428 4.94444 1.50413 4.94444 1.65V1.83745C4.94444 2.07051 4.79584 2.27859 4.57389 2.3563C3.49451 2.73433 2.72221 3.75385 2.72221 4.95V6.68755C2.72219 7.05566 2.59773 7.41065 2.37391 7.7H8.62609C8.53709 7.58493 8.46208 7.45959 8.40583 7.3251C8.34233 7.17328 8.30211 7.01323 8.28592 6.85029L8.27779 6.68701V4.95L8.26965 4.7373ZM9.3889 6.68701L9.39161 6.74287C9.39713 6.79816 9.41078 6.85248 9.4323 6.904C9.46107 6.97279 9.5034 7.03556 9.55655 7.08823L10.3373 7.86113C10.4961 8.01843 10.5437 8.25503 10.4577 8.46055C10.3717 8.66603 10.1691 8.8 9.94446 8.8H7.72223C7.72223 9.38348 7.48793 9.94289 7.07119 10.3555C6.68047 10.7423 6.15941 10.9704 5.61013 10.9973L5.5 11C4.91063 11 4.34556 10.768 3.92881 10.3555C3.51207 9.94289 3.27777 9.38348 3.27777 8.8H1.05554C0.830865 8.8 0.628309 8.66603 0.542302 8.46055C0.456312 8.25503 0.503857 8.01843 0.662745 7.86113L1.44346 7.08823L1.48143 7.04688C1.565 6.9459 1.61108 6.8188 1.6111 6.68755V4.95C1.6111 3.40949 2.52532 2.08141 3.84418 1.46577C3.88615 1.09597 4.05324 0.749084 4.32161 0.483398C4.63417 0.173963 5.05797 0 5.5 0C5.94203 0 6.36583 0.173963 6.67839 0.483398C6.94674 0.74907 7.1133 1.09599 7.15528 1.46577C7.76152 1.74827 8.28619 2.18168 8.67547 2.7269C9.13968 3.37713 9.38898 4.15376 9.3889 4.95V6.68701Z" />
</svg>
