<svg width="11" height="11" viewBox="0 0 11 11"  xmlns="http://www.w3.org/2000/svg">
<path d="M8.875 1.65C8.875 1.50413 8.81569 1.36428 8.71021 1.26113C8.60472 1.15799 8.46168 1.1 8.3125 1.1H2.6875C2.53832 1.1 2.39528 1.15799 2.28979 1.26113C2.18431 1.36428 2.125 1.50413 2.125 1.65V9.56002L5.24841 8.03302L5.30884 8.00777C5.45282 7.95689 5.61296 7.96524 5.75159 8.03302L8.875 9.56002V1.65ZM10 10.45C10 10.6406 9.89887 10.8176 9.73303 10.9178C9.56722 11.018 9.36024 11.0272 9.18591 10.942L5.5 9.14L1.81409 10.942C1.63976 11.0272 1.43278 11.018 1.26697 10.9178C1.10113 10.8176 1 10.6406 1 10.45V1.65C1 1.21239 1.17792 0.792835 1.49438 0.483399C1.81085 0.173964 2.23995 0 2.6875 0H8.3125C8.76005 0 9.18915 0.173964 9.50562 0.483399C9.82208 0.792834 10 1.21239 10 1.65V10.45Z" />
</svg>
