<svg width="11" height="11" viewBox="0 0 11 11"  xmlns="http://www.w3.org/2000/svg">
<path d="M9.9 1.65C9.9 1.50413 9.84201 1.36428 9.73887 1.26113C9.63572 1.15799 9.49587 1.1 9.35 1.1H8.25C8.10413 1.1 7.96428 1.15799 7.86113 1.26113C7.75799 1.36428 7.7 1.50413 7.7 1.65V9.35C7.7 9.49587 7.75799 9.63572 7.86113 9.73887C7.96428 9.84201 8.10413 9.9 8.25 9.9H9.35C9.49587 9.9 9.63572 9.84201 9.73887 9.73887C9.84201 9.63572 9.9 9.49587 9.9 9.35V1.65ZM1.1 9.35C1.1 9.49587 1.15799 9.63572 1.26113 9.73887C1.36428 9.84201 1.50413 9.9 1.65 9.9H2.75C2.89587 9.9 3.03572 9.84201 3.13887 9.73887C3.24201 9.63572 3.3 9.49587 3.3 9.35V6.05C3.3 5.90413 3.24201 5.76428 3.13887 5.66113C3.03572 5.55799 2.89587 5.5 2.75 5.5H1.65C1.50413 5.5 1.36428 5.55799 1.26113 5.66113C1.15799 5.76428 1.1 5.90413 1.1 6.05V9.35ZM4.4 9.35C4.4 9.49587 4.45799 9.63572 4.56113 9.73887C4.66428 9.84201 4.80413 9.9 4.95 9.9H6.05C6.19587 9.9 6.33572 9.84201 6.43887 9.73887C6.54201 9.63572 6.6 9.49587 6.6 9.35V3.85C6.6 3.70413 6.54201 3.56428 6.43887 3.46113C6.34859 3.37085 6.2302 3.31517 6.10425 3.30269L6.05 3.3H4.95C4.80413 3.3 4.66428 3.35799 4.56113 3.46113C4.45799 3.56428 4.4 3.70413 4.4 3.85V9.35ZM11 9.35C11 9.78761 10.826 10.2072 10.5166 10.5166C10.2072 10.826 9.78761 11 9.35 11H8.25C7.84241 11 7.45189 10.8475 7.15 10.5768C6.84811 10.8475 6.45759 11 6.05 11H4.95C4.54241 11 4.15189 10.8475 3.85 10.5768C3.54811 10.8475 3.15759 11 2.75 11H1.65C1.21239 11 0.792833 10.826 0.483398 10.5166C0.173963 10.2072 0 9.78761 0 9.35V6.05C0 5.61239 0.173963 5.19283 0.483398 4.8834C0.792833 4.57396 1.21239 4.4 1.65 4.4H2.75C2.93937 4.4 3.12482 4.43413 3.3 4.49614V3.85C3.3 3.41239 3.47396 2.99283 3.7834 2.6834C4.09283 2.37396 4.51239 2.2 4.95 2.2H6.05L6.21328 2.20806C6.34606 2.22126 6.47549 2.25207 6.6 2.29614V1.65C6.6 1.21239 6.77396 0.792833 7.0834 0.483398C7.39283 0.173963 7.81239 0 8.25 0H9.35C9.78761 0 10.2072 0.173963 10.5166 0.483398C10.826 0.792833 11 1.21239 11 1.65V9.35Z" />
</svg>
