<svg width="11" height="11" viewBox="0 0 11 11"  xmlns="http://www.w3.org/2000/svg">
<path d="M3.90933 9.25C3.82297 9.25 3.742 9.2359 3.66644 9.20772C3.59087 9.17998 3.5207 9.13255 3.45592 9.06543L0.670678 6.17953C0.551928 6.05649 0.495143 5.89698 0.500325 5.70101C0.505939 5.50548 0.568121 5.3462 0.686871 5.22315C0.805622 5.10011 0.95676 5.03859 1.14028 5.03859C1.32381 5.03859 1.47494 5.10011 1.5937 5.22315L3.90933 7.62248L9.39886 1.93456C9.51761 1.81152 9.67155 1.75 9.86069 1.75C10.0494 1.75 10.2031 1.81152 10.3219 1.93456C10.4406 2.05761 10.5 2.21689 10.5 2.41242C10.5 2.60839 10.4406 2.7679 10.3219 2.89094L4.36275 9.06543C4.29797 9.13255 4.2278 9.17998 4.15223 9.20772C4.07666 9.2359 3.9957 9.25 3.90933 9.25Z" />
</svg>
