<svg width="11" height="11" viewBox="0 0 11 11"  xmlns="http://www.w3.org/2000/svg">
<path d="M7.33206 2.17265C7.2201 2.05755 7.07761 2 6.90458 2C6.73155 2 6.58906 2.05755 6.4771 2.17265L3.66794 5.06054C3.60687 5.12332 3.56351 5.19133 3.53786 5.26457C3.51262 5.33782 3.5 5.41629 3.5 5.5C3.5 5.58371 3.51527 5.6649 3.5458 5.74359C3.57634 5.82185 3.61705 5.88714 3.66794 5.93946L6.4771 8.82735C6.58906 8.94245 6.73155 9 6.90458 9C7.07761 9 7.2201 8.94245 7.33206 8.82735C7.44402 8.71226 7.5 8.56577 7.5 8.38789C7.5 8.21001 7.44402 8.06353 7.33206 7.94843L4.95038 5.5L7.33206 3.05157C7.44402 2.93647 7.5 2.78998 7.5 2.61211C7.5 2.43423 7.44402 2.28774 7.33206 2.17265Z" />
</svg>
