<svg width="11" height="11" viewBox="0 0 11 11"  xmlns="http://www.w3.org/2000/svg">
<path d="M2.17265 3.66794C2.05755 3.7799 2 3.92239 2 4.09542C2 4.26845 2.05755 4.41094 2.17265 4.5229L5.06054 7.33206C5.12332 7.39313 5.19133 7.43649 5.26457 7.46214C5.33782 7.48738 5.41629 7.5 5.5 7.5C5.58371 7.5 5.6649 7.48473 5.74359 7.4542C5.82185 7.42366 5.88714 7.38295 5.93946 7.33206L8.82735 4.5229C8.94245 4.41094 9 4.26845 9 4.09542C9 3.92239 8.94245 3.7799 8.82735 3.66794C8.71226 3.55598 8.56577 3.5 8.38789 3.5C8.21001 3.5 8.06353 3.55598 7.94843 3.66794L5.5 6.04962L3.05157 3.66794C2.93647 3.55598 2.78998 3.5 2.61211 3.5C2.43423 3.5 2.28774 3.55598 2.17265 3.66794Z" />
</svg>
