<svg width="11" height="11" viewBox="0 0 11 11"  xmlns="http://www.w3.org/2000/svg">
<path d="M3.66794 8.82735C3.7799 8.94245 3.92239 9 4.09542 9C4.26845 9 4.41094 8.94245 4.5229 8.82735L7.33206 5.93946C7.39313 5.87668 7.43649 5.80867 7.46214 5.73543C7.48738 5.66218 7.5 5.58371 7.5 5.5C7.5 5.41629 7.48473 5.3351 7.4542 5.25641C7.42366 5.17815 7.38295 5.11286 7.33206 5.06054L4.5229 2.17265C4.41094 2.05755 4.26845 2 4.09542 2C3.92239 2 3.7799 2.05755 3.66794 2.17265C3.55598 2.28774 3.5 2.43423 3.5 2.61211C3.5 2.78999 3.55598 2.93647 3.66794 3.05157L6.04962 5.5L3.66794 7.94843C3.55598 8.06353 3.5 8.21002 3.5 8.38789C3.5 8.56577 3.55598 8.71226 3.66794 8.82735Z" />
</svg>
