<svg width="11" height="11" viewBox="0 0 11 11"  xmlns="http://www.w3.org/2000/svg">
<path d="M2.17265 7.33206C2.05755 7.2201 2 7.07761 2 6.90458C2 6.73155 2.05755 6.58906 2.17265 6.4771L5.06054 3.66794C5.12332 3.60687 5.19133 3.56351 5.26457 3.53786C5.33782 3.51262 5.41629 3.5 5.5 3.5C5.58371 3.5 5.6649 3.51527 5.74359 3.5458C5.82185 3.57634 5.88714 3.61705 5.93946 3.66794L8.82735 6.4771C8.94245 6.58906 9 6.73155 9 6.90458C9 7.07761 8.94245 7.2201 8.82735 7.33206C8.71226 7.44402 8.56577 7.5 8.38789 7.5C8.21001 7.5 8.06353 7.44402 7.94843 7.33206L5.5 4.95038L3.05157 7.33206C2.93647 7.44402 2.78998 7.5 2.61211 7.5C2.43423 7.5 2.28774 7.44402 2.17265 7.33206Z" />
</svg>
