<svg width="11" height="11" viewBox="0 0 11 11"  xmlns="http://www.w3.org/2000/svg">
<path d="M5.5 0.5C2.74 0.5 0.5 2.74 0.5 5.5C0.5 8.26 2.74 10.5 5.5 10.5C8.26 10.5 10.5 8.26 10.5 5.5C10.5 2.74 8.26 0.5 5.5 0.5ZM5.5 9.5C3.295 9.5 1.5 7.705 1.5 5.5C1.5 3.295 3.295 1.5 5.5 1.5C7.705 1.5 9.5 3.295 9.5 5.5C9.5 7.705 7.705 9.5 5.5 9.5ZM7.44 3.645L4.5 6.585L3.56 5.645C3.365 5.45 3.05 5.45 2.855 5.645C2.66 5.84 2.66 6.155 2.855 6.35L4.15 7.645C4.345 7.84 4.66 7.84 4.855 7.645L8.15 4.35C8.345 4.155 8.345 3.84 8.15 3.645C7.955 3.45 7.635 3.45 7.44 3.645Z" />
</svg>
