<svg width="11" height="11" viewBox="0 0 11 11"  xmlns="http://www.w3.org/2000/svg">
<path d="M8.875 2.75C8.875 2.60413 8.81569 2.46428 8.71021 2.36113C8.61787 2.27085 8.49679 2.21517 8.36798 2.20269L8.3125 2.2H7.65112C7.56799 2.42956 7.43509 2.64111 7.25562 2.8166C6.97875 3.08731 6.61573 3.2544 6.22949 3.29194L6.0625 3.3H4.9375C4.48995 3.3 4.06085 3.12604 3.74438 2.8166C3.56491 2.64111 3.43201 2.42956 3.34888 2.2H2.6875C2.53832 2.2 2.39528 2.25799 2.28979 2.36113C2.18431 2.46428 2.125 2.60413 2.125 2.75V9.35L2.12775 9.40425C2.14051 9.5302 2.19746 9.64859 2.28979 9.73887C2.39528 9.84201 2.53832 9.9 2.6875 9.9H8.3125C8.46168 9.9 8.60472 9.84201 8.71021 9.73887C8.81569 9.63572 8.875 9.49587 8.875 9.35V2.75ZM4.88202 1.10269C4.75321 1.11517 4.63213 1.17085 4.53979 1.26113C4.43431 1.36428 4.375 1.50413 4.375 1.65C4.375 1.79587 4.43431 1.93572 4.53979 2.03887C4.64528 2.14201 4.78832 2.2 4.9375 2.2H6.0625L6.11798 2.19731C6.24679 2.18483 6.36787 2.12915 6.46021 2.03887C6.56569 1.93572 6.625 1.79587 6.625 1.65C6.625 1.50413 6.56569 1.36428 6.46021 1.26113C6.36787 1.17085 6.24679 1.11517 6.11798 1.10269L6.0625 1.1H4.9375L4.88202 1.10269ZM10 9.35C10 9.78761 9.82208 10.2072 9.50562 10.5166C9.18915 10.826 8.76005 11 8.3125 11H2.6875C2.23995 11 1.81085 10.826 1.49438 10.5166C1.17792 10.2072 1 9.78761 1 9.35V2.75C1 2.31239 1.17792 1.89283 1.49438 1.5834C1.81085 1.27396 2.23995 1.1 2.6875 1.1H3.34888C3.43201 0.870435 3.56491 0.658885 3.74438 0.483398C4.06085 0.173963 4.48995 0 4.9375 0H6.0625C6.51005 0 6.93915 0.173963 7.25562 0.483398C7.43509 0.658885 7.56799 0.870435 7.65112 1.1H8.3125L8.47949 1.10806C8.86573 1.1456 9.22875 1.31269 9.50562 1.5834C9.82208 1.89283 10 2.31239 10 2.75V9.35Z" />
</svg>
