<svg width="11" height="11" viewBox="0 0 11 11"  xmlns="http://www.w3.org/2000/svg">
<path d="M8.52459 1.66737C8.74775 1.44421 9.10947 1.44421 9.33263 1.66737C9.55579 1.89053 9.55579 2.25225 9.33263 2.47541L6.30804 5.5L9.33263 8.52459L9.37169 8.56811C9.55475 8.79256 9.54184 9.12342 9.33263 9.33263C9.12342 9.54184 8.79256 9.55475 8.56811 9.37169L8.52459 9.33263L5.5 6.30804L2.47541 9.33263C2.25225 9.55579 1.89053 9.55579 1.66737 9.33263C1.44421 9.10947 1.44421 8.74775 1.66737 8.52459L4.69196 5.5L1.66737 2.47541L1.62831 2.43189C1.44525 2.20744 1.45816 1.87658 1.66737 1.66737C1.87658 1.45816 2.20744 1.44525 2.43189 1.62831L2.47541 1.66737L5.5 4.69196L8.52459 1.66737Z" />
</svg>
