<svg width="11" height="11" viewBox="0 0 11 11"  xmlns="http://www.w3.org/2000/svg">
<path fill-rule="evenodd" clip-rule="evenodd" d="M6.91537 1.03297C6.99154 1.05963 7.06197 1.10181 7.12264 1.15711C7.18331 1.21241 7.23302 1.27974 7.26895 1.35526C7.30487 1.43078 7.3263 1.513 7.33201 1.59723C7.33771 1.68146 7.32759 1.76604 7.30221 1.84615L4.85771 9.56015C4.80649 9.72195 4.69627 9.85572 4.55129 9.93203C4.40631 10.0083 4.23845 10.0209 4.08463 9.96707C3.93082 9.91319 3.80365 9.79725 3.7311 9.64475C3.65856 9.49225 3.64657 9.31568 3.69779 9.15388L6.14229 1.43988C6.16764 1.35976 6.20774 1.28567 6.26031 1.22186C6.31288 1.15804 6.37689 1.10574 6.44869 1.06796C6.52048 1.03017 6.59864 1.00763 6.67872 1.00163C6.75879 0.995623 6.83921 1.00627 6.91537 1.03297ZM2.87644 3.11704C2.99101 3.23759 3.05537 3.40106 3.05537 3.57152C3.05537 3.74198 2.99101 3.90545 2.87644 4.026L1.47513 5.50002L2.87644 6.97404C2.93481 7.03334 2.98136 7.10427 3.01339 7.1827C3.04542 7.26113 3.06228 7.34548 3.06298 7.43083C3.06369 7.51619 3.04823 7.60084 3.0175 7.67984C2.98677 7.75884 2.94139 7.83061 2.88401 7.89097C2.82663 7.95133 2.7584 7.99906 2.68329 8.03138C2.60819 8.0637 2.52772 8.07997 2.44657 8.07923C2.36543 8.07849 2.28523 8.06075 2.21067 8.02706C2.13612 7.99337 2.06868 7.9444 2.01231 7.883L0.178929 5.9545C0.0643609 5.83395 0 5.67048 0 5.50002C0 5.32956 0.0643609 5.16609 0.178929 5.04554L2.01231 3.11704C2.12691 2.99652 2.28232 2.92882 2.44437 2.92882C2.60642 2.92882 2.76183 2.99652 2.87644 3.11704ZM8.12356 3.11704C8.23816 2.99652 8.39358 2.92882 8.55563 2.92882C8.71768 2.92882 8.87309 2.99652 8.98769 3.11704L10.8211 5.04554C10.9356 5.16609 11 5.32956 11 5.50002C11 5.67048 10.9356 5.83395 10.8211 5.9545L8.98769 7.883C8.93132 7.9444 8.86388 7.99337 8.78932 8.02706C8.71476 8.06075 8.63457 8.07849 8.55343 8.07923C8.47228 8.07997 8.39181 8.0637 8.31671 8.03138C8.2416 7.99906 8.17337 7.95133 8.11599 7.89097C8.05861 7.83061 8.01323 7.75884 7.9825 7.67984C7.95177 7.60084 7.93631 7.51619 7.93702 7.43083C7.93772 7.34548 7.95458 7.26113 7.98661 7.1827C8.01864 7.10427 8.06519 7.03334 8.12356 6.97404L9.52487 5.50002L8.12356 4.026C8.00899 3.90545 7.94463 3.74198 7.94463 3.57152C7.94463 3.40106 8.00899 3.23759 8.12356 3.11704Z" />
</svg>
