<svg width="11" height="11" viewBox="0 0 11 11"  xmlns="http://www.w3.org/2000/svg">
<path d="M9.91239 4.07865H9.43054C9.38235 3.95506 9.33417 3.83146 9.2791 3.71473L9.62328 3.37141C10.0432 2.95256 10.0432 2.26592 9.62328 1.84707L9.15519 1.38015C8.73529 0.954432 8.04005 0.961298 7.62015 1.38015L7.28285 1.7166C7.16583 1.66167 7.03504 1.60674 6.91114 1.56554V1.07803C6.91114 0.480649 6.4224 0 5.83041 0H5.1627C4.56383 0 4.08198 0.487516 4.08198 1.07803V1.56554C3.95119 1.61361 3.82728 1.66167 3.71026 1.7166L3.37297 1.38015C2.95307 0.961298 2.26471 0.961298 1.84481 1.38015L1.37672 1.84707C0.956821 2.26592 0.956821 2.95256 1.37672 3.37141L1.7209 3.71473C1.66583 3.83146 1.61076 3.95506 1.56946 4.08552H1.08073C0.481852 4.08552 0 4.57303 0 5.16355V5.82959C0 6.42697 0.488736 6.90762 1.08073 6.90762H1.56946C1.61765 7.03808 1.66583 7.16167 1.7209 7.2784L1.37672 7.62172C0.949937 8.04057 0.949937 8.73408 1.37672 9.15293L1.84481 9.62672C2.26471 10.0456 2.95307 10.0456 3.37297 9.62672L3.71715 9.2834C3.83417 9.33833 3.95807 9.38639 4.08198 9.43446V9.92197C4.08198 10.5194 4.57071 11 5.1627 11H5.83041C6.42929 11 6.91114 10.5125 6.91114 9.92197V9.43446C7.03504 9.38639 7.15895 9.33833 7.27597 9.2834L7.62015 9.62672C8.04693 10.0456 8.73529 10.0456 9.15519 9.62672L9.62328 9.1598C10.0501 8.74095 10.0501 8.04744 9.62328 7.62859L9.2791 7.28527C9.33417 7.16854 9.38235 7.04494 9.43054 6.92135H9.91927C10.525 6.92135 11 6.44757 11 5.84332V5.17728C11 4.5799 10.5113 4.09925 9.91927 4.09925L9.91239 4.07865ZM10.0088 5.82272C10.0088 5.88452 9.96746 5.91885 9.90551 5.91885H9.22403C9.09324 5.87079 8.95557 5.88452 8.83166 5.95318C8.71464 6.01498 8.62516 6.13171 8.59074 6.26217C8.50814 6.58489 8.38423 6.87328 8.23279 7.13421C8.15707 7.26467 8.11577 7.40886 8.17084 7.54619C8.21902 7.68352 8.31539 7.78652 8.45307 7.83458L8.92115 8.3015C8.96245 8.3427 8.96245 8.41136 8.92115 8.44569L8.45307 8.91261C8.41177 8.95381 8.34293 8.95381 8.30851 8.91261L7.83354 8.43883C7.77847 8.3221 7.6821 8.22597 7.5582 8.1779C7.42053 8.12984 7.2622 8.14357 7.13141 8.2191C6.86984 8.37703 6.58073 8.49376 6.2572 8.57615C6.12641 8.61049 6.01627 8.70662 5.94743 8.82335C5.88548 8.94007 5.87171 9.09114 5.91302 9.2216V9.88764C5.91302 9.94944 5.85795 9.98377 5.80976 9.98377H5.14205C5.09387 9.98377 5.0388 9.94944 5.0388 9.88764V9.20786C5.08698 9.0774 5.07322 8.94007 5.00438 8.81648C4.94243 8.69975 4.82541 8.61049 4.69462 8.57615C4.37109 8.49376 4.07509 8.37016 3.8204 8.2191C3.74468 8.17104 3.65519 8.15044 3.56571 8.15044C3.51064 8.15044 3.44869 8.1573 3.39362 8.1779C3.26971 8.22597 3.16646 8.31523 3.11827 8.43883L2.65019 8.90574C2.60889 8.94694 2.55382 8.94694 2.51252 8.90574L2.04443 8.43883C2.00313 8.39763 2.00313 8.32896 2.04443 8.29463L2.47121 7.84145C2.61577 7.79338 2.72591 7.68352 2.78098 7.53933C2.83605 7.39513 2.81539 7.2372 2.73279 7.11361C2.57447 6.86642 2.45056 6.57803 2.36796 6.24844C2.33354 6.11798 2.23717 6.00811 2.12015 5.93945C2.00313 5.87765 1.85169 5.86392 1.7209 5.90512H1.05319C1.00501 5.90512 0.956821 5.87079 0.956821 5.80899V5.14295C0.956821 5.08801 1.00501 5.04682 1.05319 5.04682H1.74155C1.87234 5.09488 2.01001 5.08115 2.13392 5.01248C2.25094 4.95069 2.34043 4.83396 2.37484 4.7035C2.45745 4.38077 2.58135 4.08552 2.73967 3.83833C2.82228 3.70787 2.86358 3.56367 2.80851 3.41948C2.75344 3.27528 2.66395 3.17228 2.52628 3.12422L2.0582 2.6573C2.0169 2.6161 2.0169 2.56117 2.0582 2.51997L2.52628 2.05306C2.56758 2.01186 2.62265 2.01186 2.66395 2.05306L3.14581 2.53371C3.20776 2.6573 3.3179 2.74657 3.44869 2.78777C3.57947 2.82896 3.72403 2.80836 3.84105 2.73283C4.09574 2.57491 4.39174 2.45818 4.71527 2.37578C4.84606 2.34145 4.95619 2.24532 5.02503 2.12859C5.08698 2.01186 5.10075 1.8608 5.05945 1.73034V1.06429C5.05945 1.00936 5.10763 0.968165 5.1627 0.968165H5.83041C5.88548 0.968165 5.93367 1.01623 5.93367 1.06429V1.74407C5.88548 1.87453 5.89925 2.01186 5.96809 2.13546C6.03004 2.25218 6.14706 2.34145 6.27785 2.37578C6.60138 2.45818 6.89737 2.58177 7.15207 2.73283C7.26909 2.8015 7.41364 2.81523 7.55131 2.7809C7.6821 2.7397 7.79912 2.64357 7.86108 2.51997L8.32916 2.05306C8.37046 2.01186 8.4393 2.01186 8.47372 2.05306L8.9418 2.51997C8.9831 2.56117 8.9831 2.6161 8.9418 2.6573L8.51502 3.11049C8.37046 3.15855 8.26033 3.26841 8.21214 3.40574C8.16395 3.54307 8.17772 3.701 8.25344 3.82459C8.41177 4.07865 8.52879 4.37391 8.61139 4.69663C8.64581 4.82709 8.74218 4.93695 8.8592 5.00562C8.97622 5.07428 9.12766 5.08115 9.25845 5.03995H9.92616C9.98811 5.03995 10.0294 5.08802 10.0294 5.13608V5.80212L10.0088 5.82272Z" />
<path d="M5.48623 3.7628C4.52941 3.7628 3.75156 4.5387 3.75156 5.49313C3.75156 6.44757 4.52941 7.22347 5.48623 7.22347C6.44305 7.22347 7.22778 6.44757 7.22778 5.49313C7.22778 4.5387 6.44994 3.7628 5.48623 3.7628ZM5.48623 6.24844C5.07322 6.24844 4.72904 5.91198 4.72904 5.49313C4.72904 5.07428 5.06633 4.73783 5.48623 4.73783C5.90613 4.73783 6.24343 5.07428 6.24343 5.49313C6.24343 5.91198 5.90613 6.24844 5.48623 6.24844Z" />
</svg>
