<svg width="11" height="11" viewBox="0 0 11 11"  xmlns="http://www.w3.org/2000/svg">
<path d="M9.9 1.73684C9.9 1.5833 9.84201 1.43608 9.73887 1.32751C9.64859 1.23248 9.5302 1.17386 9.40425 1.16072L9.35 1.1579H1.65C1.50413 1.1579 1.36428 1.21894 1.26113 1.32751C1.15799 1.43608 1.1 1.5833 1.1 1.73684V6.36843C1.1 6.52198 1.15799 6.66919 1.26113 6.77777C1.36428 6.88634 1.50413 6.94738 1.65 6.94738H3.85C4.15376 6.94738 4.4 7.20658 4.4 7.52633V9.02345L6.21113 7.11699L6.25142 7.07855C6.34929 6.99412 6.47235 6.94738 6.6 6.94738H9.35C9.49587 6.94738 9.63572 6.88634 9.73887 6.77777C9.84201 6.66919 9.9 6.52198 9.9 6.36843V1.73684ZM3.30537 3.47369C3.60913 3.47369 3.85537 3.73289 3.85537 4.05264C3.85537 4.37238 3.60913 4.63159 3.30537 4.63159H3.3C2.99624 4.63159 2.75 4.37238 2.75 4.05264C2.75 3.73289 2.99624 3.47369 3.3 3.47369H3.30537ZM5.50537 3.47369L5.56177 3.47652C5.8391 3.50617 6.05537 3.75288 6.05537 4.05264C6.05537 4.35239 5.8391 4.5991 5.56177 4.62876L5.50537 4.63159H5.5C5.19624 4.63159 4.95 4.37238 4.95 4.05264C4.95 3.73289 5.19624 3.47369 5.5 3.47369H5.50537ZM7.70537 3.47369L7.76177 3.47652C8.0391 3.50617 8.25537 3.75288 8.25537 4.05264C8.25537 4.35239 8.0391 4.5991 7.76177 4.62876L7.70537 4.63159H7.7C7.39624 4.63159 7.15 4.37238 7.15 4.05264C7.15 3.73289 7.39624 3.47369 7.7 3.47369H7.70537ZM11 6.36843C11 6.82907 10.826 7.27071 10.5166 7.59643C10.2072 7.92216 9.78761 8.10528 9.35 8.10528H6.82773L4.23887 10.8304C4.08157 10.996 3.84497 11.0455 3.63945 10.9559C3.43397 10.8663 3.3 10.6552 3.3 10.4211V8.10528H1.65C1.21239 8.10528 0.792833 7.92216 0.483398 7.59643C0.173963 7.27071 0 6.82907 0 6.36843V1.73684C0 1.2762 0.173963 0.834563 0.483398 0.508841C0.792834 0.18312 1.21239 0 1.65 0H9.35C9.78761 0 10.2072 0.18312 10.5166 0.508841C10.826 0.834563 11 1.2762 11 1.73684V6.36843Z" />
</svg>
