<svg width="11" height="11" viewBox="0 0 11 11"  xmlns="http://www.w3.org/2000/svg">
<path d="M9.9 2.16667C9.9 2.01933 9.84201 1.87806 9.73887 1.77388C9.64859 1.68269 9.5302 1.62643 9.40425 1.61383L9.35 1.61112H1.65C1.50413 1.61112 1.36428 1.66969 1.26113 1.77388C1.15799 1.87806 1.1 2.01933 1.1 2.16667V6.61114C1.1 6.75848 1.15799 6.89975 1.26113 7.00393C1.36428 7.10812 1.50413 7.16669 1.65 7.16669H3.3C3.44587 7.16669 3.58572 7.22527 3.68887 7.32946L5.5 9.15889L7.31113 7.32946L7.35142 7.29256C7.44929 7.21154 7.57235 7.16669 7.7 7.16669H9.35C9.49587 7.16669 9.63572 7.10812 9.73887 7.00393C9.84201 6.89975 9.9 6.75848 9.9 6.61114V2.16667ZM4.95 4.94446C5.25376 4.94446 5.5 5.19319 5.5 5.50002C5.5 5.80685 5.25376 6.05558 4.95 6.05558H2.75C2.44624 6.05558 2.2 5.80685 2.2 5.50002C2.2 5.19319 2.44624 4.94446 2.75 4.94446H4.95ZM8.25 2.72223C8.55376 2.72223 8.8 2.97096 8.8 3.27779C8.8 3.58462 8.55376 3.83335 8.25 3.83335H2.75C2.44624 3.83335 2.2 3.58462 2.2 3.27779C2.2 2.97096 2.44624 2.72223 2.75 2.72223H8.25ZM11 6.61114C11 7.05317 10.826 7.47697 10.5166 7.78953C10.2072 8.10209 9.78761 8.27781 9.35 8.27781H7.92773L5.88887 10.3373C5.67408 10.5542 5.32592 10.5542 5.11113 10.3373L3.07227 8.27781H1.65C1.21239 8.27781 0.792833 8.10209 0.483398 7.78953C0.173963 7.47697 0 7.05317 0 6.61114V2.16667C0 1.72464 0.173963 1.30085 0.483398 0.988283C0.792834 0.675721 1.21239 0.5 1.65 0.5H9.35C9.78761 0.5 10.2072 0.675721 10.5166 0.988283C10.826 1.30085 11 1.72464 11 2.16667V6.61114Z" />
</svg>
