<svg width="11" height="13" viewBox="0 0 11 13"  xmlns="http://www.w3.org/2000/svg">
<path d="M2.58037 5.75695C2.65987 6.05663 2.84778 6.31136 3.10796 6.46119C3.28141 6.56608 3.46932 6.61103 3.66446 6.61103C3.76564 6.61103 3.86682 6.59605 3.96077 6.56608L6.82275 5.75695C7.11184 5.67454 7.35034 5.47974 7.50211 5.21003C7.65388 4.94032 7.69002 4.62566 7.61052 4.32598L6.82998 1.35915C6.66375 0.737316 6.04944 0.370209 5.44958 0.542524L2.5876 1.35166C1.98774 1.52397 1.63361 2.16079 1.79983 2.78263L2.58037 5.74946V5.75695ZM2.85501 2.38555L5.71699 1.57642C5.71699 1.57642 5.73144 1.57642 5.7459 1.57642C5.78926 1.57642 5.8254 1.60639 5.83985 1.65134L6.62039 4.61817C6.63484 4.66312 6.59871 4.73055 6.54812 4.74553L3.68614 5.55466C3.63555 5.56965 3.57773 5.53968 3.56328 5.47974L2.78274 2.51292C2.76828 2.46047 2.79719 2.40054 2.85501 2.38555Z" />
<path d="M1.12745 7.08329C0.505905 7.08329 0 7.60773 0 8.25204V11.3313C0 11.9756 0.505905 12.5 1.12745 12.5H4.09783C4.71938 12.5 5.22528 11.9756 5.22528 11.3313V8.25204C5.22528 7.60773 4.71938 7.08329 4.09783 7.08329H1.12745ZM4.19179 11.3238C4.19179 11.3762 4.14842 11.4286 4.09061 11.4286H1.12745C1.07686 11.4286 1.02627 11.3837 1.02627 11.3238V8.24455C1.02627 8.19211 1.06963 8.13966 1.12745 8.13966H4.09783C4.14843 8.13966 4.19902 8.18461 4.19902 8.24455V11.3238H4.19179Z" />
<path d="M9.87255 7.08329H6.90217C6.28062 7.08329 5.77472 7.60773 5.77472 8.25204V11.3313C5.77472 11.9756 6.28062 12.5 6.90217 12.5H9.87255C10.4941 12.5 11 11.9756 11 11.3313V8.25204C11 7.60773 10.4941 7.08329 9.87255 7.08329ZM9.96651 11.3238C9.96651 11.3762 9.92314 11.4286 9.86533 11.4286H6.89494C6.84435 11.4286 6.79376 11.3837 6.79376 11.3238V8.24455C6.79376 8.19211 6.83712 8.13966 6.89494 8.13966H9.86533C9.91592 8.13966 9.96651 8.18461 9.96651 8.24455V11.3238Z" />
</svg>
