<svg width="11" height="11" viewBox="0 0 11 11"  xmlns="http://www.w3.org/2000/svg">
<path d="M10.8428 2.25847L8.63728 0.150291C8.5366 0.0540501 8.40013 0 8.25769 0H3.21423C2.34983 0 1.64648 0.672092 1.64648 1.49835V4.02024H0.858909C0.384362 4.02024 0 4.38764 0 4.84125V8.19099C0 8.6446 0.384362 9.012 0.858909 9.012H1.64648V9.50165C1.64648 10.3279 2.34983 11 3.21423 11H9.43249C10.2969 11 11 10.3279 11 9.50165V2.62132C11 2.48517 10.9435 2.35472 10.8428 2.25847ZM2.72012 1.49835C2.72012 1.23814 2.94176 1.02627 3.21423 1.02627H7.54623V2.31595C7.54623 2.8601 8.00766 3.30139 8.57716 3.30139H9.92636V4.02069C9.91658 4.02046 9.9068 4.02024 9.89678 4.02024H2.72012V1.49835ZM9.55489 5.21823L8.59983 7.82837H7.65646L6.7212 5.21823H7.57343L7.91008 6.33937C8.0172 6.68808 8.07661 6.9305 8.14007 7.22219H8.152C8.20354 6.94943 8.27487 6.70701 8.38963 6.34713L8.73439 5.21823H9.55489ZM5.28277 6.79412C4.47802 6.60848 4.31578 6.3282 4.31578 5.97585C4.31578 5.53638 4.65242 5.16897 5.41351 5.16897C6.1746 5.16897 6.52699 5.5553 6.56278 5.96444H5.79C5.7702 5.82419 5.69481 5.68416 5.40946 5.68416C5.22718 5.68416 5.11623 5.74847 5.11623 5.88873C5.11623 6.02898 5.21525 6.08577 5.6354 6.18406C6.47546 6.38499 6.64605 6.67667 6.64605 7.04796C6.64605 7.53669 6.24952 7.87741 5.44906 7.87741C4.69227 7.87741 4.29192 7.54034 4.23251 7.03655H5.00911C5.05683 7.26393 5.22312 7.36222 5.48079 7.36222C5.72248 7.36222 5.83342 7.27898 5.83342 7.12755C5.83342 6.95696 5.71461 6.89265 5.28277 6.79412ZM1.38308 6.54394C1.38308 6.21417 1.46826 5.90469 1.64648 5.66318C1.86312 5.36966 2.21646 5.17673 2.72012 5.1692C2.73014 5.16897 2.74016 5.16897 2.75042 5.16897C3.55087 5.16897 3.91543 5.61597 3.97102 6.06684H3.17844C3.13884 5.8812 3.02765 5.70674 2.73061 5.70674C2.72704 5.70674 2.7237 5.70674 2.72012 5.70696C2.33981 5.71312 2.2074 6.06319 2.2074 6.51749C2.2074 6.92435 2.315 7.32756 2.72012 7.33942C2.72632 7.33964 2.73229 7.33964 2.73849 7.33964C3.05939 7.33964 3.14671 7.11614 3.18226 6.96836H3.9789C3.8763 7.5116 3.46331 7.87444 2.72012 7.87741H2.71081C2.2167 7.87741 1.86359 7.70226 1.64648 7.41787C1.46993 7.18684 1.38308 6.88352 1.38308 6.54394ZM9.92636 9.50165C9.92636 9.76186 9.70496 9.97373 9.43249 9.97373H3.21423C2.94176 9.97373 2.72012 9.76186 2.72012 9.50165V9.012H9.89678C9.9068 9.012 9.91658 9.01178 9.92636 9.01155V9.50165Z" />
</svg>
