<svg width="11" height="11" viewBox="0 0 11 11"  xmlns="http://www.w3.org/2000/svg">
<path d="M3.66667 7.94444C3.66667 7.78237 3.60224 7.62698 3.48763 7.51237C3.37302 7.39776 3.21763 7.33333 3.05556 7.33333H1.83333C1.67126 7.33333 1.51586 7.39776 1.40126 7.51237C1.28665 7.62698 1.22222 7.78237 1.22222 7.94444V9.16667C1.22222 9.32874 1.28665 9.48414 1.40126 9.59874C1.51586 9.71335 1.67126 9.77778 1.83333 9.77778H3.05556C3.21763 9.77778 3.37302 9.71335 3.48763 9.59874C3.60224 9.48414 3.66667 9.32874 3.66667 9.16667V7.94444ZM9.77778 7.94444C9.77778 7.78237 9.71335 7.62698 9.59874 7.51237C9.48414 7.39776 9.32874 7.33333 9.16667 7.33333H7.94444C7.78237 7.33333 7.62698 7.39776 7.51237 7.51237C7.39776 7.62698 7.33333 7.78237 7.33333 7.94444V9.16667C7.33333 9.32874 7.39776 9.48414 7.51237 9.59874C7.62698 9.71335 7.78237 9.77778 7.94444 9.77778H9.16667C9.32874 9.77778 9.48414 9.71335 9.59874 9.59874C9.71335 9.48414 9.77778 9.32874 9.77778 9.16667V7.94444ZM3.66667 1.83333C3.66667 1.67126 3.60224 1.51586 3.48763 1.40126C3.37302 1.28665 3.21763 1.22222 3.05556 1.22222H1.83333C1.67126 1.22222 1.51586 1.28665 1.40126 1.40126C1.28665 1.51586 1.22222 1.67126 1.22222 1.83333V3.05556C1.22222 3.21763 1.28665 3.37302 1.40126 3.48763C1.51586 3.60224 1.67126 3.66667 1.83333 3.66667H3.05556C3.21763 3.66667 3.37302 3.60224 3.48763 3.48763C3.60224 3.37302 3.66667 3.21763 3.66667 3.05556V1.83333ZM9.77778 1.83333C9.77778 1.67126 9.71335 1.51586 9.59874 1.40126C9.48414 1.28665 9.32874 1.22222 9.16667 1.22222H7.94444C7.78237 1.22222 7.62698 1.28665 7.51237 1.40126C7.39776 1.51586 7.33333 1.67126 7.33333 1.83333V3.05556C7.33333 3.21763 7.39776 3.37302 7.51237 3.48763C7.62698 3.60224 7.78237 3.66667 7.94444 3.66667H9.16667C9.32874 3.66667 9.48414 3.60224 9.59874 3.48763C9.71335 3.37302 9.77778 3.21763 9.77778 3.05556V1.83333ZM4.88889 9.16667C4.88889 9.6529 4.6956 10.1191 4.35178 10.4629C4.00796 10.8067 3.54179 11 3.05556 11H1.83333C1.3471 11 0.880926 10.8067 0.537109 10.4629C0.193293 10.1191 0 9.6529 0 9.16667V7.94444C0 7.45821 0.193293 6.99204 0.537109 6.64822C0.880926 6.3044 1.3471 6.11111 1.83333 6.11111H3.05556C3.54179 6.11111 4.00796 6.3044 4.35178 6.64822C4.6956 6.99204 4.88889 7.45821 4.88889 7.94444V9.16667ZM11 9.16667C11 9.6529 10.8067 10.1191 10.4629 10.4629C10.1191 10.8067 9.6529 11 9.16667 11H7.94444C7.45821 11 6.99204 10.8067 6.64822 10.4629C6.3044 10.1191 6.11111 9.6529 6.11111 9.16667V7.94444C6.11111 7.45821 6.3044 6.99204 6.64822 6.64822C6.99204 6.3044 7.45821 6.11111 7.94444 6.11111H9.16667C9.6529 6.11111 10.1191 6.3044 10.4629 6.64822C10.8067 6.99204 11 7.45821 11 7.94444V9.16667ZM4.88889 3.05556C4.88889 3.54179 4.6956 4.00796 4.35178 4.35178C4.00796 4.6956 3.54179 4.88889 3.05556 4.88889H1.83333C1.3471 4.88889 0.880926 4.6956 0.537109 4.35178C0.193293 4.00796 0 3.54179 0 3.05556V1.83333C0 1.3471 0.193293 0.880926 0.537109 0.537109C0.880926 0.193293 1.3471 0 1.83333 0H3.05556C3.54179 0 4.00796 0.193293 4.35178 0.537109C4.6956 0.880926 4.88889 1.3471 4.88889 1.83333V3.05556ZM11 3.05556C11 3.54179 10.8067 4.00796 10.4629 4.35178C10.1191 4.6956 9.6529 4.88889 9.16667 4.88889H7.94444C7.45821 4.88889 6.99204 4.6956 6.64822 4.35178C6.3044 4.00796 6.11111 3.54179 6.11111 3.05556V1.83333C6.11111 1.3471 6.3044 0.880926 6.64822 0.537109C6.99204 0.193293 7.45821 0 7.94444 0H9.16667C9.6529 0 10.1191 0.193293 10.4629 0.537109C10.8067 0.880926 11 1.3471 11 1.83333V3.05556Z" />
</svg>
