<svg width="11" height="11" viewBox="0 0 11 11"  xmlns="http://www.w3.org/2000/svg">
<path d="M9.9 1.92153C9.89995 1.70314 9.81301 1.49371 9.6583 1.33928C9.50356 1.18486 9.29381 1.09802 9.075 1.09802C8.88345 1.09802 8.69871 1.16443 8.55186 1.28459L8.4917 1.33928L8.05557 1.77463L9.22217 2.93912L9.6583 2.50431C9.81305 2.34984 9.9 2.13999 9.9 1.92153ZM1.1 8.71765V9.90198H2.24727L8.44443 3.71599L7.2773 2.55096L1.1 8.71765ZM11 1.92153C11 2.43116 10.7976 2.92026 10.4366 3.28065L2.86387 10.8392C2.76072 10.9421 2.62087 11 2.475 11H0.55C0.246243 11 0 10.7542 0 10.451V8.48979C6.74683e-05 8.34427 0.0580479 8.20452 0.161133 8.10162L7.71343 0.562948L7.78271 0.497002C8.13587 0.177799 8.59632 0 9.075 0C9.58559 0 10.0755 0.202557 10.4366 0.562948C10.7975 0.923278 11 1.41201 11 1.92153Z" />
</svg>
