<svg width="11" height="11" viewBox="0 0 11 11"  xmlns="http://www.w3.org/2000/svg">
<path d="M4.70976 5.16463H1.95767C1.70748 5.16463 1.5 4.95732 1.5 4.70732V1.95732C1.5 1.70732 1.70748 1.5 1.95767 1.5H4.70976C4.95995 1.5 5.16743 1.70732 5.16743 1.95732V4.70732C5.16743 4.95732 4.95995 5.16463 4.70976 5.16463ZM2.41533 4.25H4.2521V2.41463H2.41533V4.25Z" />
<path d="M9.04233 5.16463H6.29634C6.04615 5.16463 5.83867 4.95732 5.83867 4.70732V1.95732C5.83867 1.70732 6.04615 1.5 6.29634 1.5H9.04233C9.29252 1.5 9.5 1.70732 9.5 1.95732V4.70732C9.5 4.95732 9.29252 5.16463 9.04233 5.16463ZM6.754 4.25H8.58467V2.41463H6.754V4.25Z" />
<path d="M9.04233 9.5H6.29634C6.04615 9.5 5.83867 9.29268 5.83867 9.04268V6.29268C5.83867 6.04268 6.04615 5.83536 6.29634 5.83536H9.04233C9.29252 5.83536 9.5 6.04268 9.5 6.29268V9.04268C9.5 9.29268 9.29252 9.5 9.04233 9.5ZM6.754 8.58537H8.58467V6.75H6.754V8.58537Z" />
<path d="M4.70976 9.5H1.95767C1.70748 9.5 1.5 9.29268 1.5 9.04268V6.29268C1.5 6.04268 1.70748 5.83536 1.95767 5.83536H4.70976C4.95995 5.83536 5.16743 6.04268 5.16743 6.29268V9.04268C5.16743 9.29268 4.95995 9.5 4.70976 9.5ZM2.41533 8.58537H4.2521V6.75H2.41533V8.58537Z" />
</svg>
