<svg width="11" height="11" viewBox="0 0 11 11"  xmlns="http://www.w3.org/2000/svg">
<path d="M9.77778 6.97526L8.98763 6.18511C8.87303 6.07056 8.71759 6.00608 8.55556 6.00608C8.41376 6.00608 8.27698 6.05546 8.16824 6.14453L8.12348 6.18511L7.58637 6.72222L8.37652 7.51237L8.41829 7.55892C8.61406 7.79895 8.60026 8.15278 8.37652 8.37652C8.15278 8.60026 7.79895 8.61406 7.55892 8.41829L7.51237 8.37652L4.70985 5.574C4.59525 5.45945 4.43981 5.39497 4.27778 5.39497C4.13598 5.39497 3.9992 5.44434 3.89046 5.53342L3.8457 5.574L1.22222 8.19748V9.16667L1.22521 9.22694C1.23907 9.36689 1.30095 9.49843 1.40126 9.59874C1.51586 9.71335 1.67126 9.77778 1.83333 9.77778H9.16667C9.32874 9.77778 9.48414 9.71335 9.59874 9.59874C9.71335 9.48414 9.77778 9.32874 9.77778 9.16667V6.97526ZM6.72819 2.44444C7.0657 2.44444 7.3393 2.71805 7.3393 3.05556C7.3393 3.39306 7.0657 3.66667 6.72819 3.66667H6.72222C6.38471 3.66667 6.11111 3.39306 6.11111 3.05556C6.11111 2.71805 6.38471 2.44444 6.72222 2.44444H6.72819ZM9.77778 1.83333C9.77778 1.67126 9.71335 1.51586 9.59874 1.40126C9.49843 1.30095 9.36689 1.23907 9.22694 1.22521L9.16667 1.22222H1.83333C1.67126 1.22222 1.51586 1.28665 1.40126 1.40126C1.28665 1.51586 1.22222 1.67126 1.22222 1.83333V6.46918L2.98155 4.70985L3.11583 4.58811C3.44207 4.32079 3.85232 4.17274 4.27778 4.17274C4.76391 4.17274 5.2302 4.36616 5.574 4.70985L6.72222 5.85807L7.25933 5.32096L7.39361 5.19922C7.71985 4.9319 8.13009 4.78385 8.55556 4.78385C9.00826 4.78385 9.44239 4.95294 9.77778 5.25353V1.83333ZM11 9.16667C11 9.6529 10.8067 10.1191 10.4629 10.4629C10.1191 10.8067 9.6529 11 9.16667 11H1.83333C1.3471 11 0.880926 10.8067 0.537109 10.4629C0.236322 10.1621 0.0506658 9.7677 0.00895182 9.34809L0 9.16667V1.83333C0 1.3471 0.193293 0.880926 0.537109 0.537109C0.880926 0.193293 1.3471 0 1.83333 0H9.16667L9.34809 0.00895182C9.7677 0.0506658 10.1621 0.236322 10.4629 0.537109C10.8067 0.880926 11 1.3471 11 1.83333V9.16667Z" />
</svg>
