<svg width="11" height="11" viewBox="0 0 11 11"  xmlns="http://www.w3.org/2000/svg">
<path d="M10.9931 3.93697C10.9931 3.52491 10.7937 3.14282 10.4706 2.97799L5.98125 0.618C5.67188 0.460667 5.32125 0.460667 5.01188 0.618L0.515625 2.97799C0.199375 3.14282 0 3.51742 0 3.93697C0 4.35653 0.199375 4.72364 0.515625 4.88846L1.60875 5.45786V8.20744C1.60875 8.43969 1.71875 8.64947 1.90437 8.73937L5.0325 10.3876C5.17688 10.455 5.34188 10.5 5.5 10.5C5.65812 10.5 5.83 10.4625 5.98125 10.3801L8.87562 8.85924C8.87562 8.85924 8.90312 8.85175 8.91687 8.84426L9.09562 8.74686C9.28125 8.64947 9.39125 8.43969 9.39125 8.20744V5.45786L10.0031 5.1357V8.10255C10.0031 8.19994 10.0787 8.27486 10.1681 8.27486C10.1888 8.27486 10.2163 8.26737 10.23 8.25988L10.7387 7.99766C10.8969 7.91525 11 7.74293 11 7.54814V3.95196L10.9931 3.93697ZM8.40812 7.81785L5.59625 9.29378C5.53438 9.32375 5.45187 9.32375 5.41062 9.30127L2.585 7.81785V5.96732L5.01875 7.24096C5.17 7.31588 5.335 7.36084 5.49312 7.36084C5.65125 7.36084 5.82312 7.32338 5.97437 7.24096L8.40125 5.96732V7.81785H8.40812ZM9.39125 4.17672L5.59625 6.1696C5.53438 6.19957 5.4725 6.19957 5.4175 6.1696L1.61562 4.17672L1.14812 3.93697L1.67063 3.65977L2.24125 3.36009L5.41062 1.69685C5.46562 1.66689 5.5275 1.66689 5.58938 1.69685L8.75875 3.36758L9.3225 3.66726L9.845 3.94446L9.38437 4.18421L9.39125 4.17672Z" />
</svg>
