<svg width="11" height="11" viewBox="0 0 11 11"  xmlns="http://www.w3.org/2000/svg">
<path d="M9.09087 8.84983H1.90878C1.65515 8.84983 1.44482 8.63951 1.44482 8.38587V6.30734C1.44482 6.05371 1.65515 5.84338 1.90878 5.84338H9.09087C9.3445 5.84338 9.55482 6.05371 9.55482 6.30734V8.38587C9.55482 8.63951 9.3445 8.84983 9.09087 8.84983ZM2.37274 7.92192H8.62691V6.7713H2.37274V7.92192Z" />
<path d="M9.09087 5.15672H1.90878C1.65515 5.15672 1.44482 4.94639 1.44482 4.69276V2.61423C1.44482 2.3606 1.65515 2.15027 1.90878 2.15027H9.09087C9.3445 2.15027 9.55482 2.3606 9.55482 2.61423V4.69276C9.55482 4.94639 9.3445 5.15672 9.09087 5.15672ZM2.37274 4.2288H8.62691V3.07819H2.37274V4.2288Z" />
</svg>
