<svg width="11" height="11" viewBox="0 0 11 11"  xmlns="http://www.w3.org/2000/svg">
<path d="M4.56113 2.88498C4.77592 2.66802 5.12408 2.66802 5.33887 2.88498C5.55366 3.10194 5.55366 3.45362 5.33887 3.67057L4.07773 4.94444H10.45C10.7538 4.94444 11 5.19318 11 5.5C11 5.80683 10.7538 6.05556 10.45 6.05556H4.07773L5.33887 7.32943L5.37646 7.37175C5.55266 7.58995 5.54023 7.91162 5.33887 8.11502C5.1375 8.31842 4.81905 8.33097 4.60303 8.153L4.56113 8.11502L2.36113 5.8928C2.14634 5.67584 2.14634 5.32416 2.36113 5.1072L4.56113 2.88498ZM7.15 3.27778V2.72222C7.15 2.42754 7.03402 2.14501 6.82773 1.93663C6.62144 1.72826 6.34174 1.61111 6.05 1.61111H2.2C1.90826 1.61111 1.62856 1.72826 1.42227 1.93663C1.21598 2.14501 1.1 2.42754 1.1 2.72222V8.27778L1.10537 8.38737C1.13033 8.64181 1.24171 8.88099 1.42227 9.06337C1.62856 9.27174 1.90826 9.38889 2.2 9.38889H6.05L6.1585 9.38346C6.4104 9.35825 6.64718 9.24575 6.82773 9.06337C7.03402 8.85499 7.15 8.57246 7.15 8.27778V7.72222C7.15 7.4154 7.39624 7.16667 7.7 7.16667C8.00376 7.16667 8.25 7.4154 8.25 7.72222V8.27778C8.25 8.86715 8.01805 9.43221 7.60547 9.84896C7.21866 10.2397 6.70281 10.4701 6.15903 10.4973L6.05 10.5H2.2C1.61652 10.5 1.05711 10.2657 0.644531 9.84896C0.257724 9.45824 0.0296475 8.93719 0.00268555 8.38791L0 8.27778V2.72222C0 2.13285 0.231951 1.56779 0.644531 1.15104C1.05711 0.734294 1.61652 0.5 2.2 0.5H6.05C6.63348 0.5 7.19289 0.734294 7.60547 1.15104C8.01805 1.56779 8.25 2.13285 8.25 2.72222V3.27778C8.25 3.5846 8.00376 3.83333 7.7 3.83333C7.39624 3.83333 7.15 3.5846 7.15 3.27778Z" />
</svg>
