<svg width="11" height="11" viewBox="0 0 11 11"  xmlns="http://www.w3.org/2000/svg">
<path d="M10.8428 2.25866L8.63728 0.150288C8.5366 0.054049 8.40013 0 8.25769 0H3.21423C2.34983 0 1.64648 0.672306 1.64648 1.49855V4.02015H0.858909C0.384362 4.02015 0 4.38778 0 4.84115V8.19105C0 8.64442 0.384362 9.01205 0.858909 9.01205H1.64648V9.50145C1.64648 10.3277 2.34983 11 3.21423 11H9.43249C10.2969 11 11 10.3277 11 9.50145V2.62149C11 2.48534 10.9435 2.35489 10.8428 2.25866ZM2.72012 1.49855C2.72012 1.23811 2.94176 1.02625 3.21423 1.02625H7.54623V2.31613C7.54623 2.86026 8.00766 3.30155 8.57716 3.30155H9.92636V4.02061C9.91658 4.02061 9.9068 4.02015 9.89678 4.02015H2.72012V1.49855ZM9.24568 6.29409V6.86217H8.06874V7.82821H7.28403V5.21812H9.32489V5.78644H8.06874V6.29409H9.24568ZM6.84026 6.49478C6.84026 7.24873 6.35282 7.82821 5.45717 7.82821H4.29598V5.21812H5.4691C6.33684 5.21812 6.84026 5.7447 6.84026 6.49478ZM1.62095 7.82821V5.21812H2.88498C3.50339 5.21812 3.91543 5.54766 3.91543 6.05531C3.91543 6.64255 3.44399 6.91143 2.86923 6.91143H2.40948V7.82821H1.62095ZM9.92636 9.50145C9.92636 9.76189 9.70496 9.97375 9.43249 9.97375H3.21423C2.94176 9.97375 2.72012 9.76189 2.72012 9.50145V9.01205H9.89678C9.9068 9.01205 9.91658 9.01182 9.92636 9.01159V9.50145Z" />
<path d="M5.09647 5.77113V7.27493H5.40567C5.83775 7.27493 6.01598 6.98324 6.01598 6.49452C6.01598 6.06259 5.84944 5.7709 5.41355 5.7709L5.09647 5.77113Z" />
<path d="M2.73853 6.37371C2.96447 6.37371 3.12289 6.28271 3.12289 6.06674C3.12289 5.85078 2.96041 5.75613 2.73853 5.75613H2.40952V6.37371H2.73853Z" />
</svg>
