<svg width="11" height="11" viewBox="0 0 11 11"  xmlns="http://www.w3.org/2000/svg">
<path d="M8.88645 6.4475L7.94918 5.19164C7.83202 5.02905 7.76507 4.83843 7.76507 4.6366V1.77727C7.76507 1.56422 7.8376 1.35678 7.97707 1.19419C8.03844 1.12691 8.07191 1.03721 8.07191 0.941896V0.40367C8.07191 0.179409 7.89339 0 7.67023 0H3.31862C3.09546 0 2.91693 0.179409 2.91693 0.40367V0.941896C2.91693 1.03721 2.9504 1.12691 3.01177 1.19419C3.15125 1.35678 3.22377 1.56422 3.22377 1.77727V4.6366C3.22377 4.83843 3.15682 5.02905 3.03967 5.19164L2.1024 6.4475C1.85134 6.77829 2.09124 7.25484 2.50408 7.25484H3.22377H5.00347V10.501C5.00347 10.7757 5.22663 11 5.5 11C5.77337 11 5.99653 10.7757 5.99653 10.501V7.25484H7.77623H8.49592C8.90876 7.25484 9.14866 6.77829 8.8976 6.4475H8.88645ZM6.92822 6.41386H4.05504H3.16798L3.70357 5.69062C3.9323 5.38787 4.05504 5.01223 4.05504 4.63099V1.77727C4.05504 1.44088 3.9602 1.1157 3.78725 0.835372H7.20159C7.02864 1.11009 6.9338 1.43527 6.9338 1.77727V4.6366C6.9338 5.01784 7.05654 5.39348 7.28528 5.69623L7.82086 6.41386H6.9338H6.92822Z" />
</svg>
