<svg width="11" height="11" viewBox="0 0 11 11"  xmlns="http://www.w3.org/2000/svg">
<path d="M8.89202 6.4475L7.95475 5.19164C7.8376 5.02905 7.77065 4.83843 7.77065 4.6366V1.77727C7.77065 1.56422 7.84317 1.35678 7.98265 1.19419C8.03844 1.12691 8.07749 1.03721 8.07749 0.941896V0.40367C8.07749 0.179409 7.89896 0 7.6758 0H3.3242C3.10104 0 2.92251 0.179409 2.92251 0.40367V0.941896C2.92251 1.03721 2.95598 1.12691 3.01735 1.19419C3.15683 1.35678 3.22935 1.56422 3.22935 1.77727V4.6366C3.22935 4.83843 3.1624 5.02905 3.04525 5.19164L2.1024 6.4475C1.85134 6.77829 2.09124 7.25484 2.50408 7.25484H3.22377H5.00347V10.501C5.00347 10.7757 5.22663 11 5.5 11C5.77337 11 5.99653 10.7757 5.99653 10.501V7.25484H7.77623H8.49592C8.90876 7.25484 9.14866 6.77829 8.8976 6.4475H8.89202Z" />
</svg>
