<svg width="11" height="11" viewBox="0 0 11 11"  xmlns="http://www.w3.org/2000/svg">
<path d="M5.3853 7.52632C5.15564 7.52632 4.96197 7.4443 4.80427 7.28026C4.64619 7.11623 4.57672 6.92325 4.59586 6.70132C4.62456 6.29605 4.72025 5.94386 4.88293 5.64474C5.0456 5.34561 5.30396 5.03684 5.65801 4.71842C6.05034 4.37105 6.34928 4.06942 6.55482 3.81353C6.76074 3.55802 6.8637 3.26623 6.8637 2.93816C6.8637 2.54254 6.73223 2.21447 6.46927 1.95395C6.20593 1.69342 5.83982 1.56316 5.37094 1.56316C5.06474 1.56316 4.80408 1.62819 4.58897 1.75826C4.37347 1.88872 4.19875 2.05044 4.06478 2.24342C3.93081 2.4364 3.76584 2.56667 3.56987 2.63421C3.37352 2.70175 3.18443 2.69693 3.00262 2.61974C2.78254 2.52325 2.63192 2.36403 2.55078 2.14211C2.46925 1.92018 2.4859 1.71272 2.60073 1.51974C2.87823 1.08553 3.25142 0.723684 3.7203 0.434211C4.18918 0.144737 4.73939 0 5.37094 0C6.37569 0 7.14848 0.282333 7.68932 0.847C8.22977 1.41128 8.5 2.08904 8.5 2.88026C8.5 3.36272 8.39723 3.77532 8.19169 4.11805C7.98576 4.4604 7.66271 4.84868 7.22254 5.28289C6.8972 5.59167 6.66754 5.84254 6.53357 6.03553C6.39961 6.22851 6.3087 6.45044 6.26086 6.70132C6.22258 6.94254 6.12211 7.14035 5.95944 7.29474C5.79676 7.44912 5.60538 7.52632 5.3853 7.52632ZM5.37094 11C5.05517 11 4.78494 10.8867 4.56026 10.6602C4.3352 10.4332 4.22267 10.1605 4.22267 9.8421C4.22267 9.52368 4.3352 9.251 4.56026 9.02405C4.78494 8.79749 5.05517 8.68421 5.37094 8.68421C5.68672 8.68421 5.95714 8.79749 6.1822 9.02405C6.40688 9.251 6.51922 9.52368 6.51922 9.8421C6.51922 10.1605 6.40688 10.4332 6.1822 10.6602C5.95714 10.8867 5.68672 11 5.37094 11Z" />
</svg>
