<svg width="11" height="11" viewBox="0 0 11 11"  xmlns="http://www.w3.org/2000/svg">
<path d="M10.6219 4.93153C10.3744 3.89225 9.45312 3.125 8.35312 3.125C7.25312 3.125 6.4075 3.8225 6.11188 4.79203C5.91938 4.73623 5.71313 4.70833 5.5 4.70833C5.28687 4.70833 5.08063 4.73623 4.88812 4.79203C4.58563 3.8225 3.69875 3.125 2.64687 3.125C1.595 3.125 0.61875 3.89225 0.37125 4.93851C0.130625 5.09894 0 5.29424 0 5.50349C0 5.71274 0.130625 5.90106 0.37125 6.06149C0.61875 7.10077 1.54687 7.875 2.64687 7.875C2.86 7.875 3.06625 7.8471 3.25875 7.7913C3.56812 7.7076 3.85687 7.56112 4.10437 7.36582C4.5925 6.96825 4.91562 6.38932 4.9775 5.73366C5.1425 5.67089 5.31437 5.63601 5.5 5.63601C5.68563 5.63601 5.8575 5.67089 6.0225 5.73366C6.08438 6.38932 6.4075 6.97522 6.89562 7.36582C7.13625 7.56112 7.425 7.7076 7.74125 7.7913C7.93375 7.8471 8.14 7.875 8.35312 7.875C9.45312 7.875 10.3744 7.10775 10.6219 6.06847C10.8625 5.90106 11 5.71274 11 5.50349C11 5.29424 10.8625 5.09894 10.6219 4.93153ZM3.16938 6.84967C3.00437 6.91245 2.8325 6.94732 2.64687 6.94732C2.24812 6.94732 1.88375 6.77992 1.62937 6.50092C1.43 6.30562 1.29937 6.04754 1.24437 5.76156C1.23062 5.67786 1.22375 5.59416 1.22375 5.50349C1.22375 5.41281 1.23062 5.32214 1.24437 5.23844C1.29937 4.95943 1.43 4.70136 1.62937 4.49908C1.88375 4.22008 2.24812 4.05268 2.64687 4.05268C3.08687 4.05268 3.48563 4.25496 3.75375 4.58278C3.89812 4.76413 4.00125 4.98036 4.04938 5.21054C4.05625 5.27331 4.07 5.32214 4.07 5.37794C4.07688 5.41979 4.07687 5.46164 4.07687 5.50349C4.07687 5.54534 4.07688 5.58021 4.07 5.62206C4.04938 5.92199 3.9325 6.20099 3.75375 6.41722C3.59562 6.60554 3.39625 6.75899 3.16938 6.84967ZM8.35312 6.94732C8.1675 6.94732 7.99563 6.91245 7.83063 6.84967C7.60375 6.75899 7.40438 6.61252 7.25313 6.42419H7.24625C7.0675 6.20099 6.95062 5.92199 6.93 5.62206C6.92312 5.58021 6.92312 5.54534 6.92312 5.50349C6.92312 5.46164 6.92312 5.41979 6.93 5.37794C6.93 5.32214 6.94375 5.27331 6.95062 5.21751C6.99875 4.98036 7.10187 4.76413 7.24625 4.58278C7.25313 4.58278 7.25313 4.57581 7.25313 4.57581C7.51438 4.25496 7.91312 4.05268 8.35312 4.05268C8.75187 4.05268 9.11625 4.22008 9.37063 4.49908C9.57 4.70136 9.70062 4.95943 9.75562 5.23844C9.76937 5.32214 9.77625 5.41281 9.77625 5.50349C9.77625 5.59416 9.76937 5.67786 9.75562 5.76156C9.70062 6.04754 9.57 6.30562 9.37063 6.50092C9.11625 6.77992 8.75187 6.94732 8.35312 6.94732Z" />
</svg>
