<svg width="11" height="11" viewBox="0 0 11 11"  xmlns="http://www.w3.org/2000/svg">
<path d="M7.70009 4.40005C7.70009 3.52483 7.35216 2.6857 6.73328 2.06682C6.15313 1.48667 5.37945 1.14482 4.56387 1.10431L4.40005 1.10001C3.52483 1.10001 2.6857 1.44794 2.06682 2.06682C1.44794 2.6857 1.10001 3.52483 1.10001 4.40005L1.10377 4.56226C1.12237 4.9402 1.20627 5.31247 1.35138 5.66281C1.51723 6.06319 1.76038 6.42685 2.06682 6.73328C2.37326 7.03972 2.73691 7.28288 3.13729 7.44872C3.53766 7.61455 3.9667 7.70009 4.40005 7.70009L4.56226 7.69633C4.9402 7.67773 5.31247 7.59383 5.66281 7.44872C6.06319 7.28288 6.42684 7.03972 6.73328 6.73328C7.03972 6.42684 7.28288 6.06319 7.44872 5.66281C7.61455 5.26244 7.70009 4.83341 7.70009 4.40005ZM8.8001 4.40005C8.8001 4.97787 8.68607 5.55007 8.46494 6.08391C8.31436 6.44742 8.1149 6.78738 7.87465 7.09691L10.839 10.0613L10.8766 10.1031C11.0528 10.3192 11.0404 10.6376 10.839 10.839C10.6376 11.0404 10.3192 11.0528 10.1031 10.8766L10.0613 10.839L7.09691 7.87465C6.78738 8.1149 6.44742 8.31436 6.08391 8.46494C5.61683 8.65841 5.12038 8.76991 4.61651 8.79473L4.40005 8.8001C3.82223 8.8001 3.25003 8.68607 2.71619 8.46494C2.1824 8.24382 1.6971 7.92012 1.28854 7.51156C0.879985 7.10301 0.556283 6.61771 0.33516 6.08391C0.141691 5.61683 0.0301887 5.12038 0.00537116 4.61651L0 4.40005C1.73892e-08 3.23309 0.463371 2.11371 1.28854 1.28854C2.11371 0.463371 3.23309 0 4.40005 0L4.61812 0.00537116C5.70569 0.0592957 6.73794 0.514916 7.51156 1.28854C8.33673 2.11371 8.8001 3.23309 8.8001 4.40005Z" />
</svg>
