<svg width="11" height="11" viewBox="0 0 11 11"  xmlns="http://www.w3.org/2000/svg">
<path d="M2.44146 7.88417C2.42759 7.74423 2.36572 7.61268 2.26541 7.51237C2.1508 7.39776 1.99541 7.33333 1.83333 7.33333C1.67126 7.33333 1.51586 7.39776 1.40126 7.51237C1.28665 7.62698 1.22222 7.78237 1.22222 7.94444L1.22521 8.00472C1.23907 8.14466 1.30095 8.27621 1.40126 8.37652C1.51586 8.49113 1.67126 8.55556 1.83333 8.55556C1.99541 8.55556 2.1508 8.49113 2.26541 8.37652C2.38001 8.26191 2.44444 8.10652 2.44444 7.94444L2.44146 7.88417ZM6.11111 3.05556C6.11111 2.89348 6.04668 2.73809 5.93207 2.62348C5.83176 2.52317 5.70022 2.46129 5.56028 2.44743L5.5 2.44444C5.33792 2.44444 5.18253 2.50888 5.06793 2.62348C4.95332 2.73809 4.88889 2.89348 4.88889 3.05556C4.88889 3.21763 4.95332 3.37302 5.06793 3.48763C5.18253 3.60224 5.33792 3.66667 5.5 3.66667C5.66208 3.66667 5.81747 3.60224 5.93207 3.48763C6.04668 3.37302 6.11111 3.21763 6.11111 3.05556ZM9.77778 7.94444C9.77778 7.78237 9.71335 7.62698 9.59874 7.51237C9.48414 7.39776 9.32874 7.33333 9.16667 7.33333C9.00459 7.33333 8.8492 7.39776 8.73459 7.51237C8.61999 7.62698 8.55556 7.78237 8.55556 7.94444L8.55854 8.00472C8.57241 8.14466 8.63428 8.27621 8.73459 8.37652C8.8492 8.49113 9.00459 8.55556 9.16667 8.55556C9.32874 8.55556 9.48414 8.49113 9.59874 8.37652C9.71335 8.26191 9.77778 8.10652 9.77778 7.94444ZM3.65771 8.12587C3.616 8.54548 3.43035 8.93988 3.12956 9.24067C2.93457 9.43565 2.69952 9.58003 2.44444 9.67036V10.3889C2.44444 10.7264 2.17084 11 1.83333 11C1.49583 11 1.22222 10.7264 1.22222 10.3889V9.67036C0.96715 9.58003 0.732095 9.43565 0.537109 9.24067C0.236322 8.93988 0.0506658 8.54548 0.00895182 8.12587L0 7.94444C0 7.45821 0.193293 6.99204 0.537109 6.64822C0.732143 6.45319 0.967078 6.30825 1.22222 6.21794V0.611111C1.22222 0.273604 1.49583 0 1.83333 0C2.17084 0 2.44444 0.273604 2.44444 0.611111V6.21794C2.69959 6.30825 2.93452 6.45319 3.12956 6.64822C3.47337 6.99204 3.66667 7.45821 3.66667 7.94444L3.65771 8.12587ZM11 7.94444C11 8.43067 10.8067 8.89685 10.4629 9.24067C10.2679 9.43565 10.0328 9.58003 9.77778 9.67036V10.3889C9.77778 10.7264 9.50417 11 9.16667 11C8.82916 11 8.55556 10.7264 8.55556 10.3889V9.67036C8.30048 9.58003 8.06543 9.43565 7.87044 9.24067C7.56965 8.93988 7.384 8.54548 7.34229 8.12587L7.33333 7.94444C7.33333 7.45821 7.52663 6.99204 7.87044 6.64822C8.06548 6.45319 8.30041 6.30825 8.55556 6.21794V0.611111C8.55556 0.273604 8.82916 0 9.16667 0C9.50417 0 9.77778 0.273604 9.77778 0.611111V6.21794C10.0329 6.30825 10.2679 6.45319 10.4629 6.64822C10.8067 6.99204 11 7.45821 11 7.94444ZM7.33333 3.05556C7.33333 3.54179 7.14004 4.00796 6.79622 4.35178C6.60124 4.54676 6.36618 4.69115 6.11111 4.78147V10.3889C6.11111 10.7264 5.83751 11 5.5 11C5.16249 11 4.88889 10.7264 4.88889 10.3889V4.78147C4.63382 4.69115 4.39876 4.54676 4.20378 4.35178C3.85996 4.00796 3.66667 3.54179 3.66667 3.05556C3.66667 2.56932 3.85996 2.10315 4.20378 1.75933C4.39881 1.5643 4.63374 1.41936 4.88889 1.32905V0.611111C4.88889 0.273604 5.16249 0 5.5 0C5.83751 0 6.11111 0.273604 6.11111 0.611111V1.32905C6.36626 1.41936 6.60119 1.5643 6.79622 1.75933C7.14004 2.10315 7.33333 2.56932 7.33333 3.05556Z" />
</svg>
