<svg width="11" height="11" viewBox="0 0 11 11"  xmlns="http://www.w3.org/2000/svg">
<path d="M5.5 5.48104C5.64167 5.48104 5.7605 5.43249 5.8565 5.3354C5.95217 5.23864 6 5.11863 6 4.97535V3.45828C6 3.315 5.95217 3.19482 5.8565 3.09772C5.7605 3.00097 5.64167 2.95259 5.5 2.95259C5.35833 2.95259 5.23967 3.00097 5.144 3.09772C5.048 3.19482 5 3.315 5 3.45828V4.97535C5 5.11863 5.048 5.23864 5.144 5.3354C5.23967 5.43249 5.35833 5.48104 5.5 5.48104ZM5.5 7.50379C5.64167 7.50379 5.7605 7.45525 5.8565 7.35815C5.95217 7.2614 6 7.14138 6 6.9981C6 6.85483 5.95217 6.73464 5.8565 6.63755C5.7605 6.54079 5.64167 6.49242 5.5 6.49242C5.35833 6.49242 5.23967 6.54079 5.144 6.63755C5.048 6.73464 5 6.85483 5 6.9981C5 7.14138 5.048 7.2614 5.144 7.35815C5.23967 7.45525 5.35833 7.50379 5.5 7.50379ZM5.5 10.5H5.375C5.33333 10.5 5.29583 10.4916 5.2625 10.4747C4.17083 10.1292 3.27083 9.44429 2.5625 8.4201C1.85417 7.39625 1.5 6.26486 1.5 5.02592V2.63654C1.5 2.42583 1.5605 2.2362 1.6815 2.06764C1.80217 1.89907 1.95833 1.77686 2.15 1.70101L5.15 0.563211C5.26667 0.52107 5.38333 0.5 5.5 0.5C5.61667 0.5 5.73333 0.52107 5.85 0.563211L8.85 1.70101C9.04167 1.77686 9.198 1.89907 9.319 2.06764C9.43967 2.2362 9.5 2.42583 9.5 2.63654V5.02592C9.5 6.26486 9.14583 7.39625 8.4375 8.4201C7.72917 9.44429 6.82917 10.1292 5.7375 10.4747C5.69583 10.4916 5.61667 10.5 5.5 10.5ZM5.5 9.47598C6.36667 9.19785 7.08333 8.64159 7.65 7.80721C8.21667 6.97282 8.5 6.04572 8.5 5.02592V2.63654L5.5 1.49874L2.5 2.63654V5.02592C2.5 6.04572 2.78333 6.97282 3.35 7.80721C3.91667 8.64159 4.63333 9.19785 5.5 9.47598Z" />
</svg>
