<svg width="11" height="11" viewBox="0 0 11 11"  xmlns="http://www.w3.org/2000/svg">
<path d="M9.65938 1H1.5125C0.680625 1 0 1.68433 0 2.52074V8.47926C0 9.31567 0.680625 10 1.5125 10H9.65938C10.4019 10 11 9.3917 11 8.65207V2.34793C11 1.60138 10.395 1 9.65938 1ZM1.045 8.47926V2.52074C1.045 2.26498 1.25125 2.05069 1.5125 2.05069H3.34812C3.3275 2.14747 3.31375 2.25115 3.31375 2.35484V8.65207C3.31375 8.75576 3.3275 8.85253 3.34812 8.95622H1.5125C1.25813 8.95622 1.045 8.74885 1.045 8.48618V8.47926ZM4.65438 8.94931C4.48938 8.94931 4.35187 8.81106 4.35187 8.64516V2.34793C4.35187 2.18203 4.48938 2.04378 4.65438 2.04378H9.4875C9.74187 2.04378 9.955 2.25115 9.955 2.51382V8.47235C9.955 8.72811 9.74187 8.9424 9.4875 8.9424H4.65438V8.94931Z" />
</svg>
