<svg width="11" height="11" viewBox="0 0 11 11"  xmlns="http://www.w3.org/2000/svg">
<path d="M4.88889 9C4.71574 9 4.5707 8.944 4.45378 8.832C4.33644 8.72039 4.27778 8.58194 4.27778 8.41667C4.27778 8.25139 4.33644 8.11294 4.45378 8.00133C4.5707 7.88933 4.71574 7.83333 4.88889 7.83333H6.11111C6.28426 7.83333 6.4295 7.88933 6.54683 8.00133C6.66376 8.11294 6.72222 8.25139 6.72222 8.41667C6.72222 8.58194 6.66376 8.72039 6.54683 8.832C6.4295 8.944 6.28426 9 6.11111 9H4.88889ZM0.611111 3.16667C0.437963 3.16667 0.292926 3.11086 0.176 2.99925C0.0586667 2.88725 0 2.74861 0 2.58333C0 2.41806 0.0586667 2.27942 0.176 2.16742C0.292926 2.05581 0.437963 2 0.611111 2H10.3889C10.562 2 10.7071 2.05581 10.824 2.16742C10.9413 2.27942 11 2.41806 11 2.58333C11 2.74861 10.9413 2.88725 10.824 2.99925C10.7071 3.11086 10.562 3.16667 10.3889 3.16667H0.611111ZM2.44444 6.08333C2.2713 6.08333 2.12606 6.02733 2.00872 5.91533C1.8918 5.80372 1.83333 5.66528 1.83333 5.5C1.83333 5.33472 1.8918 5.19608 2.00872 5.08408C2.12606 4.97247 2.2713 4.91667 2.44444 4.91667H8.55556C8.7287 4.91667 8.87374 4.97247 8.99067 5.08408C9.108 5.19608 9.16667 5.33472 9.16667 5.5C9.16667 5.66528 9.108 5.80372 8.99067 5.91533C8.87374 6.02733 8.7287 6.08333 8.55556 6.08333H2.44444Z" />
</svg>
