<svg width="11" height="11" viewBox="0 0 11 11"  xmlns="http://www.w3.org/2000/svg">
<path d="M6.11111 1.913C6.28426 1.913 6.4293 1.97039 6.54622 2.08517C6.66356 2.19956 6.72222 2.34144 6.72222 2.51083C6.72222 2.68021 6.66356 2.82209 6.54622 2.93648C6.4293 3.05126 6.28426 3.10865 6.11111 3.10865L4.88889 3.10865C4.71574 3.10865 4.5705 3.05126 4.45317 2.93648C4.33624 2.82209 4.27778 2.68021 4.27778 2.51083C4.27778 2.34144 4.33624 2.19956 4.45317 2.08517C4.5705 1.97039 4.71574 1.913 4.88889 1.913L6.11111 1.913ZM10.3889 7.89126C10.562 7.89126 10.7071 7.94845 10.824 8.06284C10.9413 8.17762 11 8.3197 11 8.48909C11 8.65847 10.9413 8.80056 10.824 8.91534C10.7071 9.02972 10.562 9.08691 10.3889 9.08691L0.611111 9.08691C0.437962 9.08691 0.292925 9.02972 0.175999 8.91534C0.0586663 8.80055 -9.16219e-07 8.65847 -9.01411e-07 8.48909C-8.86603e-07 8.3197 0.0586663 8.17762 0.175999 8.06284C0.292925 7.94845 0.437962 7.89126 0.611111 7.89126L10.3889 7.89126ZM8.55556 4.90213C8.7287 4.90213 8.87394 4.95952 8.99128 5.0743C9.1082 5.18869 9.16667 5.33057 9.16667 5.49996C9.16667 5.66934 9.1082 5.81142 8.99128 5.92621C8.87394 6.04059 8.7287 6.09778 8.55556 6.09778L2.44444 6.09778C2.2713 6.09778 2.12626 6.04059 2.00933 5.92621C1.892 5.81142 1.83333 5.66934 1.83333 5.49996C1.83333 5.33057 1.892 5.18869 2.00933 5.0743C2.12626 4.95952 2.2713 4.90213 2.44444 4.90213L8.55556 4.90213Z" />
</svg>
