<svg width="11" height="11" viewBox="0 0 11 11"  xmlns="http://www.w3.org/2000/svg">
<path d="M5.49573 1.54561C5.72066 1.54561 5.93756 1.5622 6.15445 1.6037C6.43561 1.65349 6.69268 1.46262 6.74088 1.18047C6.78908 0.898327 6.60431 0.624477 6.33118 0.574686C6.05805 0.524895 5.77689 0.5 5.49573 0.5C2.82871 0.5 0.659741 2.74059 0.659741 5.49568C0.659741 5.84422 0.70794 6.18446 0.772205 6.5164L0.161682 6.88983C-0.0552146 7.0226 -0.0552146 7.35454 0.169715 7.48732L2.25031 8.6823C2.47524 8.80677 2.74837 8.6408 2.74837 8.37525L2.70821 5.91061C2.70821 5.64505 2.42705 5.48738 2.20212 5.62016L1.69602 5.9355C1.67996 5.78613 1.66389 5.63676 1.66389 5.48738C1.67192 3.32148 3.39103 1.54561 5.49573 1.54561Z" />
<path d="M10.8142 3.50438L8.72558 2.3177C8.50066 2.19323 8.22753 2.35919 8.23556 2.62475L8.28376 5.08939C8.28376 5.35494 8.57295 5.51262 8.78985 5.37984L9.29594 5.0645C9.31201 5.20557 9.32808 5.35494 9.32808 5.49602C9.32808 7.67852 7.617 9.45439 5.50427 9.45439C5.31951 9.45439 5.13474 9.43779 4.94998 9.4129C4.67685 9.37971 4.41979 9.57057 4.37962 9.86102C4.33946 10.1515 4.53225 10.4087 4.81341 10.4502C5.03834 10.4834 5.27131 10.5 5.50427 10.5C8.17129 10.5 10.3403 8.25941 10.3403 5.49602C10.3403 5.15578 10.2921 4.81554 10.2278 4.4836L10.8383 4.10187C11.0552 3.9691 11.0552 3.63716 10.8303 3.50438H10.8142Z" />
</svg>
