<svg width="11" height="11" viewBox="0 0 11 11"  xmlns="http://www.w3.org/2000/svg">
<path d="M5.5 1.03125C7.96125 1.03125 9.96875 3.03875 9.96875 5.5C9.96875 7.96125 7.96125 9.96875 5.5 9.96875C3.03875 9.96875 1.03125 7.96125 1.03125 5.5C1.03125 3.03875 3.03875 1.03125 5.5 1.03125ZM5.5 0C2.46125 0 0 2.46125 0 5.5C0 8.53875 2.46125 11 5.5 11C8.53875 11 11 8.53875 11 5.5C11 2.46125 8.53875 0 5.5 0Z" />
<path d="M10.9995 5.49313C10.9995 8.53188 8.53821 10.9931 5.49946 10.9931C5.13509 10.9931 4.77759 10.9588 4.43384 10.89V10.8006C4.43384 10.8006 8.07071 8.93063 5.85696 5.49313C3.73259 2.20001 5.67821 0.165007 5.84321 0.00688171C8.72384 0.178757 10.9995 2.57126 10.9995 5.49313Z" />
</svg>
