<svg width="11" height="11" viewBox="0 0 11 11"  xmlns="http://www.w3.org/2000/svg">
<path d="M8.94604 1.14812H7.09074C7.04264 0.50875 6.50667 0 5.86075 0H5.13238C4.47959 0 3.94361 0.50875 3.90238 1.14812H2.04709C1.60732 1.14812 1.25 1.50563 1.25 1.94562V2.75688C1.25 3.11438 1.48363 3.41688 1.80659 3.51313V9.27437C1.80659 10.2231 2.57619 11 3.53133 11H7.46867C8.41694 11 9.19341 10.23 9.19341 9.27437V3.51313C9.5095 3.41 9.75 3.1075 9.75 2.75V1.93875C9.75 1.49875 9.39268 1.14125 8.95291 1.14125L8.94604 1.14812ZM2.12268 2.02125H4.33529C4.57579 2.02125 4.77506 1.82187 4.77506 1.58125V1.2375C4.77506 1.03812 4.93998 0.873125 5.13925 0.873125H5.86762C6.0669 0.873125 6.23181 1.03812 6.23181 1.2375V1.58125C6.23181 1.82187 6.43108 2.02125 6.67158 2.02125H8.8842V2.67438H2.12268V2.02125ZM7.46867 10.1269H7.01516V5.72C7.01516 5.47937 6.81589 5.28 6.57538 5.28C6.33488 5.28 6.13561 5.47937 6.13561 5.72V10.1269H4.78193V5.72C4.78193 5.47937 4.58266 5.28 4.34216 5.28C4.10166 5.28 3.90238 5.47937 3.90238 5.72V10.1269H3.52445C3.05719 10.1269 2.67926 9.74875 2.67926 9.28125V3.5475H8.31386V9.27437C8.31386 9.74187 7.93593 10.12 7.46867 10.12V10.1269Z" />
</svg>
