<svg width="11" height="11" viewBox="0 0 11 11"  xmlns="http://www.w3.org/2000/svg">
<path d="M0 8.55552V7.9444C0 7.60689 0.273604 7.33329 0.611111 7.33329C0.948618 7.33329 1.22222 7.60689 1.22222 7.9444V8.55552C1.22222 8.87968 1.35108 9.19047 1.5803 9.41968C1.80951 9.6489 2.12029 9.77776 2.44444 9.77776H8.55556L8.67611 9.77179C8.95599 9.74406 9.21909 9.62031 9.4197 9.41968C9.62032 9.21906 9.74408 8.95597 9.77181 8.67608L9.77778 8.55552V7.9444C9.77778 7.60689 10.0514 7.33329 10.3889 7.33329C10.7264 7.33329 11 7.60689 11 7.9444V8.55552L10.997 8.67667C10.9671 9.28088 10.7136 9.85405 10.2839 10.2838C9.85407 10.7136 9.2809 10.9671 8.6767 10.997L8.55556 11H2.44444C1.79614 11 1.17457 10.7423 0.716146 10.2838C0.257724 9.82542 0 9.20384 0 8.55552ZM4.88889 7.9444V2.08626L3.48763 3.48753C3.24898 3.72619 2.86213 3.72619 2.62348 3.48753C2.38483 3.24888 2.38483 2.86203 2.62348 2.62337L5.06793 0.178896L5.11447 0.13712C5.3545 -0.0586524 5.70834 -0.0448449 5.93207 0.178896L8.37652 2.62337L8.41829 2.66992C8.61406 2.90995 8.60026 3.26379 8.37652 3.48753C8.15278 3.71127 7.79895 3.72508 7.55892 3.52931L7.51237 3.48753L6.11111 2.08626V7.9444C6.11111 8.28192 5.83751 8.55552 5.5 8.55552C5.16249 8.55552 4.88889 8.28192 4.88889 7.9444Z" />
</svg>
