<svg width="11" height="11" viewBox="0 0 11 11"  xmlns="http://www.w3.org/2000/svg">
<path d="M3.48238 5.66066C4.80466 5.90719 5.94456 4.7866 5.69378 3.48672C5.5513 2.76395 4.95285 2.17564 4.21762 2.03557C2.89534 1.78344 1.74974 2.90962 2.00052 4.2151C2.14301 4.93788 2.74145 5.52619 3.47668 5.66626L3.48238 5.66066ZM3.85285 2.83679C4.4171 2.83679 4.87876 3.29062 4.87876 3.84531C4.87876 4.4 4.4171 4.85384 3.85285 4.85384C3.2886 4.85384 2.82694 4.4 2.82694 3.84531C2.82694 3.29062 3.2886 2.83679 3.85285 2.83679Z" />
<path d="M7.7399 6.52911C8.7943 6.72521 9.71192 5.82875 9.50674 4.79221C9.39275 4.2151 8.91399 3.74446 8.32694 3.6324C7.27254 3.4363 6.36062 4.33277 6.5601 5.36931C6.67409 5.94641 7.15285 6.41705 7.7399 6.52911ZM8.03627 4.44482C8.39534 4.44482 8.68031 4.73057 8.68031 5.07795C8.68031 5.42534 8.38964 5.71109 8.03627 5.71109C7.6829 5.71109 7.39223 5.42534 7.39223 5.07795C7.39223 4.73057 7.6829 4.44482 8.03627 4.44482Z" />
<path d="M9.71762 6.20974C9.62072 6.14251 9.49534 6.1201 9.38135 6.14811C9.27876 6.17052 9.18756 6.23216 9.13057 6.3162C8.89689 6.64677 8.56632 6.92692 8.16166 6.96614C7.7171 7.00536 7.31244 6.82607 7.05596 6.48989C7.04456 6.47308 7.03886 6.46188 7.02746 6.44507C7.01036 6.41705 6.99326 6.38904 6.97047 6.35542C6.95337 6.3218 6.91917 6.3106 6.89637 6.28258C6.657 5.98563 6.37202 5.71669 6.04145 5.50378C5.94456 5.43654 5.81917 5.41973 5.70518 5.44775C5.59119 5.47576 5.4886 5.5486 5.43161 5.65506C5.11244 6.21535 4.51399 6.56833 3.85855 6.56833C3.20311 6.56833 2.59326 6.22095 2.27979 5.65506C2.2228 5.5542 2.12021 5.47576 2.00622 5.44775C1.88653 5.41973 1.76684 5.44775 1.66425 5.50938C0.621244 6.19854 0 7.34154 0 8.57418C0 8.8095 0.188083 9 0.427461 9H7.26684C7.26684 9 7.27254 9 7.27824 9H10.5725C10.8119 9 11 8.8039 11 8.57418C11 7.62168 10.5155 6.74202 9.71762 6.20974ZM1.80674 6.45627C2.30829 7.04458 3.05492 7.39756 3.85285 7.39756C4.65078 7.39756 5.39741 7.04458 5.89326 6.45067C6.10415 6.64117 6.28083 6.85968 6.42902 7.10061C6.46891 7.16224 6.50881 7.22387 6.53731 7.29111C6.5715 7.36395 6.6057 7.43679 6.6342 7.51523C6.66269 7.58246 6.69119 7.6497 6.71399 7.71693C6.74249 7.81218 6.76529 7.91303 6.78238 8.00828C6.79378 8.05871 6.80518 8.10353 6.81658 8.15396H0.980311C0.929016 8.15396 0.889119 8.10914 0.900518 8.05871C1.01451 7.44239 1.33368 6.87649 1.80674 6.45067V6.45627ZM7.6829 8.15956C7.6715 8.08112 7.6601 8.00268 7.64301 7.92424C7.63161 7.87381 7.63161 7.82339 7.62021 7.77296C8.32124 7.91303 9.07928 7.67211 9.55803 7.16784C9.83161 7.44239 10.0197 7.78977 10.1052 8.16516H7.6886L7.6829 8.15956Z" />
</svg>
