<svg width="11" height="11" viewBox="0 0 11 11"  xmlns="http://www.w3.org/2000/svg">
<path d="M5.8787 5.66333C4.50592 5.90966 3.32249 4.78997 3.58284 3.49113C3.72485 2.76334 4.35207 2.1755 5.11538 2.03554C6.48817 1.78361 7.67751 2.9089 7.41716 4.21333C7.26923 4.93553 6.64793 5.52337 5.88461 5.66333H5.8787ZM5.5 2.84172C4.9142 2.84172 4.43491 3.29519 4.43491 3.84943C4.43491 4.40368 4.9142 4.85715 5.5 4.85715C6.0858 4.85715 6.56509 4.40368 6.56509 3.84943C6.56509 3.29519 6.0858 2.84172 5.5 2.84172Z" />
<path d="M9.05621 9H1.94379C1.69527 9 1.5 8.80405 1.5 8.57452C1.5 7.34846 2.14497 6.20078 3.22189 5.50657C3.32249 5.43939 3.45266 5.417 3.57692 5.44499C3.70118 5.47298 3.80177 5.54576 3.86095 5.65213C4.19231 6.21198 4.81953 6.56468 5.5 6.56468C6.18047 6.56468 6.80177 6.21758 7.13314 5.65213C7.19231 5.55136 7.29882 5.47298 7.41716 5.44499C7.5355 5.417 7.66568 5.43939 7.76627 5.50097C8.84911 6.18398 9.5 7.33166 9.5 8.56892C9.5 8.80405 9.30473 9 9.05621 9ZM2.51775 8.16023H8.48817C8.5355 8.16023 8.57692 8.11545 8.57101 8.07066C8.45266 7.44923 8.1213 6.87819 7.62426 6.45831C7.10355 7.05174 6.33432 7.40444 5.50592 7.40444C4.67751 7.40444 3.90237 7.05174 3.38166 6.46391C2.89053 6.88939 2.55917 7.45483 2.44083 8.07626C2.43491 8.12105 2.47041 8.16583 2.52367 8.16583L2.51775 8.16023Z" />
</svg>
