<svg width="11" height="11" viewBox="0 0 11 11"  xmlns="http://www.w3.org/2000/svg">
<path d="M0 9.2654V2.90519C2.48238e-05 2.44517 0.182905 2.00405 0.508184 1.67877C0.833481 1.3535 1.27458 1.17058 1.7346 1.17058H4.62561C4.94491 1.17058 5.20376 1.4295 5.20381 1.74878C5.20381 2.06812 4.94494 2.32699 4.62561 2.32699H1.7346C1.58128 2.32699 1.43423 2.38798 1.3258 2.49638C1.21739 2.60479 1.15643 2.75187 1.1564 2.90519V9.2654L1.15923 9.32243C1.17232 9.45485 1.23089 9.57928 1.3258 9.6742C1.43423 9.78264 1.58125 9.8436 1.7346 9.8436H8.09481C8.24816 9.8436 8.39519 9.78264 8.50362 9.6742C8.61203 9.56577 8.67301 9.41872 8.67301 9.2654V6.37439C8.67307 6.0551 8.93192 5.79619 9.25122 5.79619C9.57052 5.79619 9.82937 6.0551 9.82942 6.37439V9.2654C9.82942 9.72542 9.6465 10.1665 9.32123 10.4918C8.99593 10.8171 8.55486 11 8.09481 11H1.7346C1.27456 11 0.833485 10.8171 0.508184 10.4918C0.2236 10.2072 0.047917 9.83408 0.00846974 9.43705L0 9.2654ZM9.25009 6.5121e-05C9.48035 -0.0019358 9.70889 0.042196 9.92202 0.12937C10.1352 0.216579 10.3289 0.345405 10.4918 0.50825C10.6546 0.671116 10.7834 0.864805 10.8706 1.07798C10.9578 1.29114 11.0019 1.51961 10.9999 1.74991C10.9979 1.98007 10.9501 2.20753 10.8593 2.41902C10.7698 2.62756 10.6393 2.81607 10.4771 2.97464L10.4776 2.9752L5.51324 7.9396C5.40482 8.04802 5.25775 8.10898 5.10443 8.109H3.46921C3.14987 8.109 2.89101 7.85013 2.89101 7.53079V5.89557C2.89105 5.74228 2.95201 5.59516 3.0604 5.48676L8.0248 0.522366V0.522931C8.18343 0.360518 8.37232 0.230294 8.58098 0.140663C8.79246 0.0498559 9.01995 0.00210035 9.25009 6.5121e-05ZM9.26025 1.15647C9.18354 1.15715 9.1077 1.17306 9.03721 1.20333C8.98433 1.22605 8.93527 1.2566 8.89153 1.29368L8.84975 1.3332L8.84241 1.33998L4.04741 6.13498V6.95259H4.86502L9.66002 2.15759L9.66736 2.15081L9.70632 2.10847C9.7434 2.06473 9.77395 2.01566 9.79667 1.96279C9.82694 1.89228 9.84286 1.81648 9.84353 1.73975C9.8442 1.66298 9.82969 1.58664 9.80062 1.51558C9.77155 1.44457 9.7284 1.38012 9.67414 1.32586C9.61986 1.27159 9.55545 1.22844 9.48442 1.19938C9.41336 1.17031 9.33702 1.1558 9.26025 1.15647Z" />
</svg>
