<svg width="11" height="11" viewBox="0 0 11 11"  xmlns="http://www.w3.org/2000/svg">
<path d="M10.8428 2.25847L8.63728 0.150291C8.5366 0.0540501 8.40013 0 8.25769 0H3.21423C2.34983 0 1.64648 0.672092 1.64648 1.49835V4.02001H0.858909C0.384362 4.02001 0 4.38764 0 4.84102V8.19099C0 8.6446 0.384362 9.012 0.858909 9.012H1.64648V9.50142C1.64648 10.3277 2.34983 11 3.21423 11H9.43249C10.2969 11 11 10.3277 11 9.50142V2.62132C11 2.48517 10.9435 2.35472 10.8428 2.25847ZM2.72012 1.49835C2.72012 1.23814 2.94176 1.02627 3.21423 1.02627H7.54623V2.31595C7.54623 2.8601 8.00766 3.30139 8.57716 3.30139H9.92636V4.02046C9.91658 4.02024 9.9068 4.02001 9.89678 4.02001H2.72012V1.49835ZM9.15072 7.26005L9.0634 7.82815H7.06214V5.21823H7.86665V7.26005H9.15072ZM5.33025 6.79412C4.52573 6.60848 4.36326 6.3282 4.36326 5.97585C4.36326 5.53638 4.70014 5.16897 5.46099 5.16897C6.22184 5.16897 6.57471 5.5553 6.61026 5.96444H5.83748C5.81768 5.82419 5.74228 5.68416 5.45694 5.68416C5.27466 5.68416 5.16371 5.74847 5.16371 5.88873C5.16371 6.02898 5.26273 6.08554 5.68288 6.18406C6.52318 6.38499 6.69353 6.67667 6.69353 7.04796C6.69353 7.53646 6.29723 7.87741 5.49678 7.87741C4.73975 7.87741 4.3394 7.54034 4.27999 7.03655H5.05683C5.10431 7.2637 5.27084 7.36222 5.52827 7.36222C5.7702 7.36222 5.88114 7.27898 5.88114 7.12732C5.88114 6.95696 5.76209 6.89265 5.33025 6.79412ZM1.50595 7.82815L1.64648 7.61377L2.35794 6.52889L1.64648 5.40843L1.52576 5.21823H2.44908L2.72012 5.72909L2.87711 6.02511H2.88522L3.32493 5.21823H4.16523L3.33686 6.4493L4.21677 7.82815H3.29726L2.8375 6.97976H2.82963L2.72012 7.1784L2.362 7.82815H1.50595ZM9.92636 9.50142C9.92636 9.76186 9.70496 9.97373 9.43249 9.97373H3.21423C2.94176 9.97373 2.72012 9.76186 2.72012 9.50142V9.012H9.89678C9.9068 9.012 9.91658 9.01178 9.92636 9.01155V9.50142Z" />
</svg>
