<svg width="16" height="16" viewBox="0 0 16 16"  xmlns="http://www.w3.org/2000/svg">
<path d="M2.55556 15C2.12778 15 1.76157 14.8477 1.45694 14.5431C1.15231 14.2384 1 13.8722 1 13.4444V2.55556C1 2.12778 1.15231 1.76157 1.45694 1.45694C1.76157 1.15231 2.12778 1 2.55556 1H6.44444C6.66481 1 6.84954 1.07454 6.99861 1.22361C7.14769 1.37269 7.22222 1.55741 7.22222 1.77778C7.22222 1.99815 7.14769 2.18287 6.99861 2.33194C6.84954 2.48102 6.66481 2.55556 6.44444 2.55556H2.55556V13.4444H13.4444V9.55556C13.4444 9.33519 13.519 9.15046 13.6681 9.00139C13.8171 8.85231 14.0019 8.77778 14.2222 8.77778C14.4426 8.77778 14.6273 8.85231 14.7764 9.00139C14.9255 9.15046 15 9.33519 15 9.55556V13.4444C15 13.8722 14.8477 14.2384 14.5431 14.5431C14.2384 14.8477 13.8722 15 13.4444 15H2.55556ZM11.1111 4.88889H9.55556C9.33519 4.88889 9.15046 4.81435 9.00139 4.66528C8.85231 4.5162 8.77778 4.33148 8.77778 4.11111C8.77778 3.89074 8.85231 3.70602 9.00139 3.55694C9.15046 3.40787 9.33519 3.33333 9.55556 3.33333H11.1111V1.77778C11.1111 1.55741 11.1856 1.37269 11.3347 1.22361C11.4838 1.07454 11.6685 1 11.8889 1C12.1093 1 12.294 1.07454 12.4431 1.22361C12.5921 1.37269 12.6667 1.55741 12.6667 1.77778V3.33333H14.2222C14.4426 3.33333 14.6273 3.40787 14.7764 3.55694C14.9255 3.70602 15 3.89074 15 4.11111C15 4.33148 14.9255 4.5162 14.7764 4.66528C14.6273 4.81435 14.4426 4.88889 14.2222 4.88889H12.6667V6.44444C12.6667 6.66481 12.5921 6.84954 12.4431 6.99861C12.294 7.14769 12.1093 7.22222 11.8889 7.22222C11.6685 7.22222 11.4838 7.14769 11.3347 6.99861C11.1856 6.84954 11.1111 6.66481 11.1111 6.44444V4.88889Z" />
</svg>
