<svg width="16" height="16" viewBox="0 0 16 16"  xmlns="http://www.w3.org/2000/svg">
<path d="M6.01988 0H1.66997C0.749985 0 0 0.750489 0 1.67109V6.01392C0 6.93452 0.749985 7.68501 1.66997 7.68501H6.00988C6.92986 7.68501 7.67985 6.93452 7.67985 6.01392V1.67109C7.67985 0.750489 6.92986 0 6.00988 0H6.01988ZM6.43987 6.02393C6.43987 6.25408 6.24988 6.4442 6.01988 6.4442H1.66997C1.43997 6.4442 1.24998 6.25408 1.24998 6.02393V1.67109C1.24998 1.44094 1.43997 1.25082 1.66997 1.25082H6.00988C6.23988 1.25082 6.42987 1.44094 6.42987 1.67109V6.01392L6.43987 6.02393Z" />
<path d="M14.33 8.31499H9.99012C9.07014 8.31499 8.32015 9.06548 8.32015 9.98608V14.3289C8.32015 15.2495 9.07014 16 9.99012 16H14.33C15.25 16 16 15.2495 16 14.3289V9.98608C16 9.06548 15.25 8.31499 14.33 8.31499ZM14.75 14.3389C14.75 14.5691 14.56 14.7592 14.33 14.7592H9.99012C9.76012 14.7592 9.57013 14.5691 9.57013 14.3389V9.99609C9.57013 9.76594 9.76012 9.57581 9.99012 9.57581H14.33C14.56 9.57581 14.75 9.76594 14.75 9.99609V14.3389Z" />
<path d="M6.69034 11.538H4.47038V9.3165C4.47038 8.96628 4.19039 8.6961 3.85039 8.6961C3.5104 8.6961 3.23041 8.97628 3.23041 9.3165V12.1584C3.23041 12.5086 3.5104 12.7788 3.85039 12.7788H6.69034C7.04033 12.7788 7.31033 12.4986 7.31033 12.1584C7.31033 11.8181 7.03033 11.538 6.69034 11.538Z" />
<path d="M10.5202 4.47252H11.5302V5.48318C11.5302 5.83341 11.8102 6.10359 12.1502 6.10359C12.4901 6.10359 12.7701 5.82341 12.7701 5.48318V4.47252H13.7801C14.1301 4.47252 14.4001 4.19234 14.4001 3.85212C14.4001 3.5119 14.1201 3.23172 13.7801 3.23172H12.7701V2.22106C12.7701 1.87083 12.4901 1.60065 12.1502 1.60065C11.8102 1.60065 11.5302 1.88084 11.5302 2.22106V3.23172H10.5202C10.1702 3.23172 9.9002 3.5119 9.9002 3.85212C9.9002 4.19234 10.1802 4.47252 10.5202 4.47252Z" />
</svg>
