<svg width="16" height="16" viewBox="0 0 16 16"  xmlns="http://www.w3.org/2000/svg">
<path fill-rule="evenodd" clip-rule="evenodd" d="M12 6.472V2.616L6 0L0 2.616V6.544C0 10.176 2.56 13.576 6 14.4C6.44 14.296 6.864 14.144 7.28 13.96C8.144 15.192 9.576 16 11.2 16C13.848 16 16 13.848 16 11.2C16 8.824 14.272 6.856 12 6.472ZM6.4 11.2C6.4 11.648 6.464 12.088 6.584 12.496C6.392 12.584 6.2 12.672 6 12.736C3.464 11.936 1.6 9.344 1.6 6.544V3.664L6 1.744L10.4 3.664V6.472C8.128 6.856 6.4 8.824 6.4 11.2ZM11.2 14.4C9.432 14.4 8 12.968 8 11.2C8 9.432 9.432 8 11.2 8C12.968 8 14.4 9.432 14.4 11.2C14.4 12.968 12.968 14.4 11.2 14.4Z" />
</svg>
