<svg width="16" height="16" viewBox="0 0 16 16"  xmlns="http://www.w3.org/2000/svg">
<path d="M3.1 14.3V13.6H2.4C2.0134 13.6 1.7 13.2866 1.7 12.9C1.7 12.5134 2.0134 12.2 2.4 12.2H3.1V11.5C3.1 11.1134 3.4134 10.8 3.8 10.8C4.1866 10.8 4.5 11.1134 4.5 11.5V12.2H5.2C5.5866 12.2 5.9 12.5134 5.9 12.9C5.9 13.2866 5.5866 13.6 5.2 13.6H4.5V14.3C4.5 14.6866 4.1866 15 3.8 15C3.4134 15 3.1 14.6866 3.1 14.3ZM8.7 1C9.00123 1 9.26843 1.19279 9.36377 1.47852L10.8581 5.96152L14.5461 7.34443L14.6438 7.39023C14.8615 7.51287 15 7.74472 15 8C15 8.25528 14.8615 8.48713 14.6438 8.60977L14.5461 8.65557L10.8581 10.0378L9.36377 14.5215C9.26843 14.8072 9.00123 15 8.7 15C8.39877 15 8.13157 14.8072 8.03623 14.5215L6.54121 10.0378L2.85391 8.65557C2.58082 8.55305 2.4 8.29171 2.4 8C2.4 7.70829 2.58082 7.44695 2.85391 7.34443L6.54121 5.96152L8.03623 1.47852L8.0793 1.37598C8.19844 1.14756 8.43635 1 8.7 1ZM7.76416 6.721C7.69739 6.92128 7.54344 7.08087 7.3458 7.15508L5.09336 8L7.3458 8.84492L7.41758 8.87637C7.58042 8.95932 7.7057 9.10366 7.76416 9.279L8.7 12.0865L9.63584 9.279L9.66523 9.20586C9.74205 9.04006 9.8812 8.90988 10.0542 8.84492L12.306 8L10.0542 7.15508C9.85656 7.08087 9.70261 6.92128 9.63584 6.721L8.7 3.91279L7.76416 6.721ZM2.4 4.5V3.8H1.7C1.3134 3.8 1 3.4866 1 3.1C1 2.7134 1.3134 2.4 1.7 2.4H2.4V1.7C2.4 1.3134 2.7134 1 3.1 1C3.4866 1 3.8 1.3134 3.8 1.7V2.4H4.5C4.8866 2.4 5.2 2.7134 5.2 3.1C5.2 3.4866 4.8866 3.8 4.5 3.8H3.8V4.5C3.8 4.8866 3.4866 5.2 3.1 5.2C2.7134 5.2 2.4 4.8866 2.4 4.5Z" />
</svg>
