<svg width="16" height="16" viewBox="0 0 16 16"  xmlns="http://www.w3.org/2000/svg">
<path d="M9.625 0H3.125C2.23125 0 1.5 0.72 1.5 1.6V14.4C1.5 15.28 2.23125 16 3.125 16H12.875C13.7688 16 14.5 15.28 14.5 14.4V4.8L9.625 0ZM12.875 14.4H3.125V1.6H9.625V4.8H12.875V14.4ZM8 12C7.10625 12 6.375 11.28 6.375 10.4V6C6.375 5.776 6.55375 5.6 6.78125 5.6C7.00875 5.6 7.1875 5.776 7.1875 6V10.4H8.8125V6C8.8125 4.896 7.9025 4 6.78125 4C5.66 4 4.75 4.896 4.75 6V10.4C4.75 12.168 6.20437 13.6 8 13.6C9.79562 13.6 11.25 12.168 11.25 10.4V7.2H9.625V10.4C9.625 11.28 8.89375 12 8 12Z" />
</svg>
