<svg width="16" height="16" viewBox="0 0 16 16"  xmlns="http://www.w3.org/2000/svg">
<path d="M14.1782 8.15984C14.4968 7.9032 14.9663 7.92175 15.2629 8.21544C15.5792 8.52898 15.5791 9.0374 15.2621 9.35023L10.1891 14.3562C9.19125 15.343 7.86014 15.9241 6.45743 15.993L6.17634 16C4.67113 16 3.22718 15.4088 2.16276 14.3562C1.09837 13.3034 0.50007 11.8752 0.5 10.3863C0.5 8.90089 1.09506 7.47571 2.15484 6.42359L7.35611 1.14277L7.37353 1.12554C8.13811 0.395136 9.16262 -0.0089843 10.2256 0.000151594C11.2884 0.00935233 12.3054 0.431502 13.057 1.17488C13.8084 1.91829 14.2347 2.92425 14.2439 3.97544C14.253 5.02665 13.8445 6.03943 13.1061 6.79558L13.1037 6.79793L7.90482 12.0764L7.90561 12.0772C7.68129 12.3069 7.41287 12.4899 7.1162 12.616C6.81944 12.7421 6.5001 12.809 6.17713 12.8118C5.85417 12.8145 5.53382 12.7534 5.2349 12.6324C4.93601 12.5115 4.66435 12.3328 4.43599 12.1069C4.20764 11.8811 4.02699 11.6124 3.9047 11.3167C3.78242 11.0211 3.72057 10.7042 3.72338 10.3848C3.7262 10.0654 3.79386 9.74945 3.92132 9.45596C4.01687 9.23604 4.14466 9.0317 4.30059 8.8498L4.46607 8.67516L9.7964 3.40374C10.113 3.09057 10.6263 3.09056 10.9429 3.40374C11.2395 3.69737 11.258 4.16177 10.9983 4.47666L10.9429 4.53775L5.60309 9.81934L5.59279 9.82874C5.51535 9.90272 5.45317 9.99169 5.41068 10.0895C5.36829 10.1873 5.3459 10.2925 5.34496 10.3989C5.34403 10.5053 5.36517 10.6113 5.40593 10.7098C5.44668 10.8082 5.5065 10.8977 5.5825 10.9729C5.65863 11.0482 5.74969 11.108 5.84933 11.1484C5.94881 11.1886 6.05543 11.2088 6.16288 11.2079C6.27054 11.207 6.37751 11.1849 6.47643 11.1429C6.57525 11.1009 6.66457 11.0393 6.7393 10.9627L6.74168 10.9604L11.9422 5.67881C12.3837 5.22533 12.6278 4.6184 12.6223 3.98876C12.6167 3.35804 12.3606 2.7549 11.9097 2.30889C11.4587 1.86289 10.849 1.60956 10.2113 1.60405C9.5749 1.59858 8.96105 1.83952 8.50262 2.276L3.3164 7.54271L3.30927 7.55055C2.54893 8.3026 2.12159 9.32279 2.12159 10.3863C2.12166 11.4498 2.54904 12.4694 3.30927 13.2214C4.06961 13.9734 5.10105 14.3961 6.17634 14.3961L6.37666 14.3914C7.37888 14.3423 8.32972 13.9265 9.04262 13.2214H9.04341L14.1164 8.21466L14.1782 8.15984Z" />
</svg>
