<svg width="16" height="16" viewBox="0 0 16 16"  xmlns="http://www.w3.org/2000/svg">
<path d="M6.66666 12.2C6.66666 12.5713 6.80724 12.9273 7.05729 13.1898C7.30734 13.4524 7.64638 13.6 8 13.6L8.13151 13.5932C8.43684 13.5614 8.72385 13.4196 8.94271 13.1898C9.19276 12.9273 9.33334 12.5713 9.33334 12.2H6.66666ZM11.3236 7.0293C11.2773 6.40115 11.0701 5.79585 10.722 5.27861C10.3737 4.76124 9.89897 4.35418 9.35026 4.09873L9.11068 3.99893C8.84448 3.89995 8.66667 3.6351 8.66667 3.33857V3.1C8.66667 2.91435 8.59638 2.73635 8.47136 2.60508C8.36193 2.49018 8.21842 2.4193 8.06576 2.40342L8 2.4C7.82319 2.4 7.65367 2.4738 7.52864 2.60508C7.40362 2.73635 7.33333 2.91435 7.33333 3.1V3.33857C7.33333 3.6352 7.15501 3.90003 6.88867 3.99893C5.59341 4.48005 4.66666 5.77763 4.66666 7.3V9.51143C4.66663 9.97993 4.51728 10.4317 4.24869 10.8H11.7513C11.6445 10.6535 11.5545 10.494 11.487 10.3229C11.4108 10.1296 11.3625 9.92592 11.3431 9.71855L11.3333 9.51074V7.3L11.3236 7.0293ZM12.6667 9.51074L12.6699 9.58184C12.6766 9.6522 12.6929 9.72134 12.7188 9.78691C12.7533 9.87446 12.8041 9.95435 12.8679 10.0214L13.8047 11.0051C13.9954 11.2053 14.0524 11.5064 13.9492 11.768C13.846 12.0295 13.603 12.2 13.3334 12.2H10.6667C10.6667 12.9426 10.3855 13.6546 9.88542 14.1797C9.41656 14.672 8.79129 14.9623 8.13216 14.9966L8 15C7.29275 15 6.61468 14.7048 6.11458 14.1797C5.61448 13.6546 5.33332 12.9426 5.33332 12.2H2.66665C2.39704 12.2 2.15397 12.0295 2.05076 11.768C1.94757 11.5064 2.00463 11.2053 2.19529 11.0051L3.13215 10.0214L3.17772 9.96875C3.278 9.84024 3.33329 9.67847 3.33332 9.51143V7.3C3.33332 5.33935 4.43039 3.64906 6.01301 2.86553C6.06338 2.39487 6.26389 1.95338 6.58593 1.61523C6.96101 1.22141 7.46956 1 8 1C8.53043 1 9.03899 1.22141 9.41407 1.61523C9.73609 1.95336 9.93596 2.3949 9.98633 2.86553C10.7138 3.22507 11.3434 3.77668 11.8106 4.47061C12.3676 5.29817 12.6668 6.2866 12.6667 7.3V9.51074Z" />
</svg>
