<svg width="16" height="16" viewBox="0 0 16 16"  xmlns="http://www.w3.org/2000/svg">
<path d="M12.875 2.4C12.875 2.18783 12.7893 1.98441 12.637 1.83438C12.4846 1.68435 12.278 1.6 12.0625 1.6H3.9375C3.72201 1.6 3.51541 1.68435 3.36304 1.83438C3.21066 1.98441 3.125 2.18783 3.125 2.4V13.9055L7.6366 11.6844L7.72388 11.6477C7.93185 11.5737 8.16316 11.5858 8.3634 11.6844L12.875 13.9055V2.4ZM14.5 15.2C14.5 15.4773 14.3539 15.7347 14.1144 15.8805C13.8749 16.0262 13.5759 16.0396 13.3241 15.9156L8 13.2945L2.6759 15.9156C2.4241 16.0396 2.12513 16.0262 1.88562 15.8805C1.64608 15.7347 1.5 15.4773 1.5 15.2V2.4C1.5 1.76348 1.75699 1.15321 2.21411 0.703126C2.67123 0.253038 3.29103 0 3.9375 0H12.0625C12.709 0 13.3288 0.253038 13.7859 0.703126C14.243 1.15321 14.5 1.76348 14.5 2.4V15.2Z" />
</svg>
