<svg width="16" height="16" viewBox="0 0 16 16"  xmlns="http://www.w3.org/2000/svg">
<path d="M13.6 3.1C13.6 2.91435 13.5262 2.73635 13.3949 2.60508C13.2636 2.4738 13.0857 2.4 12.9 2.4H11.5C11.3143 2.4 11.1364 2.4738 11.0051 2.60508C10.8738 2.73635 10.8 2.91435 10.8 3.1V12.9C10.8 13.0857 10.8738 13.2636 11.0051 13.3949C11.1364 13.5262 11.3143 13.6 11.5 13.6H12.9C13.0857 13.6 13.2636 13.5262 13.3949 13.3949C13.5262 13.2636 13.6 13.0857 13.6 12.9V3.1ZM2.4 12.9C2.4 13.0857 2.4738 13.2636 2.60508 13.3949C2.73635 13.5262 2.91435 13.6 3.1 13.6H4.5C4.68565 13.6 4.86365 13.5262 4.99492 13.3949C5.1262 13.2636 5.2 13.0857 5.2 12.9V8.7C5.2 8.51435 5.1262 8.33635 4.99492 8.20508C4.86365 8.0738 4.68565 8 4.5 8H3.1C2.91435 8 2.73635 8.0738 2.60508 8.20508C2.4738 8.33635 2.4 8.51435 2.4 8.7V12.9ZM6.6 12.9C6.6 13.0857 6.6738 13.2636 6.80508 13.3949C6.93635 13.5262 7.11435 13.6 7.3 13.6H8.7C8.88565 13.6 9.06365 13.5262 9.19492 13.3949C9.3262 13.2636 9.4 13.0857 9.4 12.9V5.9C9.4 5.71435 9.3262 5.53635 9.19492 5.40508C9.08002 5.29018 8.92934 5.2193 8.76904 5.20342L8.7 5.2H7.3C7.11435 5.2 6.93635 5.2738 6.80508 5.40508C6.6738 5.53635 6.6 5.71435 6.6 5.9V12.9ZM15 12.9C15 13.457 14.7786 13.9909 14.3848 14.3848C13.9909 14.7786 13.457 15 12.9 15H11.5C10.9812 15 10.4842 14.8059 10.1 14.4613C9.71577 14.8059 9.21876 15 8.7 15H7.3C6.78124 15 6.28423 14.8059 5.9 14.4613C5.51577 14.8059 5.01876 15 4.5 15H3.1C2.54305 15 2.00906 14.7786 1.61523 14.3848C1.22141 13.9909 1 13.457 1 12.9V8.7C1 8.14304 1.22141 7.60906 1.61523 7.21523C2.00906 6.82141 2.54305 6.6 3.1 6.6H4.5C4.74102 6.6 4.97705 6.64344 5.2 6.72236V5.9C5.2 5.34305 5.42141 4.80906 5.81523 4.41523C6.20906 4.02141 6.74305 3.8 7.3 3.8H8.7L8.90781 3.81025C9.0768 3.82705 9.24153 3.86627 9.4 3.92236V3.1C9.4 2.54305 9.62141 2.00906 10.0152 1.61523C10.4091 1.22141 10.943 1 11.5 1H12.9C13.457 1 13.9909 1.22141 14.3848 1.61523C14.7786 2.00906 15 2.54305 15 3.1V12.9Z" />
</svg>
