<svg width="16" height="16" viewBox="0 0 16 16"  xmlns="http://www.w3.org/2000/svg">
<path d="M6.40933 12C6.32297 12 6.242 11.985 6.16644 11.9549C6.09087 11.9253 6.0207 11.8747 5.95592 11.8031L3.17068 8.72483C3.05193 8.59359 2.99514 8.42344 3.00032 8.21441C3.00594 8.00585 3.06812 7.83594 3.18687 7.7047C3.30562 7.57345 3.45676 7.50783 3.64028 7.50783C3.82381 7.50783 3.97494 7.57345 4.0937 7.7047L6.40933 10.264L11.8989 4.19687C12.0176 4.06562 12.1716 4 12.3607 4C12.5494 4 12.7031 4.06562 12.8219 4.19687C12.9406 4.32811 13 4.49802 13 4.70658C13 4.91562 12.9406 5.08576 12.8219 5.217L6.86275 11.8031C6.79797 11.8747 6.7278 11.9253 6.65223 11.9549C6.57666 11.985 6.4957 12 6.40933 12Z" />
</svg>
