<svg width="16" height="16" viewBox="0 0 16 16"  xmlns="http://www.w3.org/2000/svg">
<path d="M10.0611 11.8027C9.93511 11.9342 9.77481 12 9.58015 12C9.3855 12 9.22519 11.9342 9.09924 11.8027L5.93893 8.50224C5.87023 8.43049 5.82145 8.35277 5.7926 8.26906C5.7642 8.18535 5.75 8.09567 5.75 8C5.75 7.90434 5.76718 7.81154 5.80153 7.72161C5.83588 7.63217 5.88168 7.55755 5.93893 7.49776L9.09924 4.19731C9.22519 4.06577 9.3855 4 9.58015 4C9.77481 4 9.93511 4.06577 10.0611 4.19731C10.187 4.32885 10.25 4.49626 10.25 4.69955C10.25 4.90284 10.187 5.07025 10.0611 5.20179L7.38168 8L10.0611 10.7982C10.187 10.9297 10.25 11.0972 10.25 11.3004C10.25 11.5037 10.187 11.6712 10.0611 11.8027Z" />
</svg>
