<svg width="16" height="16" viewBox="0 0 16 16"  xmlns="http://www.w3.org/2000/svg">
<path d="M4.19731 10.0611C4.06577 9.93511 4 9.77481 4 9.58015C4 9.3855 4.06577 9.22519 4.19731 9.09924L7.49776 5.93893C7.56951 5.87023 7.64723 5.82145 7.73094 5.7926C7.81465 5.7642 7.90433 5.75 8 5.75C8.09566 5.75 8.18846 5.76718 8.27839 5.80153C8.36783 5.83588 8.44245 5.88168 8.50224 5.93893L11.8027 9.09924C11.9342 9.22519 12 9.3855 12 9.58015C12 9.77481 11.9342 9.93511 11.8027 10.0611C11.6712 10.187 11.5037 10.25 11.3004 10.25C11.0972 10.25 10.9297 10.187 10.7982 10.0611L8 7.38168L5.20179 10.0611C5.07025 10.187 4.90284 10.25 4.69955 10.25C4.49626 10.25 4.32885 10.187 4.19731 10.0611Z" />
</svg>
