<svg width="16" height="16" viewBox="0 0 16 16"  xmlns="http://www.w3.org/2000/svg">
<path d="M5.93893 4.19731C6.06489 4.06577 6.22519 4 6.41985 4C6.6145 4 6.77481 4.06577 6.90076 4.19731L10.0611 7.49776C10.1298 7.56951 10.1785 7.64723 10.2074 7.73094C10.2358 7.81465 10.25 7.90433 10.25 8C10.25 8.09566 10.2328 8.18846 10.1985 8.27839C10.1641 8.36783 10.1183 8.44245 10.0611 8.50224L6.90076 11.8027C6.77481 11.9342 6.6145 12 6.41985 12C6.22519 12 6.06489 11.9342 5.93893 11.8027C5.81298 11.6712 5.75 11.5037 5.75 11.3004C5.75 11.0972 5.81298 10.9297 5.93893 10.7982L8.61832 8L5.93893 5.20179C5.81298 5.07025 5.75 4.90284 5.75 4.69955C5.75 4.49626 5.81298 4.32885 5.93893 4.19731Z" />
</svg>
