<svg width="16" height="16" viewBox="0 0 16 16"  xmlns="http://www.w3.org/2000/svg">
<path d="M11.8027 5.93893C11.9342 6.06489 12 6.22519 12 6.41985C12 6.6145 11.9342 6.77481 11.8027 6.90076L8.50224 10.0611C8.43049 10.1298 8.35277 10.1785 8.26906 10.2074C8.18535 10.2358 8.09567 10.25 8 10.25C7.90434 10.25 7.81154 10.2328 7.72161 10.1985C7.63217 10.1641 7.55755 10.1183 7.49776 10.0611L4.19731 6.90076C4.06577 6.77481 4 6.6145 4 6.41985C4 6.22519 4.06577 6.06489 4.19731 5.93893C4.32885 5.81298 4.49626 5.75 4.69955 5.75C4.90284 5.75 5.07026 5.81298 5.20179 5.93893L8 8.61832L10.7982 5.93893C10.9297 5.81298 11.0972 5.75 11.3004 5.75C11.5037 5.75 11.6712 5.81298 11.8027 5.93893Z" />
</svg>
