<svg width="16" height="16" viewBox="0 0 16 16"  xmlns="http://www.w3.org/2000/svg">
<path d="M8 1C4.136 1 1 4.136 1 8C1 11.864 4.136 15 8 15C11.864 15 15 11.864 15 8C15 4.136 11.864 1 8 1ZM8 13.6C4.913 13.6 2.4 11.087 2.4 8C2.4 4.913 4.913 2.4 8 2.4C11.087 2.4 13.6 4.913 13.6 8C13.6 11.087 11.087 13.6 8 13.6ZM10.716 5.403L6.6 9.519L5.284 8.203C5.011 7.93 4.57 7.93 4.297 8.203C4.024 8.476 4.024 8.917 4.297 9.19L6.11 11.003C6.383 11.276 6.824 11.276 7.097 11.003L11.71 6.39C11.983 6.117 11.983 5.676 11.71 5.403C11.437 5.13 10.989 5.13 10.716 5.403Z" />
</svg>
