<svg width="16" height="16" viewBox="0 0 16 16"  xmlns="http://www.w3.org/2000/svg">
<path fill-rule="evenodd" clip-rule="evenodd" d="M9.80138 2.5403C9.89832 2.57288 9.98796 2.62444 10.0652 2.69203C10.1424 2.75962 10.2057 2.84191 10.2514 2.93421C10.2971 3.0265 10.3244 3.127 10.3316 3.22994C10.3389 3.33289 10.326 3.43627 10.2937 3.53419L7.18254 12.9624C7.11735 13.1602 6.97707 13.3237 6.79255 13.4169C6.60803 13.5102 6.39439 13.5256 6.19862 13.4598C6.00286 13.3939 5.84101 13.2522 5.74868 13.0658C5.65634 12.8794 5.64109 12.6636 5.70628 12.4659L8.81746 3.03764C8.84972 2.93971 8.90076 2.84916 8.96767 2.77116C9.03458 2.69316 9.11605 2.62924 9.20742 2.58306C9.29879 2.53687 9.39827 2.50933 9.50019 2.50199C9.6021 2.49465 9.70444 2.50767 9.80138 2.5403ZM4.66092 5.08749C4.80674 5.23483 4.88865 5.43463 4.88865 5.64297C4.88865 5.8513 4.80674 6.05111 4.66092 6.19845L2.87743 8.00002L4.66092 9.8016C4.73521 9.87408 4.79446 9.96077 4.83523 10.0566C4.87599 10.1525 4.89745 10.2556 4.89834 10.3599C4.89924 10.4642 4.87956 10.5677 4.84045 10.6642C4.80134 10.7608 4.74359 10.8485 4.67056 10.9223C4.59753 10.9961 4.51069 11.0544 4.4151 11.0939C4.31951 11.1334 4.21709 11.1533 4.11382 11.1524C4.01054 11.1515 3.90848 11.1298 3.81359 11.0886C3.71869 11.0475 3.63287 10.9876 3.56112 10.9126L1.22773 8.5555C1.08191 8.40817 1 8.20836 1 8.00002C1 7.79169 1.08191 7.59188 1.22773 7.44454L3.56112 5.08749C3.70698 4.9402 3.90478 4.85745 4.11102 4.85745C4.31726 4.85745 4.51506 4.9402 4.66092 5.08749ZM11.3391 5.08749C11.4849 4.9402 11.6827 4.85745 11.889 4.85745C12.0952 4.85745 12.293 4.9402 12.4389 5.08749L14.7723 7.44454C14.9181 7.59188 15 7.79169 15 8.00002C15 8.20836 14.9181 8.40817 14.7723 8.5555L12.4389 10.9126C12.3671 10.9876 12.2813 11.0475 12.1864 11.0886C12.0915 11.1298 11.9895 11.1515 11.8862 11.1524C11.7829 11.1533 11.6805 11.1334 11.5849 11.0939C11.4893 11.0544 11.4025 10.9961 11.3294 10.9223C11.2564 10.8485 11.1987 10.7608 11.1595 10.6642C11.1204 10.5677 11.1008 10.4642 11.1017 10.3599C11.1026 10.2556 11.124 10.1525 11.1648 10.0566C11.2055 9.96077 11.2648 9.87408 11.3391 9.8016L13.1226 8.00002L11.3391 6.19845C11.1933 6.05111 11.1114 5.8513 11.1114 5.64297C11.1114 5.43463 11.1933 5.23483 11.3391 5.08749Z" />
</svg>
