<svg width="16" height="16" viewBox="0 0 16 16"  xmlns="http://www.w3.org/2000/svg">
<path d="M14.418 5.93258H13.7171C13.6471 5.75281 13.577 5.57303 13.4969 5.40325L13.9975 4.90387C14.6083 4.29463 14.6083 3.29588 13.9975 2.68664L13.3166 2.00749C12.7059 1.38826 11.6946 1.39825 11.0839 2.00749L10.5932 2.49688C10.423 2.41698 10.2328 2.33708 10.0526 2.27715V1.56804C10.0526 0.699126 9.34168 0 8.4806 0H7.50939C6.6383 0 5.93742 0.709114 5.93742 1.56804V2.27715C5.74718 2.34707 5.56696 2.41698 5.39675 2.49688L4.90613 2.00749C4.29537 1.39825 3.29412 1.39825 2.68335 2.00749L2.0025 2.68664C1.39174 3.29588 1.39174 4.29463 2.0025 4.90387L2.50313 5.40325C2.42303 5.57303 2.34293 5.75281 2.28285 5.94257H1.57196C0.700876 5.94257 0 6.65169 0 7.51061V8.4794C0 9.34831 0.710889 10.0474 1.57196 10.0474H2.28285C2.35294 10.2372 2.42303 10.417 2.50313 10.5868L2.0025 11.0861C1.38173 11.6954 1.38173 12.7041 2.0025 13.3134L2.68335 14.0025C3.29412 14.6117 4.29537 14.6117 4.90613 14.0025L5.40676 13.5031C5.57697 13.583 5.7572 13.6529 5.93742 13.7228V14.432C5.93742 15.3009 6.64831 16 7.50939 16H8.4806C9.35169 16 10.0526 15.2909 10.0526 14.432V13.7228C10.2328 13.6529 10.413 13.583 10.5832 13.5031L11.0839 14.0025C11.7046 14.6117 12.7059 14.6117 13.3166 14.0025L13.9975 13.3233C14.6183 12.7141 14.6183 11.7054 13.9975 11.0961L13.4969 10.5968C13.577 10.427 13.6471 10.2472 13.7171 10.0674H14.428C15.3091 10.0674 16 9.37828 16 8.49938V7.53059C16 6.66167 15.2891 5.96255 14.428 5.96255L14.418 5.93258ZM14.5582 8.46941C14.5582 8.5593 14.4981 8.60924 14.408 8.60924H13.4168C13.2265 8.53933 13.0263 8.5593 12.8461 8.65918C12.6758 8.74906 12.5457 8.91885 12.4956 9.10861C12.3755 9.57803 12.1952 9.9975 11.975 10.377C11.8648 10.5668 11.8048 10.7765 11.8849 10.9763C11.9549 11.176 12.0951 11.3258 12.2954 11.3958L12.9762 12.0749C13.0363 12.1348 13.0363 12.2347 12.9762 12.2846L12.2954 12.9638C12.2353 13.0237 12.1352 13.0237 12.0851 12.9638L11.3942 12.2747C11.3141 12.1049 11.174 11.965 10.9937 11.8951C10.7935 11.8252 10.5632 11.8452 10.373 11.9551C9.99249 12.1848 9.57197 12.3546 9.10138 12.4744C8.91114 12.5243 8.75094 12.6642 8.65081 12.834C8.5607 13.0037 8.54068 13.2235 8.60075 13.4132V14.382C8.60075 14.4719 8.52065 14.5218 8.45056 14.5218H7.47935C7.40926 14.5218 7.32916 14.4719 7.32916 14.382V13.3933C7.39925 13.2035 7.37922 13.0037 7.2791 12.824C7.18899 12.6542 7.01877 12.5243 6.82854 12.4744C6.35795 12.3546 5.92741 12.1748 5.55695 11.9551C5.44681 11.8851 5.31665 11.8552 5.18648 11.8552C5.10638 11.8552 5.01627 11.8652 4.93617 11.8951C4.75594 11.965 4.60576 12.0949 4.53567 12.2747L3.85482 12.9538C3.79474 13.0137 3.71464 13.0137 3.65457 12.9538L2.97372 12.2747C2.91364 12.2147 2.91364 12.1149 2.97372 12.0649L3.59449 11.4057C3.80476 11.3358 3.96496 11.176 4.04506 10.9663C4.12516 10.7566 4.09512 10.5268 3.97497 10.3471C3.74468 9.98751 3.56446 9.56804 3.44431 9.08864C3.39424 8.89888 3.25407 8.73908 3.08385 8.6392C2.91364 8.54931 2.69337 8.52934 2.50313 8.58926H1.53191C1.46183 8.58926 1.39174 8.53933 1.39174 8.44944V7.48065C1.39174 7.40075 1.46183 7.34082 1.53191 7.34082H2.53317C2.7234 7.41074 2.92365 7.39076 3.10388 7.29089C3.27409 7.201 3.40426 7.03121 3.45432 6.84145C3.57447 6.37203 3.75469 5.94257 3.98498 5.58302C4.10513 5.39326 4.16521 5.18352 4.08511 4.97378C4.00501 4.76404 3.87484 4.61423 3.67459 4.54432L2.99374 3.86517C2.93367 3.80524 2.93367 3.72534 2.99374 3.66542L3.67459 2.98627C3.73467 2.92634 3.81477 2.92634 3.87484 2.98627L4.57572 3.68539C4.66583 3.86517 4.82603 3.99501 5.01627 4.05493C5.20651 4.11486 5.41677 4.08489 5.58698 3.97503C5.95745 3.74532 6.38798 3.57553 6.85857 3.45568C7.04881 3.40574 7.20901 3.26592 7.30914 3.09613C7.39925 2.92634 7.41927 2.70662 7.3592 2.51685V1.54806C7.3592 1.46816 7.42929 1.40824 7.50939 1.40824H8.4806C8.5607 1.40824 8.63079 1.47815 8.63079 1.54806V2.53683C8.5607 2.72659 8.58073 2.92634 8.68085 3.10612C8.77096 3.2759 8.94118 3.40574 9.13141 3.45568C9.602 3.57553 10.0325 3.75531 10.403 3.97503C10.5732 4.07491 10.7835 4.09488 10.9837 4.04494C11.174 3.98502 11.3442 3.84519 11.4343 3.66542L12.1151 2.98627C12.1752 2.92634 12.2753 2.92634 12.3254 2.98627L13.0063 3.66542C13.0663 3.72534 13.0663 3.80524 13.0063 3.86517L12.3855 4.52434C12.1752 4.59426 12.015 4.75406 11.9449 4.95381C11.8748 5.15356 11.8949 5.38327 12.005 5.56305C12.2353 5.93258 12.4055 6.36205 12.5257 6.83146C12.5757 7.02122 12.7159 7.18102 12.8861 7.2809C13.0563 7.38077 13.2766 7.39076 13.4668 7.33084H14.438C14.5282 7.33084 14.5882 7.40075 14.5882 7.47066V8.43945L14.5582 8.46941Z" />
<path d="M7.97997 5.47316C6.58824 5.47316 5.45682 6.60175 5.45682 7.99001C5.45682 9.37828 6.58824 10.5069 7.97997 10.5069C9.37171 10.5069 10.5131 9.37828 10.5131 7.99001C10.5131 6.60175 9.38173 5.47316 7.97997 5.47316ZM7.97997 9.08864C7.37922 9.08864 6.8786 8.59925 6.8786 7.99001C6.8786 7.38077 7.36921 6.89139 7.97997 6.89139C8.59074 6.89139 9.08135 7.38077 9.08135 7.99001C9.08135 8.59925 8.59074 9.08864 7.97997 9.08864Z" />
</svg>
