<svg width="16" height="16" viewBox="0 0 16 16"  xmlns="http://www.w3.org/2000/svg">
<path d="M13.6 3.21053C13.6 3.01511 13.5262 2.82774 13.3949 2.68956C13.28 2.56861 13.1293 2.494 12.969 2.47728L12.9 2.47369H3.1C2.91435 2.47369 2.73635 2.55137 2.60508 2.68956C2.4738 2.82774 2.4 3.01511 2.4 3.21053V9.10528C2.4 9.3007 2.4738 9.48806 2.60508 9.62625C2.73635 9.76443 2.91435 9.84212 3.1 9.84212H5.9C6.2866 9.84212 6.6 10.172 6.6 10.579V12.4844L8.90508 10.058L8.95635 10.0091C9.08092 9.9016 9.23753 9.84212 9.4 9.84212H12.9C13.0857 9.84212 13.2636 9.76443 13.3949 9.62625C13.5262 9.48806 13.6 9.3007 13.6 9.10528V3.21053ZM5.20684 5.42106C5.59344 5.42106 5.90684 5.75096 5.90684 6.1579C5.90684 6.56485 5.59344 6.89475 5.20684 6.89475H5.2C4.8134 6.89475 4.5 6.56485 4.5 6.1579C4.5 5.75096 4.8134 5.42106 5.2 5.42106H5.20684ZM8.00684 5.42106L8.07861 5.42466C8.43158 5.4624 8.70684 5.7764 8.70684 6.1579C8.70684 6.53941 8.43158 6.8534 8.07861 6.89115L8.00684 6.89475H8C7.6134 6.89475 7.3 6.56485 7.3 6.1579C7.3 5.75096 7.6134 5.42106 8 5.42106H8.00684ZM10.8068 5.42106L10.8786 5.42466C11.2316 5.4624 11.5068 5.7764 11.5068 6.1579C11.5068 6.53941 11.2316 6.8534 10.8786 6.89115L10.8068 6.89475H10.8C10.4134 6.89475 10.1 6.56485 10.1 6.1579C10.1 5.75096 10.4134 5.42106 10.8 5.42106H10.8068ZM15 9.10528C15 9.69154 14.7786 10.2536 14.3848 10.6682C13.9909 11.0827 13.457 11.3158 12.9 11.3158H9.68984L6.39492 14.7841C6.19472 14.9949 5.8936 15.0579 5.63203 14.9439C5.37051 14.8298 5.2 14.5612 5.2 14.2632V11.3158H3.1C2.54305 11.3158 2.00906 11.0827 1.61523 10.6682C1.22141 10.2536 1 9.69154 1 9.10528V3.21053C1 2.62426 1.22141 2.06217 1.61523 1.64762C2.00906 1.23306 2.54305 1 3.1 1H12.9C13.457 1 13.9909 1.23306 14.3848 1.64762C14.7786 2.06217 15 2.62426 15 3.21053V9.10528Z" />
</svg>
