<svg width="16" height="16" viewBox="0 0 16 16"  xmlns="http://www.w3.org/2000/svg">
<path d="M14.4 3.33334C14.4 3.12706 14.3157 2.92929 14.1656 2.78343C14.0343 2.65576 13.8621 2.57701 13.6789 2.55936L13.6 2.55556H2.4C2.18783 2.55556 1.9844 2.63757 1.83438 2.78343C1.68435 2.92929 1.6 3.12706 1.6 3.33334V9.55559C1.6 9.76187 1.68435 9.95965 1.83438 10.1055C1.9844 10.2514 2.18783 10.3334 2.4 10.3334H4.8C5.01217 10.3334 5.2156 10.4154 5.36562 10.5612L8 13.1224L10.6344 10.5612L10.693 10.5096C10.8353 10.3962 11.0143 10.3334 11.2 10.3334H13.6C13.8122 10.3334 14.0156 10.2514 14.1656 10.1055C14.3157 9.95964 14.4 9.76187 14.4 9.55559V3.33334ZM7.2 7.22225C7.64183 7.22225 8 7.57047 8 8.00003C8 8.42959 7.64183 8.77781 7.2 8.77781H4C3.55817 8.77781 3.2 8.42959 3.2 8.00003C3.2 7.57047 3.55817 7.22225 4 7.22225H7.2ZM12 4.11112C12.4418 4.11112 12.8 4.45935 12.8 4.88891C12.8 5.31846 12.4418 5.66669 12 5.66669H4C3.55817 5.66669 3.2 5.31846 3.2 4.88891C3.2 4.45935 3.55817 4.11112 4 4.11112H12ZM16 9.55559C16 10.1744 15.747 10.7678 15.2969 11.2053C14.8468 11.6429 14.2365 11.8889 13.6 11.8889H11.5312L8.56563 14.7722C8.25321 15.0759 7.74679 15.0759 7.43438 14.7722L4.46875 11.8889H2.4C1.76348 11.8889 1.15321 11.6429 0.703125 11.2053C0.253038 10.7678 0 10.1744 0 9.55559V3.33334C0 2.7145 0.253038 2.12118 0.703125 1.6836C1.15321 1.24601 1.76348 1 2.4 1H13.6C14.2365 1 14.8468 1.24601 15.2969 1.6836C15.747 2.12118 16 2.7145 16 3.33334V9.55559Z" />
</svg>
