<svg width="16" height="16" viewBox="0 0 16 16"  xmlns="http://www.w3.org/2000/svg">
<path d="M12.875 4C12.875 3.78783 12.7893 3.5844 12.637 3.43438C12.5036 3.30306 12.3287 3.22206 12.1426 3.20391L12.0625 3.2H11.1072C10.9871 3.53391 10.7951 3.84162 10.5359 4.09688C10.136 4.49063 9.6116 4.73367 9.05371 4.78828L8.8125 4.8H7.1875C6.54103 4.8 5.92123 4.54696 5.46411 4.09688C5.20487 3.84162 5.01291 3.53391 4.89282 3.2H3.9375C3.72201 3.2 3.51541 3.28435 3.36304 3.43438C3.21066 3.5844 3.125 3.78783 3.125 4V13.6L3.12897 13.6789C3.1474 13.8621 3.22967 14.0343 3.36304 14.1656C3.51541 14.3157 3.72201 14.4 3.9375 14.4H12.0625C12.278 14.4 12.4846 14.3157 12.637 14.1656C12.7893 14.0156 12.875 13.8122 12.875 13.6V4ZM9.86304 7.43438C10.1803 7.12196 10.6947 7.12196 11.012 7.43438C11.3293 7.74679 11.3293 8.25321 11.012 8.56563L7.76196 11.7656C7.44466 12.078 6.93034 12.078 6.61304 11.7656L4.98804 10.1656L4.9325 10.1047C4.67221 9.79047 4.69057 9.32727 4.98804 9.03438C5.28551 8.74148 5.75594 8.72341 6.07507 8.97969L6.13696 9.03438L7.1875 10.0688L9.86304 7.43438ZM7.10736 1.60391C6.9213 1.62206 6.7464 1.70306 6.61304 1.83438C6.46066 1.9844 6.375 2.18783 6.375 2.4C6.375 2.61217 6.46066 2.8156 6.61304 2.96563C6.76541 3.11565 6.97201 3.2 7.1875 3.2H8.8125L8.89264 3.19609C9.0787 3.17794 9.2536 3.09694 9.38696 2.96563C9.53934 2.8156 9.625 2.61217 9.625 2.4C9.625 2.18783 9.53934 1.9844 9.38696 1.83438C9.2536 1.70306 9.0787 1.62206 8.89264 1.60391L8.8125 1.6H7.1875L7.10736 1.60391ZM14.5 13.6C14.5 14.2365 14.243 14.8468 13.7859 15.2969C13.3288 15.747 12.709 16 12.0625 16H3.9375C3.29103 16 2.67123 15.747 2.21411 15.2969C1.75699 14.8468 1.5 14.2365 1.5 13.6V4C1.5 3.36348 1.75699 2.75321 2.21411 2.30313C2.67123 1.85304 3.29103 1.6 3.9375 1.6H4.89282C5.01291 1.26609 5.20487 0.958379 5.46411 0.703125C5.92123 0.253038 6.54103 0 7.1875 0H8.8125C9.45897 0 10.0788 0.253038 10.5359 0.703125C10.7951 0.958379 10.9871 1.26609 11.1072 1.6H12.0625L12.3037 1.61172C12.8616 1.66633 13.386 1.90937 13.7859 2.30313C14.243 2.75321 14.5 3.36348 14.5 4V13.6Z" />
</svg>
