<svg width="16" height="16" viewBox="0 0 16 16"  xmlns="http://www.w3.org/2000/svg">
<path d="M3.75327 7.00926C3.86891 7.40884 4.14223 7.74847 4.52067 7.94826C4.77297 8.08811 5.04629 8.14805 5.33012 8.14805C5.47729 8.14805 5.62446 8.12807 5.76112 8.08811L9.924 7.00926C10.3445 6.89938 10.6914 6.63966 10.9122 6.28004C11.1329 5.92043 11.1855 5.50088 11.0698 5.1013L9.93451 1.14553C9.69273 0.316421 8.79918 -0.173055 7.92666 0.056699L3.76378 1.13555C2.89126 1.3653 2.37616 2.21439 2.61794 3.04351L3.75327 6.99928V7.00926ZM4.15274 2.51407L8.31562 1.43522C8.31562 1.43522 8.33664 1.43522 8.35767 1.43522C8.42074 1.43522 8.4733 1.47518 8.49433 1.53512L9.62966 5.49089C9.65068 5.55082 9.59812 5.64073 9.52454 5.66071L5.36166 6.73955C5.28807 6.75953 5.20397 6.71957 5.18295 6.63966L4.04762 2.68389C4.02659 2.61396 4.06864 2.53405 4.15274 2.51407Z" />
<path d="M1.63992 8.77772C0.735862 8.77772 0 9.47698 0 10.3361V14.4417C0 15.3007 0.735862 16 1.63992 16H5.96049C6.86455 16 7.60041 15.3007 7.60041 14.4417V10.3361C7.60041 9.47698 6.86455 8.77772 5.96049 8.77772H1.63992ZM6.09715 14.4317C6.09715 14.5016 6.03407 14.5715 5.94997 14.5715H1.63992C1.56634 14.5715 1.49275 14.5116 1.49275 14.4317V10.3261C1.49275 10.2561 1.55582 10.1862 1.63992 10.1862H5.96049C6.03407 10.1862 6.10766 10.2462 6.10766 10.3261V14.4317H6.09715Z" />
<path d="M14.3601 8.77772H10.0395C9.13545 8.77772 8.39959 9.47698 8.39959 10.3361V14.4417C8.39959 15.3007 9.13545 16 10.0395 16H14.3601C15.2641 16 16 15.3007 16 14.4417V10.3361C16 9.47698 15.2641 8.77772 14.3601 8.77772ZM14.4967 14.4317C14.4967 14.5016 14.4337 14.5715 14.3496 14.5715H10.029C9.95541 14.5715 9.88183 14.5116 9.88183 14.4317V10.3261C9.88183 10.2561 9.9449 10.1862 10.029 10.1862H14.3496C14.4232 10.1862 14.4967 10.2462 14.4967 10.3261V14.4317Z" />
</svg>
