<svg width="16" height="16" viewBox="0 0 16 16"  xmlns="http://www.w3.org/2000/svg">
<path d="M15.2856 3.28505L12.2781 0.218606C12.1408 0.0786184 11.9547 0 11.7605 0H4.88304C3.70432 0 2.7452 0.977588 2.7452 2.17942V5.84761H1.67124C1.02413 5.84761 0.5 6.38202 0.5 7.04182V11.9142C0.5 12.574 1.02413 13.1084 1.67124 13.1084H2.7452V13.8206C2.7452 15.0224 3.70432 16 4.88304 16H13.3625C14.5412 16 15.5 15.0224 15.5 13.8206V3.81283C15.5 3.61479 15.4229 3.42504 15.2856 3.28505ZM4.20925 2.17942C4.20925 1.80092 4.5115 1.49275 4.88304 1.49275H10.7903V3.36865C10.7903 4.16014 11.4195 4.80202 12.1961 4.80202H14.0359V5.84828C14.0226 5.84795 14.0093 5.84761 13.9956 5.84761H4.20925V2.17942ZM13.5294 7.59016L12.227 11.3867H10.9406L9.66527 7.59016H10.8274L11.2865 9.22091C11.4325 9.72811 11.5136 10.0807 11.6001 10.505H11.6164C11.6866 10.1083 11.7839 9.75564 11.9404 9.23219L12.4105 7.59016H13.5294ZM7.70377 9.88236C6.60639 9.61234 6.38515 9.20465 6.38515 8.69214C6.38515 8.05291 6.84421 7.5185 7.88206 7.5185C8.91991 7.5185 9.40044 8.08044 9.44925 8.67555H8.39546C8.36845 8.47154 8.26564 8.26787 7.87653 8.26787C7.62797 8.26787 7.47668 8.36141 7.47668 8.56542C7.47668 8.76943 7.6117 8.85203 8.18463 8.995C9.33017 9.28725 9.56279 9.71153 9.56279 10.2516C9.56279 10.9625 9.02207 11.458 7.93054 11.458C6.89855 11.458 6.35262 10.9678 6.27161 10.235H7.3306C7.39567 10.5657 7.62244 10.7087 7.97381 10.7087C8.30338 10.7087 8.45467 10.5876 8.45467 10.3673C8.45467 10.1192 8.29265 10.0257 7.70377 9.88236ZM2.38602 9.51846C2.38602 9.03879 2.50217 8.58864 2.7452 8.23735C3.04061 7.81042 3.52245 7.52978 4.20925 7.51884C4.22292 7.5185 4.23658 7.5185 4.25057 7.5185C5.3421 7.5185 5.83923 8.16868 5.91503 8.8245H4.83424C4.78023 8.55447 4.62862 8.30071 4.22357 8.30071C4.21869 8.30071 4.21413 8.30071 4.20925 8.30104C3.69065 8.31 3.51009 8.81919 3.51009 9.47998C3.51009 10.0718 3.65682 10.6583 4.20925 10.6755C4.21771 10.6758 4.22584 10.6758 4.2343 10.6758C4.67189 10.6758 4.79097 10.3508 4.83944 10.1358H5.92577C5.78587 10.926 5.2227 11.4537 4.20925 11.458H4.19656C3.52277 11.458 3.04126 11.2033 2.7452 10.7896C2.50445 10.4536 2.38602 10.0124 2.38602 9.51846ZM14.0359 13.8206C14.0359 14.1991 13.734 14.5072 13.3625 14.5072H4.88304C4.5115 14.5072 4.20925 14.1991 4.20925 13.8206V13.1084H13.9956C14.0093 13.1084 14.0226 13.108 14.0359 13.1077V13.8206Z" />
</svg>
