<svg width="16" height="16" viewBox="0 0 16 16"  xmlns="http://www.w3.org/2000/svg">
<path d="M5.33333 11.5556C5.33333 11.3198 5.23962 11.0938 5.07292 10.9271C4.90622 10.7604 4.68019 10.6667 4.44444 10.6667H2.66667C2.43092 10.6667 2.20489 10.7604 2.03819 10.9271C1.8715 11.0938 1.77778 11.3198 1.77778 11.5556V13.3333C1.77778 13.5691 1.8715 13.7951 2.03819 13.9618C2.20489 14.1285 2.43092 14.2222 2.66667 14.2222H4.44444C4.68019 14.2222 4.90622 14.1285 5.07292 13.9618C5.23962 13.7951 5.33333 13.5691 5.33333 13.3333V11.5556ZM14.2222 11.5556C14.2222 11.3198 14.1285 11.0938 13.9618 10.9271C13.7951 10.7604 13.5691 10.6667 13.3333 10.6667H11.5556C11.3198 10.6667 11.0938 10.7604 10.9271 10.9271C10.7604 11.0938 10.6667 11.3198 10.6667 11.5556V13.3333C10.6667 13.5691 10.7604 13.7951 10.9271 13.9618C11.0938 14.1285 11.3198 14.2222 11.5556 14.2222H13.3333C13.5691 14.2222 13.7951 14.1285 13.9618 13.9618C14.1285 13.7951 14.2222 13.5691 14.2222 13.3333V11.5556ZM5.33333 2.66667C5.33333 2.43092 5.23962 2.20489 5.07292 2.03819C4.90622 1.8715 4.68019 1.77778 4.44444 1.77778H2.66667C2.43092 1.77778 2.20489 1.8715 2.03819 2.03819C1.8715 2.20489 1.77778 2.43092 1.77778 2.66667V4.44444C1.77778 4.68019 1.8715 4.90622 2.03819 5.07292C2.20489 5.23962 2.43092 5.33333 2.66667 5.33333H4.44444C4.68019 5.33333 4.90622 5.23962 5.07292 5.07292C5.23962 4.90622 5.33333 4.68019 5.33333 4.44444V2.66667ZM14.2222 2.66667C14.2222 2.43092 14.1285 2.20489 13.9618 2.03819C13.7951 1.8715 13.5691 1.77778 13.3333 1.77778H11.5556C11.3198 1.77778 11.0938 1.8715 10.9271 2.03819C10.7604 2.20489 10.6667 2.43092 10.6667 2.66667V4.44444C10.6667 4.68019 10.7604 4.90622 10.9271 5.07292C11.0938 5.23962 11.3198 5.33333 11.5556 5.33333H13.3333C13.5691 5.33333 13.7951 5.23962 13.9618 5.07292C14.1285 4.90622 14.2222 4.68019 14.2222 4.44444V2.66667ZM7.11111 13.3333C7.11111 14.0406 6.82996 14.7187 6.32986 15.2188C5.82976 15.7188 5.15169 16 4.44444 16H2.66667C1.95942 16 1.28135 15.7188 0.78125 15.2188C0.281153 14.7187 0 14.0406 0 13.3333V11.5556C0 10.8483 0.281153 10.1702 0.78125 9.67014C1.28135 9.17004 1.95942 8.88889 2.66667 8.88889H4.44444C5.15169 8.88889 5.82976 9.17004 6.32986 9.67014C6.82996 10.1702 7.11111 10.8483 7.11111 11.5556V13.3333ZM16 13.3333C16 14.0406 15.7188 14.7187 15.2188 15.2188C14.7187 15.7188 14.0406 16 13.3333 16H11.5556C10.8483 16 10.1702 15.7188 9.67014 15.2188C9.17004 14.7187 8.88889 14.0406 8.88889 13.3333V11.5556C8.88889 10.8483 9.17004 10.1702 9.67014 9.67014C10.1702 9.17004 10.8483 8.88889 11.5556 8.88889H13.3333C14.0406 8.88889 14.7187 9.17004 15.2188 9.67014C15.7188 10.1702 16 10.8483 16 11.5556V13.3333ZM7.11111 4.44444C7.11111 5.15169 6.82996 5.82976 6.32986 6.32986C5.82976 6.82996 5.15169 7.11111 4.44444 7.11111H2.66667C1.95942 7.11111 1.28135 6.82996 0.78125 6.32986C0.281153 5.82976 0 5.15169 0 4.44444V2.66667C0 1.95942 0.281153 1.28135 0.78125 0.78125C1.28135 0.281153 1.95942 0 2.66667 0H4.44444C5.15169 0 5.82976 0.281153 6.32986 0.78125C6.82996 1.28135 7.11111 1.95942 7.11111 2.66667V4.44444ZM16 4.44444C16 5.15169 15.7188 5.82976 15.2188 6.32986C14.7187 6.82996 14.0406 7.11111 13.3333 7.11111H11.5556C10.8483 7.11111 10.1702 6.82996 9.67014 6.32986C9.17004 5.82976 8.88889 5.15169 8.88889 4.44444V2.66667C8.88889 1.95942 9.17004 1.28135 9.67014 0.78125C10.1702 0.281153 10.8483 0 11.5556 0H13.3333C14.0406 0 14.7187 0.281153 15.2188 0.78125C15.7188 1.28135 16 1.95942 16 2.66667V4.44444Z" />
</svg>
