<svg width="16" height="16" viewBox="0 0 16 16"  xmlns="http://www.w3.org/2000/svg">
<path d="M13.6 3.12027C13.5999 2.82246 13.4893 2.53688 13.2924 2.32629C13.0954 2.11572 12.8285 1.99729 12.55 1.99729C12.3062 1.99729 12.0711 2.08786 11.8842 2.25172L11.8076 2.32629L11.2525 2.91994L12.7373 4.5079L13.2924 3.91497C13.4893 3.70433 13.6 3.41816 13.6 3.12027ZM2.4 12.3877V14.0027H3.86016L11.7475 5.56726L10.262 3.97858L2.4 12.3877ZM15 3.12027C15 3.81521 14.7423 4.48218 14.2829 4.97361L4.64492 15.2807C4.51365 15.4211 4.33565 15.5 4.15 15.5H1.7C1.3134 15.5 1 15.1648 1 14.7514V12.077C1.00009 11.8786 1.07388 11.688 1.20508 11.5477L10.8171 1.26766L10.9053 1.17773C11.3547 0.742453 11.9408 0.5 12.55 0.5C13.1998 0.5 13.8234 0.776215 14.2829 1.26766C14.7422 1.75902 14.9999 2.42547 15 3.12027Z" />
</svg>
