<svg width="16" height="16" viewBox="0 0 16 16"  xmlns="http://www.w3.org/2000/svg">
<path d="M6.70482 7.44994H2.19482C1.78482 7.44994 1.44482 7.10994 1.44482 6.69994V2.18994C1.44482 1.77994 1.78482 1.43994 2.19482 1.43994H6.70482C7.11482 1.43994 7.45482 1.77994 7.45482 2.18994V6.69994C7.45482 7.10994 7.11482 7.44994 6.70482 7.44994ZM2.94482 5.94994H5.95482V2.93994H2.94482V5.94994Z" />
<path d="M13.8048 7.44994H9.30482C8.89482 7.44994 8.55482 7.10994 8.55482 6.69994V2.18994C8.55482 1.77994 8.89482 1.43994 9.30482 1.43994H13.8048C14.2148 1.43994 14.5548 1.77994 14.5548 2.18994V6.69994C14.5548 7.10994 14.2148 7.44994 13.8048 7.44994ZM10.0548 5.94994H13.0548V2.93994H10.0548V5.94994Z" />
<path d="M13.8048 14.5599H9.30482C8.89482 14.5599 8.55482 14.2199 8.55482 13.8099V9.29994C8.55482 8.88994 8.89482 8.54994 9.30482 8.54994H13.8048C14.2148 8.54994 14.5548 8.88994 14.5548 9.29994V13.8099C14.5548 14.2199 14.2148 14.5599 13.8048 14.5599ZM10.0548 13.0599H13.0548V10.0499H10.0548V13.0599Z" />
<path d="M6.70482 14.5599H2.19482C1.78482 14.5599 1.44482 14.2199 1.44482 13.8099V9.29994C1.44482 8.88994 1.78482 8.54994 2.19482 8.54994H6.70482C7.11482 8.54994 7.45482 8.88994 7.45482 9.29994V13.8099C7.45482 14.2199 7.11482 14.5599 6.70482 14.5599ZM2.94482 13.0599H5.95482V10.0499H2.94482V13.0599Z" />
</svg>
