<svg width="16" height="16" viewBox="0 0 16 16"  xmlns="http://www.w3.org/2000/svg">
<path d="M13.4444 9.8776L12.4388 8.87196C12.293 8.72617 12.0951 8.6441 11.8889 8.6441C11.7084 8.6441 11.5343 8.70694 11.3959 8.82031L11.339 8.87196L10.6554 9.55556L11.661 10.5612L11.7142 10.6204C11.9634 10.9259 11.9458 11.3763 11.661 11.661C11.3763 11.9458 10.9259 11.9634 10.6204 11.7142L10.5612 11.661L6.99436 8.09418C6.84851 7.94839 6.65067 7.86632 6.44444 7.86632C6.26398 7.86632 6.08989 7.92917 5.9515 8.04253L5.89453 8.09418L2.55556 11.4332V12.6667L2.55935 12.7434C2.577 12.9215 2.65575 13.0889 2.78342 13.2166C2.92928 13.3624 3.12705 13.4444 3.33333 13.4444H12.6667C12.8729 13.4444 13.0707 13.3624 13.2166 13.2166C13.3624 13.0707 13.4444 12.8729 13.4444 12.6667V9.8776ZM9.56315 4.11111C9.99271 4.11111 10.3409 4.45933 10.3409 4.88889C10.3409 5.31844 9.99271 5.66667 9.56315 5.66667H9.55556C9.126 5.66667 8.77778 5.31844 8.77778 4.88889C8.77778 4.45933 9.126 4.11111 9.55556 4.11111H9.56315ZM13.4444 3.33333C13.4444 3.12705 13.3624 2.92928 13.2166 2.78342C13.0889 2.65575 12.9215 2.577 12.7434 2.55935L12.6667 2.55556H3.33333C3.12705 2.55556 2.92928 2.63756 2.78342 2.78342C2.63756 2.92928 2.55556 3.12705 2.55556 3.33333V9.23351L4.7947 6.99436L4.9656 6.83941C5.38082 6.49918 5.90295 6.31076 6.44444 6.31076C7.06316 6.31076 7.65662 6.55692 8.09418 6.99436L9.55556 8.45573L10.2391 7.77214L10.41 7.61719C10.8253 7.27696 11.3474 7.08854 11.8889 7.08854C12.4651 7.08854 13.0176 7.30374 13.4444 7.68631V3.33333ZM15 12.6667C15 13.2855 14.754 13.8788 14.3164 14.3164C13.8788 14.754 13.2855 15 12.6667 15H3.33333C2.71449 15 2.12118 14.754 1.68359 14.3164C1.30077 13.9336 1.06448 13.4316 1.01139 12.8976L1 12.6667V3.33333C1 2.71449 1.24601 2.12118 1.68359 1.68359C2.12118 1.24601 2.71449 1 3.33333 1H12.6667L12.8976 1.01139C13.4316 1.06448 13.9336 1.30077 14.3164 1.68359C14.754 2.12118 15 2.71449 15 3.33333V12.6667Z" />
</svg>
