<svg width="16" height="16" viewBox="0 0 16 16"  xmlns="http://www.w3.org/2000/svg">
<path d="M15.99 5.91379C15.99 5.36379 15.7 4.85379 15.23 4.63379L8.7 1.48379C8.25 1.27379 7.74 1.27379 7.29 1.48379L0.75 4.63379C0.29 4.85379 0 5.35379 0 5.91379C0 6.47379 0.29 6.96379 0.75 7.18379L2.34 7.94379V11.6138C2.34 11.9238 2.5 12.2038 2.77 12.3238L7.32 14.5238C7.53 14.6138 7.77 14.6738 8 14.6738C8.23 14.6738 8.48 14.6238 8.7 14.5138L12.91 12.4838C12.91 12.4838 12.95 12.4738 12.97 12.4638L13.23 12.3338C13.5 12.2038 13.66 11.9238 13.66 11.6138V7.94379L14.55 7.51379V11.4738C14.55 11.6038 14.66 11.7038 14.79 11.7038C14.82 11.7038 14.86 11.6938 14.88 11.6838L15.62 11.3338C15.85 11.2238 16 10.9938 16 10.7338V5.93379L15.99 5.91379ZM12.23 11.0938L8.14 13.0638C8.05 13.1038 7.93 13.1038 7.87 13.0738L3.76 11.0938V8.62379L7.3 10.3238C7.52 10.4238 7.76 10.4838 7.99 10.4838C8.22 10.4838 8.47 10.4338 8.69 10.3238L12.22 8.62379V11.0938H12.23ZM13.66 6.23379L8.14 8.89379C8.05 8.93379 7.96 8.93379 7.88 8.89379L2.35 6.23379L1.67 5.91379L2.43 5.54379L3.26 5.14379L7.87 2.92379C7.95 2.88379 8.04 2.88379 8.13 2.92379L12.74 5.15379L13.56 5.55379L14.32 5.92379L13.65 6.24379L13.66 6.23379Z" />
</svg>
