<svg width="16" height="16" viewBox="0 0 16 16"  xmlns="http://www.w3.org/2000/svg">
<path d="M13.8048 13.415H2.19482C1.78482 13.415 1.44482 13.075 1.44482 12.665V9.30496C1.44482 8.89496 1.78482 8.55496 2.19482 8.55496H13.8048C14.2148 8.55496 14.5548 8.89496 14.5548 9.30496V12.665C14.5548 13.075 14.2148 13.415 13.8048 13.415ZM2.94482 11.915H13.0548V10.055H2.94482V11.915Z" />
<path d="M13.8048 7.44496H2.19482C1.78482 7.44496 1.44482 7.10496 1.44482 6.69496V3.33496C1.44482 2.92496 1.78482 2.58496 2.19482 2.58496H13.8048C14.2148 2.58496 14.5548 2.92496 14.5548 3.33496V6.69496C14.5548 7.10496 14.2148 7.44496 13.8048 7.44496ZM2.94482 5.94496H13.0548V4.08496H2.94482V5.94496Z" />
</svg>
