<svg width="16" height="16" viewBox="0 0 16 16"  xmlns="http://www.w3.org/2000/svg">
<path d="M6.80508 4.60048C7.07844 4.31843 7.52155 4.31843 7.79492 4.60048C8.06829 4.88252 8.06829 5.3397 7.79492 5.62174L6.18984 7.27778H14.3C14.6866 7.27778 15 7.60113 15 8C15 8.39887 14.6866 8.72222 14.3 8.72222H6.18984L7.79492 10.3783L7.84277 10.4333C8.06702 10.7169 8.0512 11.1351 7.79492 11.3995C7.53864 11.6639 7.13334 11.6803 6.8584 11.4489L6.80508 11.3995L4.00508 8.51063C3.73171 8.22859 3.73171 7.77141 4.00508 7.48937L6.80508 4.60048ZM10.1 5.11111V4.38889C10.1 4.0058 9.95239 3.63851 9.68984 3.36762C9.42729 3.09674 9.0713 2.94444 8.7 2.94444H3.8C3.4287 2.94444 3.07271 3.09674 2.81016 3.36762C2.54761 3.63851 2.4 4.0058 2.4 4.38889V11.6111L2.40684 11.7536C2.4386 12.0844 2.58036 12.3953 2.81016 12.6324C3.07271 12.9033 3.4287 13.0556 3.8 13.0556H8.7L8.83809 13.0485C9.15868 13.0157 9.46004 12.8695 9.68984 12.6324C9.95239 12.3615 10.1 11.9942 10.1 11.6111V10.8889C10.1 10.49 10.4134 10.1667 10.8 10.1667C11.1866 10.1667 11.5 10.49 11.5 10.8889V11.6111C11.5 12.3773 11.2048 13.1119 10.6797 13.6536C10.1874 14.1616 9.53085 14.4611 8.83877 14.4965L8.7 14.5H3.8C3.05739 14.5 2.34541 14.1954 1.82031 13.6536C1.32801 13.1457 1.03773 12.4683 1.00342 11.7543L1 11.6111V4.38889C1 3.62271 1.29521 2.88813 1.82031 2.34635C2.34541 1.80458 3.05739 1.5 3.8 1.5H8.7C9.44261 1.5 10.1546 1.80458 10.6797 2.34635C11.2048 2.88813 11.5 3.62271 11.5 4.38889V5.11111C11.5 5.50998 11.1866 5.83333 10.8 5.83333C10.4134 5.83333 10.1 5.50998 10.1 5.11111Z" />
</svg>
