<svg width="16" height="16" viewBox="0 0 16 16"  xmlns="http://www.w3.org/2000/svg">
<path d="M15.2856 3.28532L12.2781 0.218601C12.1408 0.0786168 11.9547 0 11.7605 0H4.88304C3.70432 0 2.7452 0.977899 2.7452 2.17971V5.84749H1.67124C1.02413 5.84749 0.5 6.38222 0.5 7.04167V11.9143C0.5 12.5737 1.02413 13.1084 1.67124 13.1084H2.7452V13.8203C2.7452 15.0221 3.70432 16 4.88304 16H13.3625C14.5412 16 15.5 15.0221 15.5 13.8203V3.81308C15.5 3.61504 15.4229 3.4253 15.2856 3.28532ZM4.20925 2.17971C4.20925 1.80089 4.5115 1.49272 4.88304 1.49272H10.7903V3.36891C10.7903 4.16038 11.4195 4.80226 12.1961 4.80226H14.036V5.84816C14.0226 5.84816 14.0093 5.84749 13.9956 5.84749H4.20925V2.17971ZM13.1077 9.15504V9.98134H11.5028V11.3865H10.4328V7.59H13.2158V8.41664H11.5028V9.15504H13.1077ZM9.82762 9.44695C9.82762 10.5436 9.16294 11.3865 7.9416 11.3865H6.35815V7.59H7.95787C9.14115 7.59 9.82762 8.35593 9.82762 9.44695ZM2.71039 11.3865V7.59H4.43406C5.27736 7.59 5.83923 8.06933 5.83923 8.80773C5.83923 9.6619 5.19635 10.053 4.41259 10.053H3.78565V11.3865H2.71039ZM14.036 13.8203C14.036 14.1991 13.734 14.5073 13.3625 14.5073H4.88304C4.5115 14.5073 4.20925 14.1991 4.20925 13.8203V13.1084H13.9956C14.0093 13.1084 14.0226 13.1081 14.036 13.1078V13.8203Z" />
<path d="M7.44973 8.39437V10.5817H7.87138C8.46057 10.5817 8.70361 10.1574 8.70361 9.44658C8.70361 8.81831 8.47652 8.39404 7.88211 8.39404L7.44973 8.39437Z" />
<path d="M4.23436 9.27085C4.54246 9.27085 4.75849 9.13849 4.75849 8.82436C4.75849 8.51022 4.53693 8.37256 4.23436 8.37256H3.78571V9.27085H4.23436Z" />
</svg>
