<svg width="16" height="16" viewBox="0 0 16 16"  xmlns="http://www.w3.org/2000/svg">
<path d="M12.8457 9.37819L11.5068 7.55148C11.3394 7.31499 11.2438 7.03772 11.2438 6.74414V2.58512C11.2438 2.27523 11.3474 1.9735 11.5466 1.737C11.6263 1.63914 11.6821 1.50866 11.6821 1.37003V0.587156C11.6821 0.260958 11.4271 0 11.1083 0H4.89171C4.57291 0 4.31787 0.260958 4.31787 0.587156V1.37003C4.31787 1.50866 4.36569 1.63914 4.45336 1.737C4.65261 1.9735 4.75622 2.27523 4.75622 2.58512V6.74414C4.75622 7.03772 4.66058 7.31499 4.49321 7.55148L3.14628 9.37819C2.78763 9.85933 3.13034 10.5525 3.72012 10.5525H4.74825H7.29067V15.2742C7.29067 15.6738 7.60947 16 8 16C8.39053 16 8.70933 15.6738 8.70933 15.2742V10.5525H11.2518H12.2799C12.8697 10.5525 13.2124 9.85933 12.8537 9.37819H12.8457Z" />
</svg>
