<svg width="16" height="16" viewBox="0 0 16 16"  xmlns="http://www.w3.org/2000/svg">
<path d="M12.8378 9.37819L11.4988 7.55148C11.3315 7.31499 11.2358 7.03772 11.2358 6.74414V2.58512C11.2358 2.27523 11.3394 1.9735 11.5387 1.737C11.6263 1.63914 11.6742 1.50866 11.6742 1.37003V0.587156C11.6742 0.260958 11.4191 0 11.1003 0H4.88374C4.56494 0 4.3099 0.260958 4.3099 0.587156V1.37003C4.3099 1.50866 4.35772 1.63914 4.44539 1.737C4.64464 1.9735 4.74825 2.27523 4.74825 2.58512V6.74414C4.74825 7.03772 4.65261 7.31499 4.48524 7.55148L3.14628 9.37819C2.78763 9.85933 3.13034 10.5525 3.72012 10.5525H4.74825H7.29067V15.2742C7.29067 15.6738 7.60947 16 8 16C8.39053 16 8.70933 15.6738 8.70933 15.2742V10.5525H11.2518H12.2799C12.8697 10.5525 13.2124 9.85933 12.8537 9.37819H12.8378ZM10.0403 9.32926H5.93578H4.66855L5.43367 8.27727C5.76043 7.8369 5.93578 7.29052 5.93578 6.73598V2.58512C5.93578 2.09582 5.80028 1.62283 5.55322 1.21509H10.4308C10.1838 1.61468 10.0483 2.08767 10.0483 2.58512V6.74414C10.0483 7.29867 10.2236 7.84506 10.5504 8.28542L11.3155 9.32926H10.0483H10.0403Z" />
</svg>
