<svg width="16" height="16" viewBox="0 0 16 16"  xmlns="http://www.w3.org/2000/svg">
<path d="M7.8853 10.0263C7.65564 10.0263 7.46197 9.9443 7.30427 9.78026C7.14619 9.61623 7.07672 9.42325 7.09586 9.20132C7.12456 8.79605 7.22025 8.44386 7.38293 8.14474C7.5456 7.84561 7.80396 7.53684 8.15801 7.21842C8.55034 6.87105 8.84928 6.56942 9.05482 6.31353C9.26074 6.05802 9.3637 5.76623 9.3637 5.43816C9.3637 5.04254 9.23223 4.71447 8.96927 4.45395C8.70593 4.19342 8.33982 4.06316 7.87094 4.06316C7.56474 4.06316 7.30408 4.12819 7.08897 4.25826C6.87347 4.38872 6.69875 4.55044 6.56478 4.74342C6.43081 4.9364 6.26584 5.06667 6.06987 5.13421C5.87352 5.20175 5.68443 5.19693 5.50262 5.11974C5.28254 5.02325 5.13192 4.86403 5.05078 4.64211C4.96925 4.42018 4.9859 4.21272 5.10073 4.01974C5.37823 3.58553 5.75142 3.22368 6.2203 2.93421C6.68918 2.64474 7.23939 2.5 7.87094 2.5C8.87569 2.5 9.64848 2.78233 10.1893 3.347C10.7298 3.91128 11 4.58904 11 5.38026C11 5.86272 10.8972 6.27532 10.6917 6.61805C10.4858 6.9604 10.1627 7.34868 9.72254 7.78289C9.3972 8.09167 9.16754 8.34254 9.03357 8.53553C8.89961 8.72851 8.8087 8.95044 8.76086 9.20132C8.72258 9.44254 8.62211 9.64035 8.45944 9.79474C8.29676 9.94912 8.10538 10.0263 7.8853 10.0263ZM7.87094 13.5C7.55517 13.5 7.28494 13.3867 7.06026 13.1602C6.8352 12.9332 6.72267 12.6605 6.72267 12.3421C6.72267 12.0237 6.8352 11.751 7.06026 11.5241C7.28494 11.2975 7.55517 11.1842 7.87094 11.1842C8.18672 11.1842 8.45714 11.2975 8.6822 11.5241C8.90688 11.751 9.01922 12.0237 9.01922 12.3421C9.01922 12.6605 8.90688 12.9332 8.6822 13.1602C8.45714 13.3867 8.18672 13.5 7.87094 13.5Z" />
</svg>
