<svg width="16" height="16" viewBox="0 0 16 16"  xmlns="http://www.w3.org/2000/svg">
<path d="M15.45 7.18497C15.09 5.69497 13.75 4.59497 12.15 4.59497C10.55 4.59497 9.32 5.59497 8.89 6.98497C8.61 6.90497 8.31 6.86497 8 6.86497C7.69 6.86497 7.39 6.90497 7.11 6.98497C6.67 5.59497 5.38 4.59497 3.85 4.59497C2.32 4.59497 0.9 5.69497 0.54 7.19497C0.19 7.42497 0 7.70497 0 8.00497C0 8.30497 0.19 8.57497 0.54 8.80497C0.9 10.295 2.25 11.405 3.85 11.405C4.16 11.405 4.46 11.365 4.74 11.285C5.19 11.165 5.61 10.955 5.97 10.675C6.68 10.105 7.15 9.27497 7.24 8.33497C7.48 8.24497 7.73 8.19497 8 8.19497C8.27 8.19497 8.52 8.24497 8.76 8.33497C8.85 9.27497 9.32 10.115 10.03 10.675C10.38 10.955 10.8 11.165 11.26 11.285C11.54 11.365 11.84 11.405 12.15 11.405C13.75 11.405 15.09 10.305 15.45 8.81497C15.8 8.57497 16 8.30497 16 8.00497C16 7.70497 15.8 7.42497 15.45 7.18497ZM4.61 9.93497C4.37 10.025 4.12 10.075 3.85 10.075C3.27 10.075 2.74 9.83497 2.37 9.43497C2.08 9.15497 1.89 8.78497 1.81 8.37497C1.79 8.25497 1.78 8.13497 1.78 8.00497C1.78 7.87497 1.79 7.74497 1.81 7.62497C1.89 7.22497 2.08 6.85497 2.37 6.56497C2.74 6.16497 3.27 5.92497 3.85 5.92497C4.49 5.92497 5.07 6.21497 5.46 6.68497C5.67 6.94497 5.82 7.25497 5.89 7.58497C5.9 7.67497 5.92 7.74497 5.92 7.82497C5.93 7.88497 5.93 7.94497 5.93 8.00497C5.93 8.06497 5.93 8.11497 5.92 8.17497C5.89 8.60497 5.72 9.00497 5.46 9.31497C5.23 9.58497 4.94 9.80497 4.61 9.93497ZM12.15 10.075C11.88 10.075 11.63 10.025 11.39 9.93497C11.06 9.80497 10.77 9.59497 10.55 9.32497H10.54C10.28 9.00497 10.11 8.60497 10.08 8.17497C10.07 8.11497 10.07 8.06497 10.07 8.00497C10.07 7.94497 10.07 7.88497 10.08 7.82497C10.08 7.74497 10.1 7.67497 10.11 7.59497C10.18 7.25497 10.33 6.94497 10.54 6.68497C10.55 6.68497 10.55 6.67497 10.55 6.67497C10.93 6.21497 11.51 5.92497 12.15 5.92497C12.73 5.92497 13.26 6.16497 13.63 6.56497C13.92 6.85497 14.11 7.22497 14.19 7.62497C14.21 7.74497 14.22 7.87497 14.22 8.00497C14.22 8.13497 14.21 8.25497 14.19 8.37497C14.11 8.78497 13.92 9.15497 13.63 9.43497C13.26 9.83497 12.73 10.075 12.15 10.075Z" />
</svg>
