<svg width="16" height="16" viewBox="0 0 16 16"  xmlns="http://www.w3.org/2000/svg">
<path d="M10.8001 6.60007C10.8001 5.48614 10.3573 4.41816 9.56963 3.6305C8.83126 2.89212 7.84657 2.45704 6.80856 2.40549L6.60007 2.40002C5.48614 2.40002 4.41816 2.84284 3.6305 3.6305C2.84284 4.41816 2.40002 5.48614 2.40002 6.60007L2.4048 6.80651C2.42847 7.28753 2.53525 7.76132 2.71994 8.20721C2.93101 8.71679 3.24049 9.17962 3.6305 9.56963C4.02051 9.95964 4.48334 10.2691 4.99292 10.4802C5.50248 10.6912 6.04852 10.8001 6.60007 10.8001L6.80651 10.7953C7.28753 10.7717 7.76132 10.6649 8.20721 10.4802C8.71679 10.2691 9.17962 9.95964 9.56963 9.56963C9.95964 9.17962 10.2691 8.71679 10.4802 8.20721C10.6912 7.69765 10.8001 7.15161 10.8001 6.60007ZM12.2001 6.60007C12.2001 7.33548 12.055 8.06373 11.7736 8.74316C11.5819 9.20581 11.3281 9.63848 11.0223 10.0324L14.7951 13.8052L14.8429 13.8585C15.0672 14.1335 15.0514 14.5388 14.7951 14.7951C14.5388 15.0514 14.1335 15.0672 13.8585 14.8429L13.8052 14.7951L10.0324 11.0223C9.63848 11.3281 9.20581 11.5819 8.74316 11.7736C8.1487 12.0198 7.51685 12.1617 6.87556 12.1933L6.60007 12.2001C5.86466 12.2001 5.13641 12.055 4.45697 11.7736C3.7776 11.4921 3.15994 11.0801 2.63996 10.5602C2.11998 10.0402 1.708 9.42254 1.42657 8.74316C1.18033 8.1487 1.03842 7.51685 1.00684 6.87556L1 6.60007C1 5.11484 1.58974 3.69018 2.63996 2.63996C3.69018 1.58974 5.11484 1 6.60007 1L6.87761 1.00684C8.26179 1.07547 9.57556 1.65535 10.5602 2.63996C11.6104 3.69018 12.2001 5.11484 12.2001 6.60007Z" />
</svg>
