<svg width="16" height="16" viewBox="0 0 16 16"  xmlns="http://www.w3.org/2000/svg">
<path d="M4.10731 11.0344C4.08967 10.8563 4.01091 10.6889 3.88325 10.5612C3.73738 10.4153 3.53961 10.3333 3.33333 10.3333C3.12705 10.3333 2.92928 10.4153 2.78342 10.5612C2.63756 10.7071 2.55556 10.9048 2.55556 11.1111L2.55935 11.1878C2.577 11.3659 2.65575 11.5334 2.78342 11.661C2.92928 11.8069 3.12705 11.8889 3.33333 11.8889C3.53961 11.8889 3.73738 11.8069 3.88325 11.661C4.02911 11.5152 4.11111 11.3174 4.11111 11.1111L4.10731 11.0344ZM8.77778 4.88889C8.77778 4.68261 8.69578 4.48484 8.54991 4.33898C8.42225 4.21131 8.25483 4.13256 8.07671 4.11491L8 4.11111C7.79372 4.11111 7.59595 4.19311 7.45009 4.33898C7.30422 4.48484 7.22222 4.68261 7.22222 4.88889C7.22222 5.09517 7.30422 5.29294 7.45009 5.4388C7.59595 5.58466 7.79372 5.66667 8 5.66667C8.20628 5.66667 8.40405 5.58466 8.54991 5.4388C8.69578 5.29294 8.77778 5.09517 8.77778 4.88889ZM13.4444 11.1111C13.4444 10.9048 13.3624 10.7071 13.2166 10.5612C13.0707 10.4153 12.8729 10.3333 12.6667 10.3333C12.4604 10.3333 12.2626 10.4153 12.1168 10.5612C11.9709 10.7071 11.8889 10.9048 11.8889 11.1111L11.8927 11.1878C11.9103 11.3659 11.9891 11.5334 12.1168 11.661C12.2626 11.8069 12.4604 11.8889 12.6667 11.8889C12.8729 11.8889 13.0707 11.8069 13.2166 11.661C13.3624 11.5152 13.4444 11.3174 13.4444 11.1111ZM5.65527 11.342C5.60218 11.8761 5.36589 12.378 4.98307 12.7609C4.73491 13.009 4.43575 13.1928 4.11111 13.3077V14.2222C4.11111 14.6518 3.76289 15 3.33333 15C2.90378 15 2.55556 14.6518 2.55556 14.2222V13.3077C2.23092 13.1928 1.93176 13.009 1.68359 12.7609C1.30077 12.378 1.06448 11.8761 1.01139 11.342L1 11.1111C1 10.4923 1.24601 9.89896 1.68359 9.46137C1.93182 9.21315 2.23083 9.02868 2.55556 8.91374V1.77778C2.55556 1.34822 2.90378 1 3.33333 1C3.76289 1 4.11111 1.34822 4.11111 1.77778V8.91374C4.43584 9.02868 4.73485 9.21315 4.98307 9.46137C5.42066 9.89896 5.66667 10.4923 5.66667 11.1111L5.65527 11.342ZM15 11.1111C15 11.7299 14.754 12.3233 14.3164 12.7609C14.0682 13.009 13.7691 13.1928 13.4444 13.3077V14.2222C13.4444 14.6518 13.0962 15 12.6667 15C12.2371 15 11.8889 14.6518 11.8889 14.2222V13.3077C11.5643 13.1928 11.2651 13.009 11.0169 12.7609C10.6341 12.378 10.3978 11.8761 10.3447 11.342L10.3333 11.1111C10.3333 10.4923 10.5793 9.89896 11.0169 9.46137C11.2652 9.21315 11.5642 9.02868 11.8889 8.91374V1.77778C11.8889 1.34822 12.2371 1 12.6667 1C13.0962 1 13.4444 1.34822 13.4444 1.77778V8.91374C13.7692 9.02868 14.0682 9.21315 14.3164 9.46137C14.754 9.89896 15 10.4923 15 11.1111ZM10.3333 4.88889C10.3333 5.50773 10.0873 6.10104 9.64974 6.53863C9.40158 6.78679 9.10242 6.97055 8.77778 7.0855V14.2222C8.77778 14.6518 8.42955 15 8 15C7.57045 15 7.22222 14.6518 7.22222 14.2222V7.0855C6.89759 6.97055 6.59842 6.78679 6.35026 6.53863C5.91268 6.10104 5.66667 5.50773 5.66667 4.88889C5.66667 4.27005 5.91268 3.67673 6.35026 3.23915C6.59848 2.99092 6.89749 2.80646 7.22222 2.69151V1.77778C7.22222 1.34822 7.57045 1 8 1C8.42955 1 8.77778 1.34822 8.77778 1.77778V2.69151C9.10251 2.80646 9.40152 2.99092 9.64974 3.23915C10.0873 3.67673 10.3333 4.27005 10.3333 4.88889Z" />
</svg>
