<svg width="16" height="16" viewBox="0 0 16 16"  xmlns="http://www.w3.org/2000/svg">
<path d="M8 7.97345C8.19479 7.97345 8.35819 7.90549 8.49019 7.76956C8.62173 7.6341 8.6875 7.46608 8.6875 7.26549V5.14159C8.6875 4.941 8.62173 4.77274 8.49019 4.63681C8.35819 4.50136 8.19479 4.43363 8 4.43363C7.80521 4.43363 7.64204 4.50136 7.5105 4.63681C7.3785 4.77274 7.3125 4.941 7.3125 5.14159V7.26549C7.3125 7.46608 7.3785 7.6341 7.5105 7.76956C7.64204 7.90549 7.80521 7.97345 8 7.97345ZM8 10.8053C8.19479 10.8053 8.35819 10.7373 8.49019 10.6014C8.62173 10.466 8.6875 10.2979 8.6875 10.0973C8.6875 9.89676 8.62173 9.72849 8.49019 9.59257C8.35819 9.45711 8.19479 9.38938 8 9.38938C7.80521 9.38938 7.64204 9.45711 7.5105 9.59257C7.3785 9.72849 7.3125 9.89676 7.3125 10.0973C7.3125 10.2979 7.3785 10.466 7.5105 10.6014C7.64204 10.7373 7.80521 10.8053 8 10.8053ZM8 15H7.82812C7.77083 15 7.71927 14.9882 7.67344 14.9646C6.1724 14.4808 4.9349 13.522 3.96094 12.0881C2.98698 10.6547 2.5 9.0708 2.5 7.33628V3.99115C2.5 3.69617 2.58319 3.43068 2.74956 3.19469C2.91548 2.9587 3.13021 2.78761 3.39375 2.68142L7.51875 1.0885C7.67917 1.0295 7.83958 1 8 1C8.16042 1 8.32083 1.0295 8.48125 1.0885L12.6063 2.68142C12.8698 2.78761 13.0848 2.9587 13.2511 3.19469C13.417 3.43068 13.5 3.69617 13.5 3.99115V7.33628C13.5 9.0708 13.013 10.6547 12.0391 12.0881C11.0651 13.522 9.8276 14.4808 8.32656 14.9646C8.26927 14.9882 8.16042 15 8 15ZM8 13.5664C9.19167 13.177 10.1771 12.3982 10.9562 11.2301C11.7354 10.0619 12.125 8.76401 12.125 7.33628V3.99115L8 2.39823L3.875 3.99115V7.33628C3.875 8.76401 4.26458 10.0619 5.04375 11.2301C5.82292 12.3982 6.80833 13.177 8 13.5664Z" />
</svg>
