<svg width="16" height="16" viewBox="0 0 16 16"  xmlns="http://www.w3.org/2000/svg">
<path d="M14.05 1.48999H2.2C0.99 1.48999 0 2.47999 0 3.68999V12.31C0 13.52 0.99 14.51 2.2 14.51H14.05C15.13 14.51 16 13.63 16 12.56V3.43999C16 2.35999 15.12 1.48999 14.05 1.48999ZM1.52 12.31V3.68999C1.52 3.31999 1.82 3.00999 2.2 3.00999H4.87C4.84 3.14999 4.82 3.29999 4.82 3.44999V12.56C4.82 12.71 4.84 12.85 4.87 13H2.2C1.83 13 1.52 12.7 1.52 12.32V12.31ZM6.77 12.99C6.53 12.99 6.33 12.79 6.33 12.55V3.43999C6.33 3.19999 6.53 2.99999 6.77 2.99999H13.8C14.17 2.99999 14.48 3.29999 14.48 3.67999V12.3C14.48 12.67 14.17 12.98 13.8 12.98H6.77V12.99Z" />
</svg>
