<svg width="16" height="16" viewBox="0 0 16 16"  xmlns="http://www.w3.org/2000/svg">
<path d="M8.77778 3.43475C8.99815 3.43475 9.18274 3.50779 9.33156 3.65388C9.48089 3.79946 9.55556 3.98004 9.55556 4.19562C9.55556 4.4112 9.48089 4.59178 9.33156 4.73736C9.18274 4.88344 8.99815 4.95649 8.77778 4.95649L7.22222 4.95649C7.00185 4.95649 6.817 4.88344 6.66767 4.73736C6.51885 4.59178 6.44444 4.4112 6.44444 4.19562C6.44444 3.98004 6.51885 3.79946 6.66767 3.65388C6.817 3.50779 7.00185 3.43475 7.22222 3.43475L8.77778 3.43475ZM14.2222 11.0434C14.4426 11.0434 14.6272 11.1162 14.776 11.2618C14.9253 11.4079 15 11.5887 15 11.8043C15 12.0199 14.9253 12.2007 14.776 12.3468C14.6272 12.4924 14.4426 12.5652 14.2222 12.5652L1.77778 12.5652C1.55741 12.5652 1.37281 12.4924 1.224 12.3468C1.07467 12.2007 0.999999 12.0199 0.999999 11.8043C0.999999 11.5887 1.07467 11.4079 1.224 11.2618C1.37281 11.1162 1.55741 11.0434 1.77778 11.0434L14.2222 11.0434ZM11.8889 7.2391C12.1093 7.2391 12.2941 7.31214 12.4434 7.45823C12.5923 7.60381 12.6667 7.78439 12.6667 7.99997C12.6667 8.21555 12.5923 8.39638 12.4434 8.54247C12.2941 8.68805 12.1093 8.76084 11.8889 8.76084L4.11111 8.76084C3.89074 8.76084 3.70615 8.68805 3.55733 8.54247C3.408 8.39638 3.33333 8.21555 3.33333 7.99997C3.33333 7.78439 3.408 7.60381 3.55733 7.45823C3.70615 7.31214 3.89074 7.2391 4.11111 7.2391L11.8889 7.2391Z" />
</svg>
