<svg width="16" height="16" viewBox="0 0 16 16"  xmlns="http://www.w3.org/2000/svg">
<path d="M7.22222 12.5652C7.00185 12.5652 6.81726 12.4922 6.66844 12.3461C6.51911 12.2005 6.44444 12.02 6.44444 11.8044C6.44444 11.5888 6.51911 11.4082 6.66844 11.2626C6.81726 11.1166 7.00185 11.0435 7.22222 11.0435H8.77778C8.99815 11.0435 9.183 11.1166 9.33233 11.2626C9.48115 11.4082 9.55556 11.5888 9.55556 11.8044C9.55556 12.02 9.48115 12.2005 9.33233 12.3461C9.183 12.4922 8.99815 12.5652 8.77778 12.5652H7.22222ZM1.77778 4.95655C1.55741 4.95655 1.37281 4.88376 1.224 4.73818C1.07467 4.5921 1 4.41126 1 4.19568C1 3.9801 1.07467 3.79927 1.224 3.65318C1.37281 3.5076 1.55741 3.43481 1.77778 3.43481H14.2222C14.4426 3.43481 14.6272 3.5076 14.776 3.65318C14.9253 3.79927 15 3.9801 15 4.19568C15 4.41126 14.9253 4.5921 14.776 4.73818C14.6272 4.88376 14.4426 4.95655 14.2222 4.95655H1.77778ZM4.11111 8.7609C3.89074 8.7609 3.70589 8.68786 3.55656 8.54177C3.40774 8.39619 3.33333 8.21561 3.33333 8.00003C3.33333 7.78445 3.40774 7.60362 3.55656 7.45753C3.70589 7.31195 3.89074 7.23916 4.11111 7.23916H11.8889C12.1093 7.23916 12.2939 7.31195 12.4427 7.45753C12.592 7.60362 12.6667 7.78445 12.6667 8.00003C12.6667 8.21561 12.592 8.39619 12.4427 8.54177C12.2939 8.68786 12.1093 8.7609 11.8889 8.7609H4.11111Z" />
</svg>
