<svg width="16" height="16" viewBox="0 0 16 16"  xmlns="http://www.w3.org/2000/svg">
<path d="M7.99459 3.23485C8.27459 3.23485 8.54459 3.25485 8.81459 3.30485C9.16459 3.36485 9.48459 3.13485 9.54459 2.79485C9.60459 2.45485 9.37459 2.12485 9.03459 2.06485C8.69459 2.00485 8.34459 1.97485 7.99459 1.97485C4.67459 1.97485 1.97459 4.67485 1.97459 7.99485C1.97459 8.41485 2.03459 8.82485 2.11459 9.22485L1.35459 9.67485C1.08459 9.83485 1.08459 10.2349 1.36459 10.3949L3.95459 11.8349C4.23459 11.9849 4.57459 11.7849 4.57459 11.4649L4.52459 8.49485C4.52459 8.17485 4.17459 7.98485 3.89459 8.14485L3.26459 8.52485C3.24459 8.34485 3.22459 8.16485 3.22459 7.98485C3.23459 5.37485 5.37459 3.23485 7.99459 3.23485Z" />
<path d="M14.6152 5.59526L12.0152 4.16526C11.7352 4.01526 11.3952 4.21526 11.4052 4.53526L11.4652 7.50526C11.4652 7.82526 11.8252 8.01526 12.0952 7.85526L12.7252 7.47526C12.7452 7.64526 12.7652 7.82526 12.7652 7.99526C12.7652 10.6253 10.6352 12.7653 8.00522 12.7653C7.77522 12.7653 7.54522 12.7453 7.31522 12.7153C6.97522 12.6753 6.65522 12.9053 6.60522 13.2553C6.55522 13.6053 6.79522 13.9153 7.14522 13.9653C7.42522 14.0053 7.71522 14.0253 8.00522 14.0253C11.3252 14.0253 14.0252 11.3253 14.0252 7.99526C14.0252 7.58526 13.9652 7.17526 13.8852 6.77526L14.6452 6.31526C14.9152 6.15526 14.9152 5.75526 14.6352 5.59526H14.6152Z" />
</svg>
