<svg width="16" height="16" viewBox="0 0 16 16"  xmlns="http://www.w3.org/2000/svg">
<path d="M8 2.3125C11.1325 2.3125 13.6875 4.8675 13.6875 8C13.6875 11.1325 11.1325 13.6875 8 13.6875C4.8675 13.6875 2.3125 11.1325 2.3125 8C2.3125 4.8675 4.8675 2.3125 8 2.3125ZM8 1C4.1325 1 1 4.1325 1 8C1 11.8675 4.1325 15 8 15C11.8675 15 15 11.8675 15 8C15 4.1325 11.8675 1 8 1Z" />
<path d="M14.9993 7.99126C14.9993 11.8588 11.8668 14.9913 7.99932 14.9913C7.53557 14.9913 7.08057 14.9475 6.64307 14.86V14.7463C6.64307 14.7463 11.2718 12.3663 8.45432 7.99126C5.75057 3.80001 8.22682 1.21001 8.43682 1.00876C12.1031 1.22751 14.9993 4.27251 14.9993 7.99126Z" />
</svg>
