<svg width="16" height="16" viewBox="0 0 16 16"  xmlns="http://www.w3.org/2000/svg">
<path d="M13.0149 1.67H10.3149C10.2449 0.74 9.46494 0 8.52494 0H7.46494C6.51494 0 5.73494 0.74 5.67494 1.67H2.97494C2.33494 1.67 1.81494 2.19 1.81494 2.83V4.01C1.81494 4.53 2.15494 4.97 2.62494 5.11V13.49C2.62494 14.87 3.74494 16 5.13494 16H10.8649C12.2449 16 13.3749 14.88 13.3749 13.49V5.11C13.8349 4.96 14.1849 4.52 14.1849 4V2.82C14.1849 2.18 13.6649 1.66 13.0249 1.66L13.0149 1.67ZM3.08494 2.94H6.30494C6.65494 2.94 6.94494 2.65 6.94494 2.3V1.8C6.94494 1.51 7.18494 1.27 7.47494 1.27H8.53494C8.82494 1.27 9.06494 1.51 9.06494 1.8V2.3C9.06494 2.65 9.35494 2.94 9.70494 2.94H12.9249V3.89H3.08494V2.94ZM10.8649 14.73H10.2049V8.32C10.2049 7.97 9.91494 7.68 9.56494 7.68C9.21494 7.68 8.92494 7.97 8.92494 8.32V14.73H6.95494V8.32C6.95494 7.97 6.66494 7.68 6.31494 7.68C5.96494 7.68 5.67494 7.97 5.67494 8.32V14.73H5.12494C4.44494 14.73 3.89494 14.18 3.89494 13.5V5.16H12.0949V13.49C12.0949 14.17 11.5449 14.72 10.8649 14.72V14.73Z" />
</svg>
