<svg width="16" height="16" viewBox="0 0 16 16"  xmlns="http://www.w3.org/2000/svg">
<path d="M1 11.8888V11.1111C1 10.6815 1.34822 10.3333 1.77778 10.3333C2.20733 10.3333 2.55556 10.6815 2.55556 11.1111V11.8888C2.55556 12.3014 2.71956 12.697 3.01128 12.9887C3.30301 13.2804 3.69855 13.4444 4.11111 13.4444H11.8889L12.0423 13.4368C12.3985 13.4015 12.7334 13.244 12.9887 12.9887C13.244 12.7334 13.4016 12.3985 13.4368 12.0423L13.4444 11.8888V11.1111C13.4444 10.6815 13.7927 10.3333 14.2222 10.3333C14.6518 10.3333 15 10.6815 15 11.1111V11.8888L14.9962 12.043C14.9581 12.812 14.6355 13.5415 14.0885 14.0885C13.5415 14.6355 12.8121 14.9581 12.0431 14.9962L11.8889 15H4.11111C3.28599 15 2.4949 14.672 1.91146 14.0885C1.32801 13.5051 1 12.714 1 11.8888ZM7.22222 11.1111V3.65523L5.4388 5.43868C5.13506 5.74242 4.64272 5.74242 4.33898 5.43868C4.03523 5.13493 4.03523 4.64258 4.33898 4.33884L7.45009 1.22769L7.50933 1.17452C7.81482 0.925351 8.26516 0.942925 8.54991 1.22769L11.661 4.33884L11.7142 4.39808C11.9634 4.70358 11.9458 5.15392 11.661 5.43868C11.3763 5.72344 10.9259 5.74101 10.6204 5.49185L10.5612 5.43868L8.77778 3.65523V11.1111C8.77778 11.5406 8.42955 11.8888 8 11.8888C7.57045 11.8888 7.22222 11.5406 7.22222 11.1111Z" />
</svg>
