<svg width="16" height="16" viewBox="0 0 16 16"  xmlns="http://www.w3.org/2000/svg">
<path d="M1 12.7923V4.69751C1.00003 4.11204 1.23279 3.55061 1.64678 3.13661C2.06079 2.72263 2.62219 2.48983 3.20768 2.48983H6.88714C7.29352 2.48983 7.62296 2.81936 7.62303 3.22573C7.62303 3.63215 7.29356 3.96162 6.88714 3.96162H3.20768C3.01253 3.96162 2.82538 4.03924 2.68738 4.17721C2.5494 4.31519 2.47182 4.50238 2.47178 4.69751V12.7923L2.47538 12.8649C2.49205 13.0334 2.56659 13.1918 2.68738 13.3126C2.82538 13.4506 3.01251 13.5282 3.20768 13.5282H11.3025C11.4977 13.5282 11.6848 13.4506 11.8228 13.3126C11.9608 13.1746 12.0384 12.9875 12.0384 12.7923V9.11286C12.0384 8.7065 12.3679 8.37697 12.7743 8.37697C13.1807 8.37697 13.5101 8.7065 13.5102 9.11286V12.7923C13.5102 13.3778 13.2774 13.9392 12.8634 14.3532C12.4494 14.7672 11.888 15 11.3025 15H3.20768C2.62216 15 2.0608 14.7672 1.64678 14.3532C1.28458 13.991 1.06099 13.5161 1.01078 13.0108L1 12.7923ZM12.7728 1.00008C13.0659 0.997536 13.3568 1.0537 13.628 1.16465C13.8993 1.27565 14.1459 1.43961 14.3531 1.64686C14.5604 1.85415 14.7243 2.10066 14.8353 2.37198C14.9463 2.64327 15.0025 2.93405 14.9999 3.22716C14.9973 3.52009 14.9365 3.80958 14.821 4.07876C14.707 4.34416 14.541 4.58408 14.3345 4.7859L14.3352 4.78662L8.01685 11.1049C7.87886 11.2429 7.69169 11.3205 7.49655 11.3205H5.41535C5.00893 11.3205 4.67946 10.9911 4.67946 10.5846V8.50345C4.67952 8.30836 4.7571 8.12111 4.89505 7.98315L11.2134 1.66483V1.66555C11.4153 1.45884 11.6557 1.2931 11.9212 1.17903C12.1904 1.06345 12.4799 1.00267 12.7728 1.00008ZM12.7858 2.47187C12.6881 2.47274 12.5916 2.49298 12.5019 2.53151C12.4346 2.56043 12.3722 2.5993 12.3165 2.6465L12.2633 2.6968L12.254 2.70543L6.15125 8.80816V9.84875H7.19184L13.2946 3.74602L13.3039 3.7374L13.3535 3.6835C13.4007 3.62784 13.4396 3.56539 13.4685 3.49809C13.507 3.40836 13.5273 3.31188 13.5281 3.21423C13.529 3.11652 13.5105 3.01937 13.4735 2.92893C13.4365 2.83854 13.3816 2.75652 13.3125 2.68746C13.2435 2.61839 13.1615 2.56347 13.0711 2.52648C12.9806 2.48949 12.8835 2.47102 12.7858 2.47187Z" />
</svg>
