<svg width="16" height="16" viewBox="0 0 16 16"  xmlns="http://www.w3.org/2000/svg">
<path d="M15.7713 3.28505L12.5633 0.218606C12.4169 0.0786184 12.2184 0 12.0112 0H4.67524C3.41794 0 2.39488 0.977588 2.39488 2.17942V5.84728H1.24932C0.559072 5.84728 0 6.38202 0 7.04149V11.9142C0 12.574 0.559072 13.1084 1.24932 13.1084H2.39488V13.8202C2.39488 15.0221 3.41794 16 4.67524 16H13.72C14.9773 16 16 15.0221 16 13.8202V3.81283C16 3.61479 15.9178 3.42504 15.7713 3.28505ZM3.95653 2.17942C3.95653 1.80092 4.27893 1.49275 4.67524 1.49275H10.9763V3.36865C10.9763 4.16014 11.6475 4.80202 12.4759 4.80202H14.4383V5.84795C14.4241 5.84761 14.4099 5.84728 14.3953 5.84728H3.95653V2.17942ZM13.3101 10.5601L13.1831 11.3864H10.2722V7.59016H11.4424V10.5601H13.3101ZM7.75309 9.88236C6.58289 9.61234 6.34656 9.20465 6.34656 8.69214C6.34656 8.05291 6.83657 7.5185 7.94326 7.5185C9.04995 7.5185 9.56322 8.08044 9.61492 8.67555H8.49088C8.46208 8.47154 8.35241 8.26787 7.93736 8.26787C7.67223 8.26787 7.51086 8.36141 7.51086 8.56542C7.51086 8.76943 7.65488 8.8517 8.266 8.995C9.48826 9.28725 9.73604 9.71153 9.73604 10.2516C9.73604 10.9621 9.15961 11.458 7.99532 11.458C6.89418 11.458 6.31185 10.9678 6.22544 10.235H7.35538C7.42444 10.5654 7.66667 10.7087 8.04112 10.7087C8.39302 10.7087 8.55439 10.5876 8.55439 10.367C8.55439 10.1192 8.38122 10.0257 7.75309 9.88236ZM2.19048 11.3864L2.39488 11.0746L3.42974 9.49657L2.39488 7.86681L2.21928 7.59016H3.5623L3.95653 8.33322L4.18488 8.76379H4.19668L4.83627 7.59016H6.05852L4.85362 9.3808L6.13348 11.3864H4.79601L4.12727 10.1524H4.11582L3.95653 10.4413L3.43564 11.3864H2.19048ZM14.4383 13.8202C14.4383 14.1991 14.1163 14.5072 13.72 14.5072H4.67524C4.27893 14.5072 3.95653 14.1991 3.95653 13.8202V13.1084H14.3953C14.4099 13.1084 14.4241 13.108 14.4383 13.1077V13.8202Z" />
</svg>
